<?xml version="1.0" encoding="UTF-8"?>
<!-- Created with Inkscape (http://www.inkscape.org/) -->
<svg id="svg4536" width="283mm" height="337.2mm" version="1.1" viewBox="0 0 283 337.2" xmlns="http://www.w3.org/2000/svg" xmlns:cc="http://creativecommons.org/ns#" xmlns:dc="http://purl.org/dc/elements/1.1/" xmlns:rdf="http://www.w3.org/1999/02/22-rdf-syntax-ns#">
 <metadata id="metadata4533">
  <rdf:RDF>
   <cc:Work rdf:about="">
    <dc:format>image/svg+xml</dc:format>
    <dc:type rdf:resource="http://purl.org/dc/dcmitype/StillImage"/>
    <dc:title/>
   </cc:Work>
  </rdf:RDF>
 </metadata>
 <g id="layer1" transform="translate(305.45 279.85)">
  <path id="path10" d="m-43.072-109.35-22.34-22.326 22.338-22.338-0.0457-0.0337c12.807-13.348 20.674-31.458 20.674-51.408 0-41.011-33.247-74.248-74.267-74.248-22.054 0-41.867 9.6129-55.465 24.892l-13.884 13.887v-38.928h-139.38v220.07h0.024v0.63493c0 41.02 33.238 74.243 74.258 74.243 27.793 0 52.026-15.265 64.751-37.882l14.238 14.238c13.596 15.265 33.406 24.89 55.46 24.89 41.023 0 74.27-33.252 74.27-74.251 0-19.947-7.8645-38.072-20.674-51.41z" stroke-width="2.405"/>
  <g id="g4509" transform="matrix(2.405 0 0 2.405 -305.56 -280.36)" fill="#fff">
   <path id="path12" d="m60.022 91.066s-1.422 1.976-2.883 1.674c0 0-1.97-0.165-1.97-2.745 0 0-0.214-2.142 1.757-2.998 0 0 1.46-0.565 3.096-0.39zm7.256 1.08c-2.793 1.539-2.662-0.74-2.662-0.74v-9.482c0.084-3.3-1.591-4.507-1.591-4.507-2.838-2.103-6.956-0.857-6.956-0.857-4.936 1.198-4.81 4.03-4.81 4.03 0.39 3.009 3.432 2.746 3.432 2.746 0.735-3.125 0-4.975 0-4.975 5.281-2.317 5.37 2.794 5.37 2.794v4.08c-4.937 0.213-5.798 0.856-5.798 0.856-4.463 1.499-4.035 4.546-4.035 4.546 0.39 4.508 4.984 4.294 4.984 4.294 3.047 0.175 4.974-2.405 4.974-2.405 0.39 2.658 3.35 2.366 3.35 2.366 3.05-0.214 4.17-1.801 4.17-1.801l-0.428-0.944zm26.1-1.08s-1.422 1.976-2.882 1.674c0 0-1.976-0.165-1.976-2.745 0 0-0.214-2.142 1.762-2.998 0 0 1.46-0.565 3.096-0.39zm7.253 1.08c-2.794 1.539-2.658-0.74-2.658-0.74v-9.482c0.078-3.3-1.596-4.507-1.596-4.507-2.834-2.103-6.952-0.857-6.952-0.857-4.935 1.198-4.81 4.03-4.81 4.03 0.39 3.009 3.437 2.746 3.437 2.746 0.73-3.125 0-4.975 0-4.975 5.277-2.317 5.365 2.794 5.365 2.794v4.08c-4.936 0.213-5.793 0.856-5.793 0.856-4.468 1.499-4.04 4.546-4.04 4.546 0.39 4.508 4.985 4.294 4.985 4.294 3.047 0.175 4.974-2.405 4.974-2.405 0.39 2.658 3.35 2.366 3.35 2.366 3.047-0.214 4.166-1.801 4.166-1.801l-0.428-0.944zm-71.101 0.692-1.679 0.37v1.44h9.944v-1.44l-2.098-0.575-10.037-11.984 7.57-7.898 3.66-0.701v-1.475h-8.757l0.034 1.309 2.682 0.74-9.672 10.206z"/>
   <path id="path14" d="m23.484 93.13-2.526-0.458v-20.155l2.453-0.574v-1.363h-10.139l0.01 1.431 2.696 0.38v20.282l-2.838 0.584v1.372h10.344zm15.295-23.923v-0.993l7.33-1.212v25.914l2.98 0.389v1.363h-9.94l0.014-1.421 2.318-0.273v-22.735zm29.637 9.271 0.058-1.217 7.214-1.051v2.979s1.217-2.98 4.741-2.98c0 0 3.096 0.108 3.096 3.31 0 0-0.058 3.64-3.913 3.252 0 0-0.448-2.317 0.048-4.965 0 0-2.035 0-3.972 3.26v11.744l3.7 0.438v1.41h-10.583v-1.294l2.424-0.447v-13.524z"/>
  </g>
  <g id="g4615" transform="matrix(1.0268 0 0 1.0268 -273.94 -2.7989)">
   <path id="path3" d="m19.81 31.02c3.73-6.51 14.04-7.52 18.96-1.87 1.98 2.1 2.77 4.94 3.38 7.68l-5.23 0.5c-0.83-2.75-1.93-6.09-5.07-6.89-3.36-1.1-6.76 1.47-7.63 4.66-1.36 4.44-1.38 9.37 0.03 13.79 0.96 3.1 4.24 5.71 7.57 4.69 3.06-0.71 4.47-3.85 5.18-6.61l4.99 0.44c-0.25 3.7-2.2 7.23-5.29 9.3-5.41 3.36-13.62 2.15-16.86-3.66-3.78-6.62-3.95-15.43-0.03-22.03z"/>
   <path id="path5" d="m113 26h5.245v5.5h-5.245z"/>
   <path id="path7" d="m97.99 28.35 5.2603-0.64v6.54h4.75v4.255h-4.7498v11.024c0 0.96838 0.12019 1.9313 0.24975 2.8905 0.56 2.22 3.28 1.63 5.01 1.96l0.01 3.65c-3.1808 0.822-7.583 0.77385-9.469-2.1987-0.47325-0.70414-0.61006-1.4371-0.74175-2.1991-0.21537-1.3578-0.31946-2.7263-0.31946-4.1027v-11.024h-2.9897v-4.255h2.9897z"/>
   <path id="path19-7" d="m55.379 33.713c-0.01905 6.47e-4 -0.03802 0.0037-0.05715 0.0044-0.14943 0.0055-0.29781 0.02069-0.44678 0.03223-0.13433 0.0105-0.26894 0.01701-0.40283 0.03223-0.14286 0.01631-0.28429 0.04109-0.42626 0.06298-0.14724 0.02236-0.29473 0.04224-0.44092 0.07031-0.0654 0.01288-0.12968 0.02985-0.19483 0.04394-2.7235 0.5725-5.2234 2.131-6.6533 4.585-0.48555 0.81126-0.877 1.6853-1.1924 2.5913-0.0327 0.09097-0.06142 0.18359-0.09229 0.27539-0.0537 0.16452-0.11164 0.32702-0.15967 0.49365-0.09653 0.32713-0.17856 0.65958-0.25195 0.99463-0.0098 0.04544-0.01987 0.09069-0.02933 0.13623-0.15346 0.7339-0.25008 1.4825-0.29296 2.2368-3e-3 0.04843-0.0067 0.09657-0.0088 0.14502-0.01725 0.36321-0.02595 0.72745-0.01755 1.0913 0.0015 0.05435 0.0067 0.10827 0.0088 0.1626 0.01035 0.30685 0.03 0.613 0.05858 0.91846 0.0076 0.08116 0.01448 0.16219 0.0234 0.24316 0.039 0.35567 0.08997 0.70947 0.1538 1.0605 6e-3 0.03092 0.01313 0.06142 0.01905 0.09229 0.36224 1.9232 1.0941 3.7572 2.206 5.3086 1.8379 2.9383 5.2087 4.3137 8.5723 4.2407 3.3637 0.07309 6.7358-1.3023 8.5737-4.2407 1.1096-1.5482 1.8401-3.378 2.2031-5.2969 0.0068-0.03671 0.01515-0.07308 0.02197-0.10986 0.06195-0.34152 0.11243-0.68536 0.15088-1.0312 0.01057-0.09411 0.01762-0.18835 0.0264-0.28272 0.02812-0.30405 0.04853-0.60865 0.05858-0.91406 0.0015-0.05039 6e-3 -0.10046 0.0075-0.15088 0.0083-0.36044 6.97e-4 -0.72124-0.01613-1.0811-3e-3 -0.05823-0.0068-0.11612-0.01028-0.17432-0.04342-0.74792-0.1408-1.49-0.29297-2.2178-0.0094-0.04554-0.0195-0.09079-0.02933-0.13623-0.0735-0.33552-0.15525-0.66852-0.25195-0.99609-0.045-0.1561-0.09799-0.30864-0.14794-0.46289-0.03494-0.10482-0.06951-0.20976-0.10692-0.31348-0.31491-0.90279-0.70552-1.774-1.1895-2.5825-1.4303-2.4546-3.9304-4.0143-6.6548-4.5864-0.0645-0.01394-0.12857-0.02973-0.19336-0.04248-0.1423-0.02732-0.28591-0.04693-0.4292-0.06885-0.14702-0.02282-0.29296-0.04762-0.44092-0.06446-0.13022-0.01477-0.26047-0.02192-0.39112-0.03223-0.15138-0.01183-0.30224-0.02656-0.4541-0.03223-0.14408-0.0056-0.288-0.0028-0.43213-0.0029-0.12549 1.03e-4 -0.251-0.0057-0.37646-0.0015zm0.375 4.2656c0.07043-3.29e-4 0.14055-9.75e-4 0.21094 0.0015 0.59664 0.02615 1.1869 0.14989 1.7227 0.37354 0.02302 4.73e-4 0.04305 0.0038 0.06593 0.0044 0.97995 0.40668 1.7985 1.1366 2.1885 2.1958 1.56 3.83 1.6705 8.7302-0.72949 12.24-1.8493 2.4747-4.9843 2.4259-6.9155 2e-6 -2.4-3.51-2.2895-8.4102-0.72949-12.24 0.38998-1.0592 1.2085-1.7891 2.1885-2.1958 0.02287-6.27e-4 0.0429-0.0039 0.06592-0.0044 0.53572-0.22363 1.1246-0.34738 1.7212-0.37354 0.07035-0.0024 0.14054-0.0018 0.21094-0.0015z"/>
   <path id="path15-3" d="m80.22 34.63c4.05-2.5 10.32 0.33 10.57 5.26 0.11093 1.3628 0.21113 2.7272 0.21113 4.0938 0 4.672-9.8e-4 9.3469-9.8e-4 14.016h-5.2501c0-5.3592 0.18-10.72-0.11-16.06-0.05-2.28-2.71-4.13-4.85-3.27-2.65 0.68-3.86 3.55-3.99 6.05-0.16 4.42-0.05 8.8367-0.05 13.28h-5.25v-23.745h4.78l-0.13 5.345c1.13-1.81 2.17-3.84 4.07-4.97z"/>
   <path id="path13" d="m113 34.25h5.245v23.75h-5.245z"/>
   <path id="path15" d="m133.47 34.63c4.05-2.5 10.32 0.33 10.57 5.26 0.11093 1.3628 0.21112 2.7272 0.21112 4.0938 0 4.672-1e-3 9.3469-1e-3 14.016h-5.2501c0-5.3592 0.18-10.72-0.11-16.06-0.05-2.28-2.71-4.13-4.85-3.27-2.65 0.68-3.86 3.55-3.99 6.05-0.16 4.42-0.05 8.8367-0.05 13.28h-5.25v-23.745h4.78l-0.13 5.345c1.13-1.81 2.17-3.84 4.07-4.97z"/>
   <path id="path15-3-3" d="m161.53 57.649c-4.05 2.5-10.32-0.33-10.57-5.26-0.11093-1.3628-0.21113-2.7272-0.21113-4.0938 0-4.672 9.8e-4 -9.3469 9.8e-4 -14.016h5.2501c0 5.3592-0.18 10.72 0.11 16.06 0.05 2.28 2.71 4.13 4.85 3.27 2.65-0.68 3.86-3.55 3.99-6.05 0.16-4.42 0.05-8.8367 0.05-13.28h5.25v23.745h-4.78l0.13-5.345c-1.13 1.81-2.17 3.84-4.07 4.97z"/>
   <path id="path19" transform="scale(.75)" d="m247.85 44.945c-0.0254 8.62e-4 -0.0507 0.0049-0.0762 0.0059-0.19924 0.0074-0.39708 0.02759-0.59571 0.04297-0.17911 0.014-0.35859 0.02268-0.53711 0.04297-0.19048 0.02175-0.37905 0.05479-0.56835 0.08398-0.19632 0.02981-0.39297 0.05632-0.58789 0.09375-0.0872 0.01717-0.1729 0.0398-0.25977 0.05859-3.6314 0.76334-6.9645 2.8414-8.8711 6.1133-0.6474 1.0817-1.1693 2.247-1.5898 3.4551-0.0436 0.12129-0.0819 0.24478-0.12305 0.36719-0.0716 0.21936-0.14886 0.43603-0.21289 0.6582-0.12871 0.43618-0.23808 0.87944-0.33593 1.3262-0.0131 0.06059-0.0265 0.12092-0.0391 0.18164-0.20461 0.97853-0.33344 1.9766-0.39062 2.9824-4e-3 0.06457-9e-3 0.12876-0.0117 0.19336-0.023 0.48428-0.0346 0.96993-0.0234 1.4551 2e-3 0.07247 9e-3 0.14436 0.0117 0.2168 0.0138 0.40914 0.04 0.81734 0.0781 1.2246 0.0102 0.10822 0.0193 0.21626 0.0312 0.32422 0.052 0.47423 0.11996 0.94596 0.20507 1.4141 8e-3 0.04122 0.0175 0.08189 0.0254 0.12305 0.48299 2.5642 1.4589 5.0096 2.9414 7.0781 2.4505 3.9177 6.9449 5.7516 11.43 5.6543 4.4849 0.09745 8.981-1.7364 11.432-5.6543 1.4795-2.0643 2.4535-4.504 2.9375-7.0625 9e-3 -0.04895 0.0202-0.09744 0.0293-0.14648 0.0826-0.45536 0.14991-0.91382 0.20117-1.375 0.0141-0.12548 0.0235-0.25113 0.0352-0.37695 0.0375-0.4054 0.0647-0.81154 0.0781-1.2188 2e-3 -0.06719 8e-3 -0.13394 0.01-0.20117 0.0111-0.48058 9.3e-4 -0.96166-0.0215-1.4414-4e-3 -0.07764-9e-3 -0.15482-0.0137-0.23242-0.0579-0.99723-0.18773-1.9867-0.39063-2.957-0.0126-0.06072-0.026-0.12105-0.0391-0.18164-0.098-0.44736-0.207-0.89136-0.33594-1.3281-0.06-0.20813-0.13065-0.41152-0.19726-0.61719-0.0466-0.13976-0.0927-0.27967-0.14258-0.41797-0.41988-1.2037-0.94069-2.3653-1.5859-3.4434-1.9071-3.2727-5.2406-5.3524-8.873-6.1152-0.086-0.01859-0.17143-0.03964-0.25782-0.05664-0.18973-0.03643-0.38121-0.06258-0.57226-0.0918-0.19602-0.03043-0.39061-0.06349-0.58789-0.08594-0.17363-0.01969-0.34729-0.02923-0.52149-0.04297-0.20184-0.01577-0.40298-0.03541-0.60547-0.04297-0.1921-0.0075-0.384-0.0037-0.57617-0.0039-0.16732 1.38e-4 -0.33466-0.0076-0.50195-2e-3zm0.5 5.6875c0.0939-4.39e-4 0.1874-0.0013 0.28125 2e-3 0.79552 0.03487 1.5825 0.19986 2.2969 0.49805 0.0307 6.31e-4 0.0574 5e-3 0.0879 0.0059 1.3066 0.54225 2.398 1.5155 2.918 2.9277 2.08 5.1067 2.2274 11.64-0.97265 16.32-2.4657 3.2997-6.6457 3.2345-9.2207 3e-6 -3.2-4.68-3.0526-11.214-0.97265-16.32 0.51998-1.4122 1.6114-2.3855 2.918-2.9277 0.0305-8.36e-4 0.0572-0.0052 0.0879-0.0059 0.7143-0.29817 1.4994-0.46317 2.2949-0.49805 0.0938-0.0032 0.18739-0.0024 0.28125-2e-3z" stroke-width="1.3333"/>
  </g>
 </g>
</svg>
