<?xml version="1.0" encoding="UTF-8"?>
<!-- Created with Inkscape (http://www.inkscape.org/) -->
<svg id="svg4536" width="283mm" height="296.2mm" version="1.1" viewBox="0 0 283 296.2" xmlns="http://www.w3.org/2000/svg" xmlns:cc="http://creativecommons.org/ns#" xmlns:dc="http://purl.org/dc/elements/1.1/" xmlns:rdf="http://www.w3.org/1999/02/22-rdf-syntax-ns#">
 <metadata id="metadata4533">
  <rdf:RDF>
   <cc:Work rdf:about="">
    <dc:format>image/svg+xml</dc:format>
    <dc:type rdf:resource="http://purl.org/dc/dcmitype/StillImage"/>
    <dc:title/>
   </cc:Work>
  </rdf:RDF>
 </metadata>
 <g id="layer1" transform="translate(305.45 279.85)">
  <path id="path10" d="m-43.072-109.35-22.34-22.326 22.338-22.338-0.0457-0.0337c12.807-13.348 20.674-31.458 20.674-51.408 0-41.011-33.247-74.248-74.267-74.248-22.054 0-41.867 9.6129-55.465 24.892l-13.884 13.887v-38.928h-139.38v220.07h0.024v0.63493c0 41.02 33.238 74.243 74.258 74.243 27.793 0 52.026-15.265 64.751-37.882l14.238 14.238c13.596 15.265 33.406 24.89 55.46 24.89 41.023 0 74.27-33.252 74.27-74.251 0-19.947-7.8645-38.072-20.674-51.41z" fill="#fff" stroke-width="2.405"/>
  <g id="g4509" transform="matrix(2.405 0 0 2.405 -305.56 -280.36)">
   <path id="path12" d="m60.022 91.066s-1.422 1.976-2.883 1.674c0 0-1.97-0.165-1.97-2.745 0 0-0.214-2.142 1.757-2.998 0 0 1.46-0.565 3.096-0.39zm7.256 1.08c-2.793 1.539-2.662-0.74-2.662-0.74v-9.482c0.084-3.3-1.591-4.507-1.591-4.507-2.838-2.103-6.956-0.857-6.956-0.857-4.936 1.198-4.81 4.03-4.81 4.03 0.39 3.009 3.432 2.746 3.432 2.746 0.735-3.125 0-4.975 0-4.975 5.281-2.317 5.37 2.794 5.37 2.794v4.08c-4.937 0.213-5.798 0.856-5.798 0.856-4.463 1.499-4.035 4.546-4.035 4.546 0.39 4.508 4.984 4.294 4.984 4.294 3.047 0.175 4.974-2.405 4.974-2.405 0.39 2.658 3.35 2.366 3.35 2.366 3.05-0.214 4.17-1.801 4.17-1.801l-0.428-0.944zm26.1-1.08s-1.422 1.976-2.882 1.674c0 0-1.976-0.165-1.976-2.745 0 0-0.214-2.142 1.762-2.998 0 0 1.46-0.565 3.096-0.39zm7.253 1.08c-2.794 1.539-2.658-0.74-2.658-0.74v-9.482c0.078-3.3-1.596-4.507-1.596-4.507-2.834-2.103-6.952-0.857-6.952-0.857-4.935 1.198-4.81 4.03-4.81 4.03 0.39 3.009 3.437 2.746 3.437 2.746 0.73-3.125 0-4.975 0-4.975 5.277-2.317 5.365 2.794 5.365 2.794v4.08c-4.936 0.213-5.793 0.856-5.793 0.856-4.468 1.499-4.04 4.546-4.04 4.546 0.39 4.508 4.985 4.294 4.985 4.294 3.047 0.175 4.974-2.405 4.974-2.405 0.39 2.658 3.35 2.366 3.35 2.366 3.047-0.214 4.166-1.801 4.166-1.801l-0.428-0.944zm-71.101 0.692-1.679 0.37v1.44h9.944v-1.44l-2.098-0.575-10.037-11.984 7.57-7.898 3.66-0.701v-1.475h-8.757l0.034 1.309 2.682 0.74-9.672 10.206z"/>
   <path id="path14" d="m23.484 93.13-2.526-0.458v-20.155l2.453-0.574v-1.363h-10.139l0.01 1.431 2.696 0.38v20.282l-2.838 0.584v1.372h10.344zm15.295-23.923v-0.993l7.33-1.212v25.914l2.98 0.389v1.363h-9.94l0.014-1.421 2.318-0.273v-22.735zm29.637 9.271 0.058-1.217 7.214-1.051v2.979s1.217-2.98 4.741-2.98c0 0 3.096 0.108 3.096 3.31 0 0-0.058 3.64-3.913 3.252 0 0-0.448-2.317 0.048-4.965 0 0-2.035 0-3.972 3.26v11.744l3.7 0.438v1.41h-10.583v-1.294l2.424-0.447v-13.524z"/>
  </g>
 </g>
</svg>
