<svg id="b" space="preserve" version="1.1" viewBox="0 0 800 173.04" xmlns="http://www.w3.org/2000/svg" xmlns:xlink="http://www.w3.org/1999/xlink">
 <defs id="c">
  <linearGradient id="a" x1="-26.066" x2="238.27" y1="200.22" y2="-64.116" gradientUnits="userSpaceOnUse">
   <stop id="d" stop-color="#2d2a79" offset="0"/>
   <stop id="e" stop-color="#2d2a79" offset=".5"/>
   <stop id="f" stop-color="#01adef" offset=".5"/>
   <stop id="g" stop-color="#01adef" offset="1"/>
  </linearGradient>
 </defs>
 <link id="h" href="" rel="stylesheet" type="text/css"/>
 <style id="i" type="text/css"/>
 <style id="j" type="text/css">.st0{display:none;}
	.st1{fill:#FFFFFF;}
	.st2{clip-path:url(#SVGID_2_);fill:#FFFFFF;}</style>
 <g id="k" transform="scale(2.7682)" fill="url(#a)">
  <path id="l" transform="matrix(1.3619 0 0 1.3619 0 -42.492)" d="m77.9 77.1v-45.9h-11.7l-17.9 23.3v-23.3h-13.1l-35.2 45.9h16.9l19-24.7v24.7h10.1l19-24.7v24.7z"/>
  <path id="m" transform="matrix(1.3619 0 0 1.3619 0 -42.492)" d="m212.2 77.1-35.2-45.9h-13.1v23.3l-17.9-23.3h-11.7v45.9h12.9v-24.7l19 24.7h10.1v-24.7l19 24.7z"/>
  <path id="n" transform="matrix(1.3619 0 0 1.3619 0 -42.492)" d="m114.6 54.5-17.9-23.3h-11.6v45.9h12.8v-24.7l19 24.7h10.1v-45.9h-12.4z"/>
 </g>
</svg>
