<?xml version="1.0" encoding="UTF-8"?>
<!-- Generator: Adobe Illustrator 22.1.0, SVG Export Plug-In . SVG Version: 6.00 Build 0)  -->
<svg id="Layer_1" width="800" height="173.04" xmlns:cc="http://creativecommons.org/ns#" xmlns:dc="http://purl.org/dc/elements/1.1/" xmlns:rdf="http://www.w3.org/1999/02/22-rdf-syntax-ns#" space="preserve" version="1.1" viewBox="0 0 800 173.04" xmlns:xlink="http://www.w3.org/1999/xlink" xmlns="http://www.w3.org/2000/svg">
 <metadata id="metadata28">
  <rdf:RDF>
   <cc:Work rdf:about="">
    <dc:format>image/svg+xml</dc:format>
    <dc:type rdf:resource="http://purl.org/dc/dcmitype/StillImage"/>
    <dc:title/>
   </cc:Work>
  </rdf:RDF>
 </metadata>
 <defs id="defs26">
  <linearGradient id="linearGradient846">
   <stop id="stop842" stop-color="#2d2a79" offset="0"/>
   <stop id="stop850" stop-color="#2d2a79" offset=".5"/>
   <stop id="stop852" stop-color="#01adef" offset=".5"/>
   <stop id="stop844" stop-color="#01adef" offset="1"/>
  </linearGradient>
  <linearGradient id="linearGradient854" x1="-26.066" x2="238.27" y1="200.22" y2="-64.116" gradientUnits="userSpaceOnUse" xlink:href="#linearGradient846"/>
 </defs>
 <link id="dark-mode" href="" rel="stylesheet" type="text/css"/>
 <style id="dark-mode-custom-style" type="text/css"/>
 <style id="style2" type="text/css">.st0{display:none;}
	.st1{fill:#FFFFFF;}
	.st2{clip-path:url(#SVGID_2_);fill:#FFFFFF;}</style>
 <g id="g883" transform="scale(2.7682)" fill="url(#linearGradient854)">
  <path id="polygon5" transform="matrix(1.3619 0 0 1.3619 0 -42.492)" d="m77.9 77.1v-45.9h-11.7l-17.9 23.3v-23.3h-13.1l-35.2 45.9h16.9l19-24.7v24.7h10.1l19-24.7v24.7z"/>
  <path id="polygon7" transform="matrix(1.3619 0 0 1.3619 0 -42.492)" d="m212.2 77.1-35.2-45.9h-13.1v23.3l-17.9-23.3h-11.7v45.9h12.9v-24.7l19 24.7h10.1v-24.7l19 24.7z"/>
  <path id="polygon9" transform="matrix(1.3619 0 0 1.3619 0 -42.492)" d="m114.6 54.5-17.9-23.3h-11.6v45.9h12.8v-24.7l19 24.7h10.1v-45.9h-12.4z"/>
 </g>
</svg>
