<svg id="a" width="800" height="461.45" version="1.1" viewBox="0 0 211.67 122.09" xmlns="http://www.w3.org/2000/svg">
 <g id="b" transform="translate(-44.949 68.193)">
  <g id="c" fill="#273171">
   <path id="d" d="m179.65 52.814q-1.4184 0.25027-3.5876 0.41716-2.0858 0.25027-4.9225 0.25027-2.2527 0-4.7556-0.33372-2.503-0.33372-4.6722-1.6687-2.0858-1.4184-3.5042-4.2551-1.3349-2.9202-1.3349-7.9261v-17.187h-6.3408v-9.5114h6.3408v-11.931h12.682v11.931h9.1776v9.5114h-9.1776v14.35q0 2.2527 0.41716 3.5876t1.168 2.0858q0.75089 0.66746 1.7521 0.91776 1.0012 0.25027 2.1692 0.25027t2.4195 0q1.2515-0.08344 2.1692-0.25027z"/>
   <path id="e" d="m207.59 29.119q2.6698 0.7509 5.0059 1.6687 2.3361 0.83433 4.0882 2.1693 1.7521 1.2515 2.7533 3.1704 1.0846 1.919 1.0846 4.8391 0 3.5876-1.4184 6.0906-1.4183 2.4196-3.9213 4.0048-2.503 1.5018-5.8402 2.1693-3.2539 0.66747-7.0083 0.66747-8.5935 0-13.599-3.7545-4.9225-3.7545-4.9225-10.763h12.515q0 3.1704 1.7521 4.5888 1.8355 1.3349 4.6722 1.3349 2.3361 0 3.7544-0.83432 1.5018-0.91776 1.5018-2.9202 0-1.1681-0.66746-1.8355-0.58405-0.7509-1.9189-1.3349-1.2515-0.66747-3.3373-1.2515-2.0024-0.66747-4.8391-1.5852-2.503-0.7509-4.7556-1.5852-2.2527-0.91776-4.0048-2.1693-1.6686-1.2515-2.6698-3.1704-1.0012-1.919-1.0012-4.8391 0-6.2575 4.7556-9.2611 4.8391-3.0036 13.015-3.0036 4.3385 0 7.5923 1.0846 3.3373 1.0012 5.4231 2.8367 2.1692 1.8355 3.2539 4.3385 1.0846 2.503 1.0846 5.3397h-12.598q0-2.503-1.3349-3.8379-1.2515-1.4184-3.9213-1.4184-1.9189 0-3.3373 0.91776-1.4183 0.83433-1.4183 2.6699 0 1.0846 0.66745 1.8355 0.66747 0.66747 1.919 1.2515 1.3349 0.58405 3.2538 1.1681 1.919 0.58405 4.4219 1.4184z"/>
   <path id="f" d="m81.045-5.5894h12.348v24.029q1.6687-3.1704 5.006-5.006 3.3373-1.8355 8.0096-1.8355 3.9213 0 6.5912 1.2515 2.6698 1.1681 4.3385 3.3373 1.919 2.3361 2.5864 5.4231 0.66746 3.087 0.66746 7.4255v23.778h-12.348v-20.608q0-4.3385-1.5852-7.0084-1.5018-2.7533-5.5066-2.7533-3.9213 0-5.8403 2.7533t-1.919 7.4255v20.191h-12.348z"/>
   <path id="g" d="m129.07-0.74969q0-3.4207 2.3361-5.7569t5.8403-2.3361q1.7521 0 3.2539 0.66747 1.5018 0.58405 2.5864 1.6687 1.1681 1.0846 1.7521 2.5864 0.66746 1.5018 0.66746 3.1704 0 1.6687-0.66746 3.1705-0.58406 1.4184-1.7521 2.5864-1.0846 1.0846-2.5864 1.7521-1.5018 0.58405-3.2539 0.58405t-3.2539-0.58405q-1.4184-0.66746-2.5864-1.7521-1.0846-1.1681-1.7521-2.5864-0.58406-1.5018-0.58406-3.1705zm1.8355 13.349h12.765v40.215h-12.765z"/>
  </g>
  <g id="h" fill="#273171" stroke-width=".99748">
   <path id="i" d="m191.78-47.046 18.952 24.638h10.075v-24.638l18.952 24.638h16.857l-35.111-45.784h-13.067v23.241l-17.855-23.241h-11.671v45.784h12.868z"/>
   <path id="j" d="m122.65-68.193h-11.671l-17.855 23.241v-23.241h-13.067l-35.111 45.784h16.857l18.952-24.638v24.638h10.075l18.952-24.638v24.638h12.868z"/>
   <path id="k" d="m171.63-22.408v-45.784h-12.369v23.241l-17.855-23.241h-11.571v45.784h12.768v-24.638l18.952 24.638z"/>
  </g>
  <path id="l" d="m81.046 25.86v26.956h12.347v-14.612a50.987 49.365 0 0 0-12.347-12.344z" fill="#01adef"/>
  <g id="m" fill="#01adef">
   <path id="n" d="m164.1 0.66923a24.369 23.594 0 0 0-7.2267 4.3055v7.6241h-5.9052a24.369 23.594 0 0 0-0.43387 0.87435v8.6376h6.3391v17.186c0 0.36537 0.0258 0.69125 0.0364 1.04a24.369 23.594 0 0 0 16.08 5.892 24.369 23.594 0 0 0 6.6636-0.90747v-2.2687c-0.61184 0.11122-1.335 0.19608-2.1693 0.25171h-2.421c-0.77871 0-1.5019-0.08486-2.1693-0.25171-0.66746-0.16686-1.2514-0.47244-1.752-0.91741-0.5006-0.5006-0.89101-1.1966-1.1691-2.0865s-0.4173-2.085-0.4173-3.5868v-14.351h9.1807v-9.5119h-9.1807v-11.93z"/>
   <path id="o" d="m194.9 12.354c-2.0263 0.49919-3.8114 1.2179-5.3389 2.166-3.1704 2.0024-4.756 5.0886-4.756 9.2602 0 1.9468 0.33275 3.5595 1.0002 4.8388 0.66747 1.2793 1.557 2.3352 2.6694 3.1695 1.1681 0.83433 2.5024 1.5575 4.0042 2.1693 0.49066 0.18173 1.0448 0.34419 1.5533 0.51998a24.369 23.594 0 0 0 3.3219-11.844 24.369 23.594 0 0 0-2.4542-10.28zm-11.095 27.029c0 1.489 0.18336 2.8547 0.51666 4.1234a24.369 23.594 0 0 0 5.8092-4.1234z"/>
  </g>
  <g id="p" fill="#01adef" stroke-width=".99748">
   <path id="q" d="m80.059-68.193-23.475 30.612a50.987 49.365 0 0 0 11.86 6.5411l12.314-16.007v19.117a50.987 49.365 0 0 0 6.6603 0.47361 50.987 49.365 0 0 0 7.7665-0.6094l14.599-18.981v14.553a50.987 49.365 0 0 0 12.87-8.6707v-27.029h-11.671l-17.855 23.24v-23.24z"/>
   <path id="r" d="m129.83-68.193v18.716a50.987 49.365 0 0 0 7.74-18.716z"/>
  </g>
 </g>
</svg>
