<?xml version="1.0" encoding="UTF-8"?>
<!-- Generator: Adobe Illustrator 18.1.1, SVG Export Plug-In . SVG Version: 6.00 Build 0)  -->
<svg id="Layer_1" width="500.04" height="229" enable-background="new 0.2 46.1 212.2 120.6" version="1.1" viewBox=".2 46.1 500.04 229" xml:space="preserve" xmlns="http://www.w3.org/2000/svg" xmlns:cc="http://creativecommons.org/ns#" xmlns:dc="http://purl.org/dc/elements/1.1/" xmlns:rdf="http://www.w3.org/1999/02/22-rdf-syntax-ns#"><metadata id="metadata46"><rdf:RDF><cc:Work rdf:about=""><dc:format>image/svg+xml</dc:format><dc:type rdf:resource="http://purl.org/dc/dcmitype/StillImage"/><dc:title/></cc:Work></rdf:RDF></metadata><path id="path4" d="m347.2 266.28v-47.127s1.4138-3.7702 3.5346-0.70691c9.1898 12.489 33.225 45.713 36.995 50.191 4.4771 5.8909 6.5978 5.8909 9.8967 5.8909 6.5978 0 17.201 0.23564 19.793 0 4.0058-0.23563 4.7127-3.5345 4.7127-6.3622 0-12.489 0.23564-39.587 0-47.363-0.23563-10.132 4.2414-1.1782 4.2414-1.1782s29.926 40.765 34.639 47.363c4.7127 6.3622 8.2473 7.776 12.017 7.776 6.5978 0.23564 16.495 0.23564 21.914-0.23564 8.4829-0.7069 4.2415-6.8334 4.2415-6.8334s-67.392-92.134-72.105-99.203c-4.7127-7.0691-9.6611-6.3622-9.6611-6.3622h-18.615s-6.3622-0.94254-6.3622 7.3047v45.242c0 3.5346-2.8276 4.2415-4.9484 1.6495-1.6495-2.1207-27.098-36.995-36.288-49.719-1.4138-1.8851-4.7127-4.4771-9.1898-4.7127h-19.322c-3.0633 0-5.184 3.0633-5.184 7.776v41.943 11.311 45.007c0 4.0058 2.1207 6.3622 5.4196 6.3622 6.1265 0 15.788 0.23563 19.558 0 5.6553-0.23564 5.4196-6.3622 5.4196-6.3622v-1.6495z" fill="#129ee3" stroke-width="2.3564"/><path id="path6" d="m152.8 219.86c0 13.667-0.23564 44.535 0 47.363 0.23563 3.7702 2.8276 6.8334 6.5978 7.0691 5.8909 0 13.903 0.23563 17.437-0.23564 5.8909-0.23563 6.3622-7.0691 6.3622-7.0691l0.23563-100.15s0.23564-5.184-5.184-4.9484c-3.5346 0.23563-12.96 0.23563-19.087 0-3.5346 0-5.8909 0.23563-9.6611 5.184-3.0633 3.7702-25.684 34.639-35.817 48.777-3.0633 4.2414-4.9484-0.23564-4.9484-0.23564v-49.012s0.94255-4.4771-5.8909-4.4771h-18.615c-3.2989 0-6.3622 0.94255-10.839 6.8335-3.5345 4.7127-52.547 71.633-70.691 96.14-4.2415 5.6553-2.8276 9.1898 2.3564 9.1898h22.857c4.9484 0 7.3047-1.8851 9.6611-5.4196 9.8967-13.667 35.345-47.834 36.288-49.484 1.4138-1.8851 4.2415-3.5345 4.2415 0.23564-0.23564 13.667-0.47127 45.242 0 49.012 0.47127 4.7127 2.3564 5.8909 5.4196 5.8909 6.8335 0 18.38 0.23564 20.736 0 3.5346-0.23563 5.184-1.4138 6.8334-3.5345 8.4829-11.782 34.639-47.363 37.937-51.369 3.2989-5.184 3.7702-3.5346 3.7702 0.23563z" fill="#154382" stroke-width="2.3564"/><path id="path8" d="m302.66 268.87v-101.56s-0.23564-5.184-5.8909-4.9484h-10.368-6.8334-1.4138c-3.0633 0-5.184 1.1782-5.4196 6.1265-0.23564 3.7702-0.23564 34.167 0 48.07 0 2.8276-2.1207 3.5346-4.0058 1.4138-1.4138-1.8851-28.041-38.409-37.466-51.133-1.8851-2.592-3.2989-4.4771-7.776-4.2414-2.8276 0.23563-12.489 0.23563-19.087 0-3.7702 0-6.3622 1.8851-6.5978 7.776-0.23564 5.184-0.23564 76.346-0.23564 98.025 0 4.0058 1.4138 5.8909 5.8909 6.3622 3.0633 0.23564 13.431 0.23564 19.793 0.23564 2.8276 0 4.7127-1.4138 4.7127-5.8909 0.23564-4.4771 0-55.139 0-55.139s36.759 50.662 40.765 55.61 6.3622 5.4196 9.4254 5.4196c5.8909 0 15.316 0.23563 19.087 0 5.6553-0.70691 5.4196-6.1266 5.4196-6.1266z" fill="#d31e23" stroke-width="2.3564"/><path id="path10" d="m327.64 101.57c1.8851 2.592 2.1207 5.6553-0.23563 8.9542l-22.621 30.868c-0.23563 0.47127-0.23563 1.1782 0 1.6494 0.23564 0.47128 0.94255 0.70691 1.4138 0.47128 0 0 36.288-11.546 36.524-11.546 3.0633-0.94255 6.1266-0.23564 8.4829 2.8276l22.385 31.104c0.23563 0.47128 0.94254 0.70691 1.4138 0.47128 0.70691-0.23564 0.94255-0.70691 0.94255-1.4138 0 0 0.23564-37.937 0.23564-38.409 0-3.2989 1.6494-5.8909 5.184-7.0691l36.288-11.546c0.23564-0.23564 0.47127-0.23564 0.70691-0.47128 0.23564-0.23563 0.23564-0.47127 0.23564-0.94254 0-0.70691-0.23564-1.1782-0.94255-1.4138l-36.288-12.017c-3.0633-1.1782-4.9484-3.2989-5.184-7.3047l0.23563-38.173c0-0.70691-0.23563-1.1782-0.94254-1.4138-0.70691-0.23564-1.1782 0-1.6495 0.47127 0 0-22.621 30.633-22.857 30.868-1.8851 2.592-4.7127 3.7702-8.4829 2.592l-36.288-12.017c-1.1782-0.23564-2.3564 1.1782-1.6494 2.1207 0.7069 0 22.857 31.104 23.092 31.34z" fill="#129ee3" stroke-width="2.3564"/></svg>
