<svg id="a" enable-background="new 0 0 283.46 283.46" version="1.0" viewBox="0 0 179.34 188.24" xml:space="preserve" xmlns="http://www.w3.org/2000/svg">
<g id="b" transform="translate(-52,-33.038)">
		<path id="c" d="m189.33 83.792v17.352l11.791-4.166s0.078 45.618 0 48c-1.28 13.9-15.793 9.47-20.515 5.929-1.472-1.091-12.343-8.667-12.343-8.667 10.557-3.742 27.072-17.263 18.904-35.647-10.219-18.726-28.258-12.597-28.258-12.597l-49.398 17.284v17.02l7.148-2.511v23.721l-31.847-29.899-32.762 11.454-5e-3 17.059 9.887-3.631v48.57l-9.743 3.471v17.878l37.302-13.005v-40.145l20.477 18.692 52.631-13.966s6.971 5.537 12.152 9.297c8.922 6.475 19.682 7.893 31.765 4.613 13.274-3.602 24.737-15.346 24.737-32.453 0-6.107 0.087-78.208 0.087-78.208zm-31.937 44.617c-3.504 1.192-13.843 5.06-13.843 5.06v-16.439s7.146-2.549 10.692-3.757c3.492-1.193 6.557 2.269 6.745 5.67 0.173 3.029 0.743 7.426-3.594 9.466zm55.939-59.54c9.892 0 17.913-8.021 17.913-17.916 0-9.893-8.021-17.915-17.913-17.915-9.895 0-17.916 8.021-17.916 17.915 0 9.895 8.021 17.916 17.916 17.916z" fill="#e20e1a"/>
		<polygon id="d" points="89.495 201.41 78.892 205.11 67.266 193.47 68.325 188.71 89.495 187.75" fill="#af191d"/>
		<path id="e" d="m231.25 146.13c-0.909 13.712-9.612 24.973-27.878 26.062-8.551 0.732-13.645-2.363-17.888-4.73-7.893-3.879-20.692-15.49-28.883-18.627-5.821-2.363-13.769-3.291-21.856-1.455-8.088 1.844-12.52 4.733-15.818 7.242-3.289 2.505-8.511 7.565-9.765 8.918-1.251 1.355-4.872 5.543-5.136 5.58-0.266 0.045-1.271-1.097-1.775-1.711-0.496-0.604-1.175-1.787-1.375-1.885-0.348 0.098-2.287 2.908-2.449 4.402-0.162 1.501 0.662 3.723 0.684 4.23 0.025 0.51-0.595 0.963-0.82 0.986-0.236 0.02-1.746-1.941-1.949-1.898-0.197 0.044-0.906 1.276-1.132 2.103-0.222 0.831 0.12 2.954 0.12 2.954-1.916 1.619-5.194 3.4-8.896 4.367-2.301 0.646-13.549 1.701-13.869 1.861-0.326 0.16-5.501 4.647-5.501 4.647l0.205 4.288 1.173-1.029 1.855 3.322 1.134-2.133s1.597 2.146 2.447 3.199c0.363-1.756 2.304-5.404 5.239-6.369 2.787-1.029 16.904-1.393 17.348-1.433-0.039 0.397-0.77 2.505-0.77 2.624 0 0.118 3.093 3.376 3.277 3.459 0.186 0.08 1.72-0.443 1.844-0.546 0.119-0.099 0.282-0.404 0.342-0.749 0.098 0 1.155 0.062 1.697-0.281-1.436-0.446-1.454-1.297-1.091-2.066 0.364-0.764 2.649-1.088 3.839-0.324 1.196 0.771 1.858 2.087 1.275 3.523-0.507 1.251-2.1 0.671-2.465 0.604 0.117 0.246 1.271 0.973 1.313 1.072 0.04 0.102 0.024 0.388 0.024 0.388s0.339 0.48 0.561 0.464c0.225-0.02 4.934-2.57 5.275-2.812 0.348-0.243 1.299-1.198 1.927-2.362 0 0-1.617-1.069-1.519-2.952 0.104-1.883 1.779-2.974 3.659-2.736 1.88 0.246 2.873 1.883 2.346 4.006-0.425 1.7-9.081 11.749-16.821 15.631-5.098 2.957-9.812 2.592-10.095 2.651-0.284 0.062-4.895 4.021-4.895 4.021l-0.221 3.621 0.872-0.443 1.334 3.76 0.967-1.449 2.854 3.029 0.604-2.549 3.523 2.669s0.18-1.337 0.301-2.483c0.482-0.432 5.762-5.158 6.307-5.643 0.549-0.49 8.308-4.434 15.108-8.982 7.787-5.217 15.349-10.734 15.47-12.072-0.972-0.789-4.73-4.308-4.614-8.191 0.124-3.882 4.555-7.58 9.769-9.885 5.221-2.305 11.957-1.517 16.498 1.88 3.1 2.188 16.381 11.339 34.16 10.372 18.688-1.022 29.664-7.098 36.214-18.381 6.554-11.287 6.048-19.64 5.916-21.759z" fill="#c6c6c6"/>
		<polygon id="f" points="99.234 185.19 100.48 179.69 102.27 180.34 100.01 184.86" fill="#fff"/>
	</g>
</svg>
