<?xml version="1.0" encoding="UTF-8"?>
<!-- Generator: Adobe Illustrator 20.1.0, SVG Export Plug-In . SVG Version: 6.00 Build 0)  -->
<svg id="Layer_1" width="113.5" height="85.288" version="1.1" viewBox="0 0 113.5 85.288" xml:space="preserve" xmlns="http://www.w3.org/2000/svg" xmlns:cc="http://creativecommons.org/ns#" xmlns:dc="http://purl.org/dc/elements/1.1/" xmlns:rdf="http://www.w3.org/1999/02/22-rdf-syntax-ns#"><metadata id="metadata29"><rdf:RDF><cc:Work rdf:about=""><dc:format>image/svg+xml</dc:format><dc:type rdf:resource="http://purl.org/dc/dcmitype/StillImage"/><dc:title/></cc:Work></rdf:RDF></metadata><g id="g22" transform="translate(0 -4.0118)"><path id="path2" d="m14.6 66.7c-1.6-0.4-3.9-0.9-5.9-0.9-1.9 0-2.8 0.2-2.8 1.7 0 1.1 0.5 1.3 3.6 1.7 4.7 0.6 6.7 2 6.7 6.1 0 5.4-3.9 6.9-9 6.9-2.2 0-5.3-0.4-7.1-1.1l1.2-4.5c1.5 0.5 3.7 0.9 5.7 0.9 2.4 0 3.4-0.2 3.4-1.8 0-1.1-0.7-1.5-4-1.8-4.2-0.4-6.4-1.6-6.4-5.9 0-5.4 3.9-6.9 8.9-6.9 2.2 0 5 0.4 6.9 1.1z" fill="#0d7d7e"/><path id="path4" d="m24.9 75.8c0 0.9 1.3 1.5 3.1 1.5 2.9 0 3.8-1.3 3.8-5.5 0-4.9-0.9-5.7-3.8-5.7-1.1 0-2.4 0.2-3.1 0.5zm-6-13.3c2.2-0.8 6-1.4 9.1-1.4 6.8 0 9.8 2.4 9.8 10.6 0 8.1-3.5 10.6-8.5 10.6-2 0-3.3-0.4-4.4-0.9v7.9h-6z" fill="#0d7d7e"/><path id="path6" d="m46.2 71.7c0 5.1 0.8 5.9 3.6 5.9 2.9 0 3.7-0.8 3.7-5.9 0-5.3-0.8-5.9-3.7-5.9-2.7 0-3.6 0.7-3.6 5.9m-6-0.1c0-8.2 3.3-10.5 9.7-10.5 6.5 0 9.8 2.3 9.8 10.5s-3.3 10.7-9.8 10.7-9.7-2.5-9.7-10.7" fill="#0d7d7e"/><path id="path8" d="m62.3 61.7h6v2.1c0.7-1.2 2-2.1 4.9-2.1h3.4l-3.2 5.2h-1c-2.2 0-4 0.7-4 2v12.8h-6v-20z" fill="#0d7d7e"/><path id="path10" d="m93.7 61.7v1c-2.5 4.2-6.8 10.5-9.3 13.9h8.9v5.2h-18.2v-1c3.3-4.4 7.8-11.1 9.4-13.9h-8.1l3.1-5.2h14.2z" fill="#0d7d7e"/><path id="path12" d="m104.5 77.8c1.1 0 2.4-0.2 3.3-0.5v-3.8c-0.9-0.2-2-0.3-3.3-0.3-2.2 0-2.9 0.2-2.9 2.2 0 2.1 0.5 2.4 2.9 2.4m9 2.9c-2.7 1-6.6 1.6-9.5 1.6-6.6 0-8.6-1.4-8.6-6.7 0-5.6 3.1-6.5 7.8-6.5 1.5 0 3 0.2 4.5 0.5 0-2.8-0.6-3.6-4.5-3.6-2.3 0-4.5 0.4-6.2 0.9l-0.9-4.8c2.3-0.6 5.6-1.1 8.6-1.1 6 0 8.8 1.8 8.8 7.8v11.9z" fill="#0d7d7e"/><path id="path14" d="m86.3 17.5c1.8 2.6 3 5.5 3.3 8.7 1.4 13.1-12.2 25.3-30.3 27.2-7.6 0.8-14.8-0.3-20.7-2.9 4.5 2.3 9.8 3.8 15.4 4.5 19.2 2.1 36-7.5 37.6-21.5 0.6-5.8-1.4-11.3-5.3-16" fill="#83c04b"/><path id="path16" d="m24 33c-1.4-13.1 12.2-25.3 30.3-27.2 7.2-0.8 14 0.2 19.7 2.5-4.3-2-9.2-3.4-14.4-4-19.2-2.1-36 7.5-37.6 21.5-0.6 5.9 1.5 11.5 5.6 16.3-2-2.7-3.3-5.7-3.6-9.1" fill="#83c04b"/><path id="path18" d="m55.6 24.8c-3.3 0.6-2.8 2.3-1.2 2.3 3.5-0.1 9.5 1.4 10.1 4.4 0.6 3.3-1.9 5.5-6.5 6.4-9.6 2-17.9-3.5-19.3-9.5-0.8-3.4 0.6-6.8 3.2-9.6-6.8 3.8-10.1 9.1-9.1 14.8 1.4 7.7 13.4 14.9 27 12 8.1-1.7 11.8-7.1 10.7-13.2-1-5.4-8.2-8.8-14.9-7.6" fill="#0d7d7e"/><path id="path20" d="m57.1 34.4c3.3-0.6 2.8-2.3 1.2-2.3-3.5 0.1-9.6-1.4-10.1-4.4-0.6-3.3 1.9-5.5 6.5-6.4 9.6-2 17.9 3.5 19.3 9.5 0.8 3.4-0.6 6.8-3.2 9.6 6.8-3.8 10.1-9.1 9.1-14.8-1.4-7.7-13.4-14.9-27-12-8.1 1.7-11.8 7.1-10.7 13.2 1.1 5.4 8.3 8.8 14.9 7.6" fill="#0d7d7e"/></g></svg>
