<?xml version="1.0" encoding="UTF-8"?>
<!-- Created with Inkscape (http://www.inkscape.org/) -->
<svg id="svg2" width="800" height="432.28" version="1.0" xmlns="http://www.w3.org/2000/svg" xmlns:cc="http://creativecommons.org/ns#" xmlns:dc="http://purl.org/dc/elements/1.1/" xmlns:rdf="http://www.w3.org/1999/02/22-rdf-syntax-ns#">
 <metadata id="metadata37">
  <rdf:RDF>
   <cc:Work rdf:about="">
    <dc:format>image/svg+xml</dc:format>
    <dc:type rdf:resource="http://purl.org/dc/dcmitype/StillImage"/>
    <dc:title/>
   </cc:Work>
  </rdf:RDF>
 </metadata>
 <g id="g4639" transform="matrix(11.198 0 0 -11.198 -2118.2 4060.8)" clip-path="url(#id627)">
  <path id="path4641" d="m260.6 343.34c0-10.659-15.994-19.301-35.72-19.301-19.728 0-35.722 8.642-35.722 19.301 0 10.661 15.994 19.303 35.722 19.303 19.726 0 35.72-8.642 35.72-19.303" fill="#e5423a"/>
  <path id="path4643" d="m202.8 345.73c0 0.177 0.145 0.321 0.32 0.321h3.542c0.177 0 0.38 0.013 0.452 0.028l0.043 0.029c0.044 0.03 0.072 0.073 0.072 0.146 0 0.101-0.072 0.144-0.13 0.173-0.101 0.057-0.26 0.101-0.869 0.304l-1.344 0.437c-0.169 0.054-0.439 0.154-0.602 0.222 0 0-0.992 0.412-1.282 0.89-0.217 0.362-0.288 0.912-0.288 1.288 0 0.478 0.086 0.97 0.362 1.375 0.405 0.609 0.983 0.725 1.78 0.725h4.803c0.177 0 0.321-0.145 0.321-0.321v-1.328c0-0.176-0.144-0.32-0.321-0.32h-3.528c-0.176 0-0.418 6e-3 -0.537 0.014l-0.116-0.029c-0.073-0.014-0.13-0.029-0.13-0.13 0-0.116 0.071-0.145 0.159-0.174 0.348-0.115 0.246-0.101 0.578-0.217l1.637-0.55c0.167-0.055 0.44-0.151 0.605-0.21 0 0 1.103-0.398 1.465-0.934 0.361-0.52 0.391-1.143 0.391-1.476 0-0.565-0.117-1.215-0.638-1.637-0.405-0.317-0.869-0.361-1.26-0.361h-5.165c-0.175 0-0.32 0.145-0.32 0.321v1.414" fill="#b73e33"/>
  <path id="path4645" d="m214.84 343.95c-0.564 0-1.591 0-2.373 0.522-0.637 0.434-0.97 1.187-0.97 1.882v2.98c0 0.176-0.144 0.32-0.321 0.32h-0.444c-0.177 0-0.32 0.145-0.32 0.32v1.328c0 0.177 0.143 0.321 0.32 0.321h0.444c0.177 0 0.321 0.144 0.321 0.32v1.82c0 0.177 0.144 0.321 0.32 0.321h2.196c0.176 0 0.32-0.144 0.32-0.321v-1.82c0-0.176 0.145-0.32 0.321-0.32h1.545c0.176 0 0.32-0.144 0.32-0.321v-1.328c0-0.175-0.144-0.32-0.32-0.32h-1.545c-0.176 0-0.321-0.144-0.321-0.32v-1.11c0-0.177 9e-3 -0.466 0.021-0.641 0 0 0.053-0.839 0.472-1.215 0.391-0.347 0.883-0.361 1.245-0.361h0.099c0.177 0 0.32-0.145 0.32-0.321v-1.414c0-0.176-0.143-0.322-0.32-0.322h-1.33" fill="#b73e33"/>
  <path id="path4647" d="m219.44 351.62c0.176 0 0.321-0.144 0.321-0.321v-3.18c0-0.177 0.015-0.464 0.034-0.639 0 0 0.082-0.767 0.24-0.999 0.319-0.449 0.869-0.477 1.202-0.477h0.2c0.177 0 0.464 0.02 0.638 0.046 0 0 0.074 0.011 0.175 0.113 0.146 0.145 0.146 0.318 0.146 0.463v4.673c0 0.177 0.143 0.321 0.32 0.321h2.196c0.176 0 0.32-0.144 0.32-0.321v-5.467c0-0.177-9e-3 -0.465-0.021-0.64 0 0-0.037-0.549-0.456-0.896-0.392-0.319-0.927-0.349-1.245-0.349h-3.154c-0.176 0-0.463 0.027-0.636 0.059 0 0-1.436 0.26-1.828 0.593-0.795 0.652-0.969 1.68-0.969 2.837v3.863c0 0.177 0.144 0.321 0.32 0.321h2.197" fill="#b73e33"/>
  <path id="path4649" d="m230.91 349.65c0.177 0 0.321-0.144 0.321-0.32v-2.777c0-0.117 0-0.391-0.145-0.522-0.028-0.028-0.106-0.046-0.106-0.046-0.173-0.038-0.458-0.069-0.633-0.069h-0.362c-0.246 0-0.752 0.058-1.012 0.564-0.131 0.246-0.203 0.609-0.203 1.332 0 0.419 0.029 0.984 0.304 1.375 0.159 0.232 0.448 0.463 0.911 0.463zm0.641 4.43c-0.177 0-0.32-0.144-0.32-0.321v-1.82c0-0.176-0.144-0.32-0.321-0.32h-1.865c-0.796 0-1.882-0.145-2.548-1.086-0.521-0.738-0.565-1.621-0.565-2.562s0.044-1.824 0.348-2.548c0.39-0.955 1.318-1.477 2.738-1.477h3.486c0.42 0 0.985 0.03 1.318 0.522 0.202 0.289 0.228 0.78 0.228 0.78 9e-3 0.177 0.018 0.465 0.018 0.641v7.87c0 0.177-0.144 0.321-0.32 0.321h-2.197" fill="#b73e33"/>
  <path id="path4651" d="m234.94 351.3c0 0.177 0.144 0.321 0.321 0.321h2.196c0.175 0 0.321-0.144 0.321-0.321v-7.03c0-0.176-0.146-0.322-0.321-0.322h-2.196c-0.177 0-0.321 0.146-0.321 0.322zm0.321 1.088c-0.177 0-0.321 0.144-0.321 0.32v1.053c0 0.177 0.144 0.321 0.321 0.321h2.196c0.175 0 0.321-0.144 0.321-0.321v-1.053c0-0.176-0.146-0.32-0.321-0.32h-2.196" fill="#b73e33"/>
  <path id="path4653" d="m241.36 347.78c0 0.898 0.175 1.231 0.276 1.375 0.144 0.188 0.477 0.492 1.259 0.492 0.78 0 1.114-0.304 1.258-0.492 0.145-0.203 0.275-0.565 0.275-1.375 0-0.551-0.057-1.028-0.288-1.347-0.131-0.187-0.479-0.52-1.245-0.52-0.869 0-1.202 0.434-1.259 0.52-0.117 0.16-0.276 0.508-0.276 1.347zm1.535 3.923c-1.217 0-2.578-0.044-3.416-0.782-0.956-0.854-1.014-2.374-1.014-3.141s0.058-2.287 1.014-3.141c0.838-0.739 2.199-0.783 3.416-0.783 1.215 0 2.576 0.044 3.416 0.783 0.955 0.854 1.013 2.374 1.013 3.141s-0.058 2.287-1.013 3.141c-0.84 0.738-2.201 0.782-3.416 0.782" fill="#b73e33"/>
  <path id="path4655" d="m201.87 339.54c0 0.177 0.145 0.321 0.322 0.321h0.967c0.232 0 0.695-0.043 0.941-0.593 0.058-0.131 0.188-0.479 0.188-1.201 0-0.768-0.116-1.116-0.202-1.303-0.16-0.319-0.674-0.446-0.674-0.446-0.171-0.042-0.455-0.076-0.632-0.076h-0.258c-0.13 0-0.362 0-0.507 0.131-0.145 0.144-0.145 0.433-0.145 0.565zm-2.516 4.78c-0.176 0-0.32-0.144-0.32-0.321v-8.423c0-0.362 0.071-0.666 0.333-0.94 0.376-0.406 0.91-0.434 0.91-0.434 0.176-7e-3 0.464-0.015 0.64-0.015h3.053c0.752 0 2.026 0.13 2.706 1.273 0.318 0.536 0.507 1.304 0.507 2.577 0 0.782-0.029 1.781-0.521 2.578-0.723 1.185-2.415 1.235-2.415 1.235-0.177 5e-3 -0.465 9e-3 -0.641 9e-3h-1.414c-0.177 0-0.322 0.144-0.322 0.32v1.82c0 0.177-0.143 0.321-0.32 0.321h-2.196" fill="#b73e33"/>
  <path id="path4657" d="m207.88 338.63c0 0.738 0.057 1.809 0.911 2.504 0.84 0.695 2.085 0.724 2.836 0.724h1.562c0.176 0 0.321-0.144 0.321-0.321v-1.357c0-0.176-0.145-0.32-0.321-0.32h-0.343c-0.177 0-0.464-0.01-0.64-0.022 0 0-0.751-0.05-1.113-0.528-0.333-0.448-0.377-1.028-0.377-1.462v-3.343c0-0.175-0.144-0.319-0.319-0.319h-2.198c-0.177 0-0.319 0.144-0.319 0.319v4.125" fill="#b73e33"/>
  <path id="path4659" d="m216.46 341.86c0.176 0 0.32-0.144 0.32-0.321v-3.18c0-0.177 0.017-0.465 0.035-0.64 0 0 0.082-0.767 0.241-0.998 0.318-0.449 0.868-0.478 1.202-0.478h0.199c0.177 0 0.464 0.021 0.638 0.047 0 0 0.074 0.012 0.176 0.112 0.144 0.145 0.144 0.319 0.144 0.464v4.673c0 0.177 0.144 0.321 0.32 0.321h2.197c0.176 0 0.32-0.144 0.32-0.321v-5.467c0-0.177-9e-3 -0.465-0.022-0.641 0 0-0.036-0.549-0.455-0.896-0.392-0.318-0.927-0.347-1.245-0.347h-3.154c-1.351 0-2.073 0.318-2.463 0.652-0.796 0.651-0.97 1.678-0.97 2.837v3.862c0 0.177 0.145 0.321 0.321 0.321h2.196" fill="#b73e33"/>
  <path id="path4661" d="m223.04 335.92c0 0.176 0.144 0.32 0.32 0.32h3.543c0.176 0 0.378 0.013 0.45 0.029l0.043 0.03c0.044 0.028 0.073 0.072 0.073 0.144 0 0.101-0.073 0.144-0.131 0.173-0.1 0.058-0.26 0.102-0.868 0.304l-1.345 0.437c-0.168 0.055-0.438 0.155-0.601 0.221 0 0-0.992 0.413-1.282 0.892-0.217 0.361-0.289 0.911-0.289 1.288 0 0.477 0.087 0.969 0.363 1.375 0.404 0.608 0.983 0.724 1.779 0.724h4.804c0.178 0 0.321-0.144 0.321-0.321v-1.328c0-0.176-0.143-0.32-0.321-0.32h-3.527c-0.176 0-0.419 6e-3 -0.539 0.014l-0.116-0.029c-0.072-0.014-0.129-0.029-0.129-0.13 0-0.116 0.073-0.144 0.157-0.173 0.349-0.116 0.247-0.102 0.58-0.218l1.637-0.549c0.166-0.057 0.44-0.151 0.605-0.211 0 0 1.102-0.398 1.464-0.933 0.363-0.521 0.391-1.144 0.391-1.478 0-0.564-0.116-1.214-0.637-1.635-0.405-0.318-0.869-0.361-1.26-0.361h-5.165c-0.176 0-0.32 0.144-0.32 0.319v1.416" fill="#b73e33"/>
  <path id="path4663" d="m231.03 335.92c0 0.176 0.144 0.32 0.32 0.32h3.543c0.177 0 0.379 0.013 0.451 0.029l0.043 0.03c0.043 0.028 0.072 0.072 0.072 0.144 0 0.101-0.072 0.144-0.13 0.173-0.102 0.058-0.26 0.102-0.868 0.304l-1.345 0.437c-0.168 0.055-0.44 0.155-0.601 0.221 0 0-0.992 0.413-1.281 0.892-0.219 0.361-0.291 0.911-0.291 1.288 0 0.477 0.087 0.969 0.362 1.375 0.405 0.608 0.984 0.724 1.78 0.724h4.804c0.176 0 0.32-0.144 0.32-0.321v-1.328c0-0.176-0.144-0.32-0.32-0.32h-3.528c-0.175 0-0.416 6e-3 -0.537 0.014l-0.116-0.029c-0.072-0.014-0.131-0.029-0.131-0.13 0-0.116 0.074-0.144 0.16-0.173 0.346-0.116 0.246-0.102 0.579-0.218l1.636-0.549c0.166-0.057 0.44-0.151 0.605-0.211 0 0 1.103-0.398 1.464-0.933 0.361-0.521 0.391-1.144 0.391-1.478 0-0.564-0.116-1.214-0.637-1.635-0.404-0.318-0.868-0.361-1.26-0.361h-5.165c-0.176 0-0.32 0.144-0.32 0.319v1.416" fill="#b73e33"/>
  <path id="path4665" d="m242.09 339.02c-0.177 0-0.318 0.144-0.315 0.32 0 0 9e-3 0.374 0.296 0.533 0.205 0.116 0.654 0.13 0.987 0.13 0.143 0 0.52-0.014 0.751-0.056 0.421-0.088 0.523-0.32 0.523-0.522 0-0.145-0.059-0.405-0.464-0.405zm4.482-4.835c0.177 0 0.32 0.144 0.32 0.319v1.416c0 0.176-0.143 0.32-0.32 0.32h-3.4c-0.506 0-1.026-0.029-1.273 0.362-0.101 0.16-0.109 0.302-0.109 0.302-0.012 0.176 0.123 0.321 0.3 0.321h3.861c0.262 0 0.508 0.014 0.754 0.216 0.434 0.348 0.464 0.913 0.464 1.405 0 0.839-0.088 1.983-0.826 2.577-0.608 0.491-1.621 0.52-3.171 0.52-1.447 0-2.908-0.029-3.618-0.752-0.695-0.709-0.622-1.852-0.622-3.257 0-1.39 0.057-2.201 0.391-2.75 0.608-0.999 1.577-0.999 2.72-0.999h4.529" fill="#b73e33"/>
  <path id="path4667" d="m247.86 344c0 0.177 0.145 0.321 0.322 0.321h2.196c0.175 0 0.32-0.144 0.32-0.321v-9.493c0-0.175-0.145-0.319-0.32-0.319h-2.196c-0.177 0-0.322 0.144-0.322 0.319v9.493" fill="#b73e33"/>
  <path id="path4669" d="m202.36 346.17c0 0.177 0.145 0.321 0.321 0.321h3.542c0.177 0 0.38 0.013 0.452 0.029l0.043 0.029c0.043 0.029 0.072 0.072 0.072 0.145 0 0.101-0.072 0.144-0.13 0.173-0.101 0.058-0.26 0.102-0.869 0.304l-1.345 0.436c-0.167 0.055-0.437 0.155-0.602 0.223 0 0-0.99 0.413-1.28 0.89-0.218 0.362-0.29 0.912-0.29 1.288 0 0.478 0.086 0.97 0.362 1.376 0.405 0.607 0.984 0.724 1.781 0.724h4.803c0.177 0 0.322-0.145 0.322-0.321v-1.328c0-0.176-0.145-0.32-0.322-0.32h-3.528c-0.176 0-0.418 6e-3 -0.537 0.014l-0.116-0.029c-0.072-0.014-0.13-0.029-0.13-0.131 0-0.115 0.072-0.144 0.158-0.173 0.348-0.116 0.247-0.101 0.579-0.217l1.636-0.549c0.168-0.056 0.44-0.152 0.606-0.211 0 0 1.102-0.398 1.464-0.934 0.362-0.521 0.391-1.143 0.391-1.476 0-0.564-0.115-1.216-0.637-1.635-0.404-0.319-0.868-0.363-1.259-0.363h-5.166c-0.176 0-0.321 0.145-0.321 0.321v1.414" fill="#fff"/>
  <path id="path4671" d="m214.4 344.39c-0.564 0-1.591 0-2.373 0.521-0.637 0.434-0.97 1.186-0.97 1.882v2.98c0 0.176-0.144 0.32-0.321 0.32h-0.444c-0.177 0-0.321 0.145-0.321 0.321v1.328c0 0.176 0.144 0.321 0.321 0.321h0.444c0.177 0 0.321 0.144 0.321 0.319v1.82c0 0.176 0.144 0.321 0.319 0.321h2.197c0.177 0 0.32-0.145 0.32-0.321v-1.82c0-0.175 0.145-0.319 0.323-0.319h1.543c0.176 0 0.32-0.145 0.32-0.321v-1.328c0-0.176-0.144-0.321-0.32-0.321h-1.543c-0.178 0-0.323-0.144-0.323-0.32v-1.11c0-0.177 0.01-0.466 0.021-0.641 0 0 0.053-0.838 0.471-1.215 0.391-0.346 0.884-0.362 1.246-0.362h0.099c0.176 0 0.321-0.144 0.321-0.32v-1.415c0-0.175-0.145-0.32-0.321-0.32h-1.33" fill="#fff"/>
  <path id="path4673" d="m219 352.06c0.176 0 0.32-0.145 0.32-0.321v-3.181c0-0.176 0.016-0.464 0.034-0.639 0 0 0.082-0.767 0.241-0.999 0.318-0.449 0.869-0.478 1.201-0.478h0.201c0.176 0 0.464 0.022 0.638 0.048 0 0 0.073 0.01 0.175 0.112 0.145 0.144 0.145 0.318 0.145 0.463v4.674c0 0.176 0.144 0.321 0.321 0.321h2.195c0.176 0 0.321-0.145 0.321-0.321v-5.468c0-0.177-0.01-0.464-0.022-0.641 0 0-0.036-0.549-0.456-0.895-0.391-0.319-0.926-0.348-1.244-0.348h-3.154c-0.177 0-0.463 0.025-0.636 0.057 0 0-1.436 0.261-1.827 0.594-0.796 0.652-0.969 1.68-0.969 2.837v3.864c0 0.176 0.143 0.321 0.319 0.321h2.197" fill="#fff"/>
  <path id="path4675" d="m230.47 350.09c0.176 0 0.32-0.144 0.32-0.32v-2.777c0-0.117 0-0.391-0.145-0.522-0.028-0.029-0.106-0.046-0.106-0.046-0.173-0.038-0.457-0.069-0.633-0.069h-0.36c-0.246 0-0.752 0.058-1.014 0.564-0.129 0.246-0.204 0.609-0.204 1.333 0 0.419 0.03 0.984 0.305 1.374 0.161 0.232 0.448 0.463 0.913 0.463zm0.642 4.43c-0.178 0-0.322-0.145-0.322-0.321v-1.82c0-0.175-0.144-0.319-0.32-0.319h-1.865c-0.797 0-1.883-0.146-2.548-1.087-0.521-0.738-0.564-1.621-0.564-2.562s0.043-1.824 0.347-2.548c0.391-0.955 1.317-1.476 2.738-1.476h3.485c0.422 0 0.986 0.029 1.318 0.521 0.203 0.29 0.229 0.781 0.229 0.781 9e-3 0.175 0.016 0.464 0.016 0.639v7.871c0 0.176-0.143 0.321-0.318 0.321h-2.196" fill="#fff"/>
  <path id="path4677" d="m234.49 351.74c0 0.176 0.142 0.321 0.32 0.321h2.196c0.175 0 0.32-0.145 0.32-0.321v-7.032c0-0.175-0.145-0.32-0.32-0.32h-2.196c-0.178 0-0.32 0.145-0.32 0.32zm0.32 1.087c-0.178 0-0.32 0.143-0.32 0.32v1.053c0 0.176 0.142 0.321 0.32 0.321h2.196c0.175 0 0.32-0.145 0.32-0.321v-1.053c0-0.177-0.145-0.32-0.32-0.32h-2.196" fill="#fff"/>
  <path id="path4679" d="m240.92 348.23c0 0.897 0.174 1.231 0.274 1.375 0.145 0.189 0.478 0.492 1.26 0.492 0.783 0 1.114-0.303 1.26-0.492 0.145-0.203 0.275-0.565 0.275-1.375 0-0.55-0.057-1.028-0.29-1.347-0.131-0.187-0.477-0.52-1.245-0.52-0.868 0-1.201 0.434-1.26 0.52-0.114 0.161-0.274 0.508-0.274 1.347zm1.534 3.923c-1.215 0-2.576-0.044-3.416-0.782-0.955-0.854-1.013-2.374-1.013-3.141 0-0.766 0.058-2.287 1.013-3.142 0.84-0.737 2.201-0.781 3.416-0.781 1.217 0 2.578 0.044 3.417 0.781 0.955 0.855 1.013 2.376 1.013 3.142 0 0.767-0.058 2.287-1.013 3.141-0.839 0.738-2.2 0.782-3.417 0.782" fill="#fff"/>
  <path id="path4681" d="m201.43 339.98c0 0.176 0.145 0.32 0.321 0.32h0.967c0.233 0 0.696-0.043 0.942-0.593 0.057-0.131 0.187-0.478 0.187-1.202 0-0.767-0.115-1.115-0.202-1.302-0.159-0.318-0.673-0.446-0.673-0.446-0.171-0.041-0.455-0.075-0.632-0.075h-0.259c-0.129 0-0.36 0-0.506 0.13-0.145 0.145-0.145 0.434-0.145 0.564zm-2.516 4.779c-0.177 0-0.32-0.145-0.32-0.321v-8.422c0-0.363 0.072-0.666 0.332-0.941 0.377-0.406 0.91-0.433 0.91-0.433 0.176-9e-3 0.465-0.017 0.64-0.017h3.053c0.753 0 2.027 0.131 2.707 1.275 0.319 0.535 0.507 1.303 0.507 2.576 0 0.782-0.029 1.781-0.521 2.577-0.724 1.187-2.415 1.236-2.415 1.236-0.177 5e-3 -0.464 9e-3 -0.641 9e-3h-1.415c-0.176 0-0.321 0.144-0.321 0.32v1.82c0 0.176-0.144 0.321-0.319 0.321h-2.197" fill="#fff"/>
  <path id="path4683" d="m207.44 339.07c0 0.738 0.059 1.809 0.912 2.504 0.84 0.695 2.085 0.724 2.837 0.724h1.56c0.177 0 0.322-0.144 0.322-0.32v-1.358c0-0.176-0.145-0.32-0.322-0.32h-0.341c-0.177 0-0.465-0.01-0.642-0.021 0 0-0.75-0.051-1.112-0.529-0.333-0.449-0.376-1.028-0.376-1.462v-3.341c0-0.177-0.145-0.322-0.321-0.322h-2.196c-0.177 0-0.321 0.145-0.321 0.322v4.123" fill="#fff"/>
  <path id="path4685" d="m216.02 342.3c0.177 0 0.322-0.144 0.322-0.32v-3.181c0-0.176 0.014-0.465 0.034-0.64 0 0 0.081-0.767 0.241-0.998 0.318-0.449 0.868-0.477 1.201-0.477h0.201c0.176 0 0.462 0.021 0.637 0.047 0 0 0.075 0.011 0.175 0.111 0.145 0.145 0.145 0.319 0.145 0.463v4.675c0 0.176 0.145 0.32 0.321 0.32h2.195c0.177 0 0.321-0.144 0.321-0.32v-5.469c0-0.176-0.011-0.464-0.021-0.64 0 0-0.037-0.549-0.457-0.896-0.39-0.318-0.926-0.348-1.244-0.348h-3.155c-1.351 0-2.072 0.32-2.461 0.653-0.798 0.651-0.971 1.679-0.971 2.836v3.864c0 0.176 0.145 0.32 0.321 0.32h2.195" fill="#fff"/>
  <path id="path4687" d="m222.59 336.36c0 0.177 0.144 0.321 0.321 0.321h3.542c0.176 0 0.378 0.013 0.45 0.028l0.043 0.03c0.046 0.028 0.073 0.072 0.073 0.145 0 0.1-0.073 0.144-0.13 0.172-0.102 0.058-0.26 0.102-0.869 0.305l-1.346 0.436c-0.168 0.055-0.437 0.154-0.6 0.222 0 0-0.992 0.413-1.282 0.891-0.217 0.362-0.289 0.911-0.289 1.288 0 0.477 0.087 0.969 0.362 1.375 0.405 0.607 0.984 0.724 1.78 0.724h4.804c0.176 0 0.32-0.144 0.32-0.32v-1.328c0-0.178-0.144-0.321-0.32-0.321h-3.527c-0.177 0-0.419 6e-3 -0.538 0.014l-0.116-0.029c-0.073-0.014-0.131-0.03-0.131-0.129 0-0.116 0.073-0.145 0.158-0.175 0.349-0.115 0.247-0.101 0.58-0.217l1.636-0.548c0.167-0.057 0.44-0.152 0.606-0.212 0 0 1.101-0.398 1.464-0.933 0.362-0.522 0.392-1.143 0.392-1.477 0-0.565-0.117-1.216-0.638-1.635-0.405-0.319-0.869-0.363-1.259-0.363h-5.165c-0.177 0-0.321 0.145-0.321 0.322v1.414" fill="#fff"/>
  <path id="path4689" d="m230.58 336.36c0 0.177 0.144 0.321 0.32 0.321h3.542c0.177 0 0.38 0.013 0.451 0.028l0.042 0.03c0.045 0.028 0.075 0.072 0.075 0.145 0 0.1-0.075 0.144-0.131 0.172-0.101 0.058-0.26 0.102-0.869 0.305l-1.345 0.436c-0.168 0.055-0.438 0.154-0.6 0.222 0 0-0.993 0.413-1.282 0.891-0.217 0.362-0.291 0.911-0.291 1.288 0 0.477 0.088 0.969 0.363 1.375 0.405 0.607 0.983 0.724 1.781 0.724h4.803c0.177 0 0.32-0.144 0.32-0.32v-1.328c0-0.178-0.143-0.321-0.32-0.321h-3.528c-0.175 0-0.417 6e-3 -0.537 0.014l-0.116-0.029c-0.073-0.014-0.13-0.03-0.13-0.129 0-0.116 0.071-0.145 0.158-0.175 0.348-0.115 0.246-0.101 0.58-0.217l1.635-0.548c0.168-0.057 0.44-0.152 0.607-0.212 0 0 1.101-0.398 1.463-0.933 0.362-0.522 0.391-1.143 0.391-1.477 0-0.565-0.116-1.216-0.637-1.635-0.405-0.319-0.868-0.363-1.26-0.363h-5.165c-0.176 0-0.32 0.145-0.32 0.322v1.414" fill="#fff"/>
  <path id="path4691" d="m241.64 339.46c-0.175 0-0.317 0.145-0.313 0.32 0 0 8e-3 0.374 0.297 0.533 0.202 0.116 0.653 0.131 0.985 0.131 0.145 0 0.521-0.015 0.752-0.058 0.42-0.087 0.522-0.318 0.522-0.521 0-0.145-0.058-0.405-0.464-0.405zm4.484-4.836c0.176 0 0.321 0.145 0.321 0.322v1.414c0 0.177-0.145 0.321-0.321 0.321h-3.4c-0.507 0-1.027-0.03-1.273 0.361-0.101 0.16-0.11 0.303-0.11 0.303-0.012 0.176 0.124 0.32 0.299 0.32h3.864c0.26 0 0.507 0.014 0.753 0.216 0.434 0.348 0.463 0.913 0.463 1.405 0 0.839-0.087 1.983-0.825 2.577-0.609 0.492-1.621 0.521-3.171 0.521-1.447 0-2.909-0.029-3.619-0.753-0.694-0.709-0.621-1.853-0.621-3.257 0-1.39 0.057-2.2 0.39-2.75 0.608-1 1.577-1 2.723-1h4.527" fill="#fff"/>
  <path id="path4693" d="m247.42 344.44c0 0.176 0.144 0.321 0.321 0.321h2.196c0.176 0 0.32-0.145 0.32-0.321v-9.491c0-0.177-0.144-0.322-0.32-0.322h-2.196c-0.177 0-0.321 0.145-0.321 0.322v9.491" fill="#fff"/>
 </g>
</svg>
