<?xml version="1.0" encoding="UTF-8"?>
<svg id="svg40" width="2279.4" height="1268.1" version="1.1" viewBox="0 0 175.75 97.773" xmlns="http://www.w3.org/2000/svg" xmlns:cc="http://creativecommons.org/ns#" xmlns:dc="http://purl.org/dc/elements/1.1/" xmlns:rdf="http://www.w3.org/1999/02/22-rdf-syntax-ns#">
 <metadata id="metadata46">
  <rdf:RDF>
   <cc:Work rdf:about="">
    <dc:format>image/svg+xml</dc:format>
    <dc:type rdf:resource="http://purl.org/dc/dcmitype/StillImage"/>
    <dc:title/>
   </cc:Work>
  </rdf:RDF>
 </metadata>
 <path id="path4" d="m77.022 14.929h29.464c-4.039-1.262-8.574-1.971-13.518-2.023-5.346-0.056-10.727 0.66-15.946 2.023zm20.751 57.329c-8.355 5.445-17.954 8.133-27.025 7.568-9.071-0.566-16.53-4.316-21.002-10.559a22.302 22.302 0 0 1-3.824-9.033h-3.961c1.136 12.713 11.877 21.869 27.982 22.037 16.418 0.172 33.476-9.047 42.917-22.037h-2.541c-3.175 4.583-7.438 8.698-12.546 12.024z" clip-rule="evenodd" fill="#d9edfb" fill-rule="evenodd"/>
 <path id="path6" d="m107.6 80.438c-12.895 9.039-27.781 14.254-41.916 14.686-14.135 0.43-25.828-3.975-32.923-12.402-5.186-6.158-7.458-13.93-6.708-22.486h-2.323c-1.071 21.303 15.32 37.262 41.073 37.533 26.204 0.273 53.536-15.785 66.304-37.533h-3.521c-4.908 7.477-11.715 14.405-19.986 20.202zm-19.81-76.949a65.936 65.936 0 0 1 8.597-0.841c4.551-0.139 8.842 0.23 12.812 1.066 8.354 1.758 15.275 5.606 20.086 11.306h2.336c-3.656-4.774-8.693-8.622-14.869-11.227-5.617-2.369-12.17-3.713-19.482-3.79-7.311-0.077-14.709 1.122-21.856 3.357-8.309 2.599-16.268 6.612-23.356 11.66h5.936c9.114-5.744 19.399-9.836 29.796-11.531z" clip-rule="evenodd" fill="#d9edfb" fill-rule="evenodd"/>
 <path id="path8" d="m95.75 4.7615c9.318 0.533 17.148 4.132 22.562 10.258h4.25c-4.637-5.964-11.621-10.045-20.389-11.379a42.405 42.405 0 0 0-5.959-0.474 48.55 48.55 0 0 0-6.23 0.347c-9.933 1.182-19.916 5.332-28.692 11.507h1.454c10.062-6.952 21.784-10.901 33.004-10.259zm4.799 68.736c-10.354 6.25-22.138 9.625-33.181 9.508s-20.021-3.717-25.282-10.131c-2.99-3.646-4.571-7.955-4.722-12.639h-4.174c-1.311 19.584 11.612 34.156 32.656 34.377 21.374 0.225 44.223-14.432 55.717-34.377h-5.531c-3.991 4.965-9.249 9.5-15.483 13.262zm0.209 8.144c-10.799 7.857-22.997 11.826-34.348 11.176-11.352-0.648-20.499-5.84-25.755-14.615-1.596-2.662-2.768-5.562-3.527-8.633 4.817 9.744 16.252 16.232 31.609 16.395 18.787 0.195 38.007-9.139 49.046-22.514-4.312 6.922-10.113 13.162-17.025 18.191z" clip-rule="evenodd" fill="#d9edfb" fill-rule="evenodd"/>
 <path id="path10" d="m137.48 27.472a32.414 32.414 0 0 0-5.861-12.453h-2.336l0.025 0.029c3.057 3.63 5.096 7.822 6.107 12.401 1.336 6.055 0.873 12.79-1.463 19.82-1.469 4.43-3.627 8.783-6.371 12.965h3.521c2.033-3.461 3.699-7.066 4.93-10.773 2.62-7.885 2.989-15.354 1.448-21.989zm-109.37 23.029c2.885-8.692 8.348-16.913 15.448-24.012 4.281-4.28 9.16-8.149 14.429-11.469h-5.936c-4.746 3.379-9.105 7.217-12.903 11.422-5.922 6.556-10.499 13.982-13.118 21.867-1.364 4.107-2.116 8.102-2.308 11.926h2.323c0.278-3.152 0.961-6.41 2.065-9.734zm15.355-2.008c-1.369 4.123-1.833 8.08-1.506 11.742h3.961c-0.773-4.225-0.402-8.801 1.148-13.465 2.631-7.916 8.318-14.94 15.525-20.083 8.326-5.939 18.683-9.368 28.72-8.743 8.418 0.524 15.443 3.795 19.986 9.253 0.352 0.423 0.693 0.856 1.016 1.305 4.473 6.243 5.422 14.233 2.674 22.498-1.066 3.215-2.65 6.318-4.672 9.234h2.541c2.49-3.426 4.457-7.109 5.734-10.957 2.789-8.395 1.84-16.097-1.969-22.024-3.465-5.392-9.299-9.31-16.867-10.929a47.49 47.49 0 0 0-5.422-0.37c-9.79-0.104-20.161 2.542-29.604 7.497a57.682 57.682 0 0 0-4.732 3.208c-7.704 5.808-13.744 13.437-16.533 21.834z" clip-rule="evenodd" fill="#b2308d" fill-rule="evenodd"/>
 <path id="path12" d="m48.424 26.539c-5.708 6.475-10.207 13.926-12.846 21.874-1.356 4.084-2.135 8.045-2.388 11.822h4.174c-0.115-3.559 0.594-7.33 2.148-11.197 3.378-8.397 10.348-16.283 19.743-22.385a69.385 69.385 0 0 1 1.901-1.191 69.93 69.93 0 0 1 3.578-2.01c8.296-5.041 17.946-8.052 27.385-7.953a38.3 38.3 0 0 1 7.641 0.826c9.445 1.185 16.658 5.19 20.754 10.97 4.271 6.026 5.162 13.969 1.68 22.626-1.434 3.564-3.523 7.033-6.162 10.314h5.531c2.006-3.48 3.676-7.117 4.922-10.869 2.639-7.948 3.104-15.442 1.721-21.991-0.984-4.657-2.904-8.834-5.643-12.355h-4.25a29.364 29.364 0 0 1 3.191 4.356c1.479 2.468 2.586 5.142 3.346 7.964a34.4 34.4 0 0 1 0.967 5.058 23.97 23.97 0 0 0-2.402-5.073c-3.49-5.603-9.332-9.933-16.928-12.305h-29.465c-8.68 2.266-16.907 6.317-23.771 11.57-4.103 3.14-7.715 6.708-10.645 10.585 2.062-3.773 4.545-7.333 7.353-10.62a66.83 66.83 0 0 1 12.787-11.536h-1.454a73.937 73.937 0 0 0-12.868 11.52z" clip-rule="evenodd" fill="#b2308d" fill-rule="evenodd"/>
 <path id="path14" d="m123.41 27.325a23.943 23.943 0 0 1 2.402 5.073 34.27 34.27 0 0 0-0.967-5.058c-0.76-2.822-1.867-5.496-3.346-7.964a29.435 29.435 0 0 0-3.191-4.356h-11.826c7.596 2.372 13.438 6.702 16.928 12.305zm-73.455-0.77c-2.807 3.287-5.291 6.847-7.353 10.62 2.93-3.876 6.542-7.445 10.645-10.585 6.863-5.253 15.091-9.305 23.771-11.57h-14.276a66.859 66.859 0 0 0-12.787 11.535zm-10.809-0.113c3.798-4.205 8.157-8.043 12.903-11.422h-47.323a4.73 4.73 0 0 0-4.73 4.729v35.755a4.73 4.73 0 0 0 4.73 4.73h18.995c0.192-3.824 0.943-7.818 2.308-11.926 2.619-7.884 7.195-15.31 13.117-21.866z" clip-rule="evenodd" fill="#a91f24" fill-rule="evenodd"/>
 <path id="path16" d="m128.2 27.375c1.383 6.549 0.918 14.043-1.721 21.991-1.246 3.752-2.916 7.389-4.922 10.869h6.018c2.744-4.182 4.902-8.535 6.371-12.965 2.336-7.03 2.799-13.765 1.463-19.82-1.012-4.58-3.051-8.771-6.107-12.401l-0.025-0.029h-6.719c2.738 3.521 4.658 7.698 5.642 12.355z" clip-rule="evenodd" fill="#a91f24" fill-rule="evenodd"/>
 <path id="path18" d="m171.02 15.02h-39.4a32.393 32.393 0 0 1 5.861 12.453c1.541 6.634 1.172 14.104-1.447 21.989-1.23 3.707-2.896 7.312-4.93 10.773h39.916a4.73 4.73 0 0 0 4.73-4.73v-35.756a4.728 4.728 0 0 0-4.73-4.729zm-135.44 33.393c2.639-7.947 7.138-15.399 12.846-21.874a73.907 73.907 0 0 1 12.869-11.52h-3.304c-5.269 3.319-10.147 7.188-14.429 11.469-7.101 7.099-12.563 15.32-15.448 24.012-1.104 3.324-1.787 6.582-2.063 9.734h7.141c0.252-3.776 1.031-7.737 2.388-11.821z" clip-rule="evenodd" fill="#a91f24" fill-rule="evenodd"/>
 <path id="path20" d="m43.467 48.493c2.789-8.396 8.829-16.026 16.535-21.832a57.182 57.182 0 0 1 4.732-3.208 66.466 66.466 0 0 0-5.479 3.201c-9.395 6.102-16.365 13.988-19.743 22.385-1.555 3.867-2.263 7.639-2.148 11.197h4.598c-0.328-3.663 0.136-7.62 1.505-11.743zm73.16-21.239c3.809 5.927 4.758 13.629 1.969 22.024-1.277 3.848-3.244 7.531-5.734 10.957h3.17c2.639-3.281 4.729-6.75 6.162-10.314 3.482-8.657 2.592-16.6-1.68-22.626-4.096-5.779-11.309-9.785-20.754-10.97 7.568 1.619 13.402 5.537 16.867 10.929z" clip-rule="evenodd" fill="#a91f24" fill-rule="evenodd"/>
 <path id="path22" d="m114.99 51.001c2.748-8.264 1.799-16.254-2.674-22.498a23.006 23.006 0 0 0-1.016-1.305c-4.543-5.458-11.568-8.729-19.986-9.253-10.038-0.625-20.394 2.803-28.72 8.743-7.208 5.143-12.895 12.167-15.525 20.083-1.55 4.664-1.922 9.24-1.148 13.465h64.398c2.021-2.917 3.605-6.021 4.671-9.235z" clip-rule="evenodd" fill="#a91f24" fill-rule="evenodd"/>
 <path id="path24" d="m99.76 16.325a38.447 38.447 0 0 0-7.641-0.826c-9.439-0.099-19.089 2.913-27.385 7.953 9.443-4.955 19.814-7.602 29.604-7.497 1.881 0.02 3.685 0.152 5.422 0.37z" clip-rule="evenodd" fill="#a91f24" fill-rule="evenodd"/>
 <path id="path26" d="m34.791 56.247c-8.94 0-16.188 7.248-16.188 16.188 0 8.941 7.249 16.189 16.188 16.189 8.94 0 16.188-7.248 16.188-16.189 1e-3 -8.94-7.247-16.188-16.188-16.188z" clip-rule="evenodd" fill="#0094d6" fill-rule="evenodd"/>
 <path id="path28" d="m38.257 69.622c0-0.299 0.241-0.539 0.538-0.539h3.275c0.297 0 0.538 0.24 0.538 0.539v6.287c0 0.855-0.143 1.412-0.436 1.705-0.168 0.168-0.391 0.25-0.684 0.25h-2.209c-0.104 0-0.379 0-0.619-0.238-0.287-0.287-0.404-0.795-0.404-1.748v-6.256zm-12.066 9.933c-0.03 0.023-0.048 0.053-0.073 0.08 0.026-0.029 0.047-0.062 0.081-0.086 0.031-0.021 0.066-0.029 0.099-0.043-0.032 0.014-0.066 0.021-0.097 0.043l4.054-2.641 3.313-2.32a0.533 0.533 0 0 1 0.556-0.035c0.178 0.092 0.29 0.275 0.29 0.477v1.297c0 1.6 0.564 3.08 1.55 4.066 0.859 0.859 2.005 1.312 3.315 1.312h2.209a4.646 4.646 0 0 0 3.35-1.385c1.024-1.023 1.612-2.48 1.612-3.994v-10.764a0.326 0.326 0 0 0-0.094-0.229 0.324 0.324 0 0 0-0.229-0.094h-21.458c-0.629 0-1.112 0.164-1.434 0.484-0.323 0.322-0.486 0.807-0.486 1.438 0 0.629 0.163 1.113 0.486 1.436 0.321 0.322 0.804 0.484 1.434 0.484h8.396a0.537 0.537 0 0 1 0.309 0.979l-9.858 6.73c-0.441 0.303-1.027 0.807-1.027 1.668 0 0.562 0.201 1.074 0.568 1.439 0.331 0.332 0.777 0.514 1.257 0.514 0.709 2e-3 1.357-0.473 1.877-0.856z" clip-rule="evenodd" fill="#fff" fill-rule="evenodd"/>
 <path id="path30" d="m79.432 71.262-0.618 0.621c-0.449 0.451-0.814 1.326-0.814 1.975v6.604c0 0.613-0.533 1.146-1.151 1.146h-16.935c-0.646 0-1.628-0.225-2.19-0.477l-4.016-3.994c-0.281-0.561-0.477-1.178-0.477-1.373 0-0.168 0.196-0.785 0.477-1.373l4.016-4.031c0.562-0.254 1.544-0.451 2.19-0.451h13.592c0.618 0 1.516-0.395 1.965-0.848l0.871-0.873a1.183 1.183 0 0 1 1.656 0l1.433 1.438c0.45 0.451 0.45 1.185 1e-3 1.636zm-5.925 5.231v-1.598c0-0.645-0.534-1.148-1.18-1.148h-11.205c-0.646 0-2.359 0.42-2.612 0.924-0.224 0.504-0.393 0.953-0.393 1.01s0.421 1.316 0.926 1.541c0.506 0.225 1.432 0.42 2.079 0.42h11.205c0.646-1e-3 1.18-0.532 1.18-1.149zm32.399-6.311v10.428c0 0.635-0.5 1.135-1.141 1.135h-16.769c-0.612 0-1.613-0.195-2.169-0.473l-3.977-3.92c-0.25-0.584-0.473-1.193-0.473-1.361 0-0.193 0.223-0.805 0.473-1.359l3.977-3.977c0.557-0.277 1.558-0.473 2.169-0.473h12.348c0.641 0 1.141-0.527 1.141-1.141v-5.729c0-0.639 0.527-1.139 1.168-1.139h2.113c0.641 0 1.141 0.5 1.141 1.139v5.729zm-4.449 6.67v-1.582c0-0.639-0.529-1.139-1.141-1.139h-11.125c-0.639 0-2.335 0.416-2.558 0.916s-0.417 0.943-0.417 1c0 0.084 0.417 1.305 0.918 1.527 0.5 0.221 1.418 0.416 2.057 0.416h11.125a1.144 1.144 0 0 0 1.141-1.138zm10.156-15.217h2.186c0.633 0 1.18 0.547 1.18 1.18v10.959c0 0.662-0.547 1.18-1.18 1.18h-2.186c-0.662 0-1.18-0.518-1.18-1.18v-10.959a1.186 1.186 0 0 1 1.18-1.18zm32.442 12.752-3.979-3.977c-0.584-0.277-1.557-0.471-2.195-0.471h-12.391c-0.639 0-1.613 0.193-2.197 0.471l-3.977 3.977c-0.25 0.555-0.473 1.166-0.473 1.361 0 0.166 0.223 0.777 0.473 1.359l3.977 3.92c0.584 0.279 1.559 0.473 2.197 0.473h12.391c0.639 0 1.611-0.193 2.195-0.473l3.979-3.92c0.25-0.582 0.473-1.193 0.473-1.359-1e-3 -0.195-0.223-0.806-0.473-1.361zm-5.286 2.944c-0.5 0.223-1.445 0.416-2.059 0.416h-10.053c-0.611 0-1.557-0.193-2.059-0.416-0.5-0.223-0.918-1.443-0.918-1.527 0-0.055 0.195-0.5 0.418-1 0.223-0.498 1.947-0.916 2.559-0.916h10.053c0.613 0 2.336 0.418 2.559 0.916 0.223 0.5 0.418 0.945 0.418 1 0 0.083-0.418 1.304-0.918 1.527zm-27.455-0.051a0.815 0.815 0 0 0-0.814 0.816v3.26c0 0.449 0.365 0.814 0.814 0.814h2.877a0.813 0.813 0 0 0 0.814-0.814v-3.26a0.814 0.814 0 0 0-0.814-0.816z" clip-rule="evenodd" fill="#0094d6" fill-rule="evenodd"/>
 <path id="path32" d="m49.725 30.732v4.278a2.29 2.29 0 0 1-2.28 2.278h-25.641c-1.28 0-2.281 1-2.281 2.277v10.279c0 1.223-1.057 2.279-2.28 2.279h-4.283c-1.224 0-2.281-1.057-2.281-2.279v-34.446c0-1.278 1.057-2.278 2.281-2.278h4.283c1.224 0 2.28 1 2.28 2.278v10.778a2.254 2.254 0 0 0 2.281 2.278h25.641a2.29 2.29 0 0 1 2.28 2.278z" clip-rule="evenodd" fill="#f4cf30" fill-rule="evenodd"/>
 <path id="path34" d="m113.5 37.388-9.977-9.976c-1.465-0.698-3.908-1.187-5.514-1.187h-31.083c-1.604 0-4.047 0.489-5.512 1.187l-9.978 9.976c-0.628 1.393-1.186 2.925-1.186 3.413 0 0.417 0.558 1.95 1.186 3.412l9.978 9.836c1.465 0.697 3.908 1.186 5.512 1.186h31.083c1.605 0 4.049-0.488 5.514-1.186l9.977-9.836c0.629-1.462 1.188-2.995 1.188-3.412-1e-3 -0.488-0.559-2.02-1.188-3.413zm-13.256 7.383c-1.256 0.557-3.629 1.044-5.164 1.044h-25.223c-1.535 0-3.908-0.488-5.163-1.044-1.256-0.558-2.303-3.622-2.303-3.831 0-0.139 0.488-1.253 1.046-2.507s4.884-2.299 6.419-2.299h25.223c1.535 0 5.861 1.045 6.42 2.299s1.047 2.368 1.047 2.507c1e-3 0.209-1.046 3.273-2.302 3.831z" clip-rule="evenodd" fill="#f7ed33" fill-rule="evenodd"/>
 <path id="path36" d="m157.09 30.084 7.953 7.952c0.557 1.166 0.945 2.388 0.945 2.721 0 0.389-0.389 1.61-0.945 2.72l-7.953 7.952c-1.113 0.5-3.115 0.945-4.34 0.945h-24.695a2.257 2.257 0 0 0-2.281 2.281v7.008c0 1.223-1.057 2.279-2.279 2.279h-4.283c-1.225 0-2.281-1.057-2.281-2.279v-30.188a2.257 2.257 0 0 1 2.281-2.281h33.539c1.224-1e-3 3.225 0.389 4.339 0.89zm-0.78 10.505c0-0.111-0.834-2.554-1.836-3.054-1.002-0.444-2.836-0.778-4.115-0.778h-22.25c-1.223 0-2.279 1-2.279 2.277v3.165c0 1.221 1.057 2.276 2.279 2.276h22.25c1.279 0 4.672-0.833 5.117-1.832 0.5-0.999 0.834-1.943 0.834-2.054z" clip-rule="evenodd" fill="#f4cf30" fill-rule="evenodd"/>
</svg>
