<svg data-name="Calque 1" version="1.1" viewBox="0 0 160.74 90" xmlns="http://www.w3.org/2000/svg">
 <path d="m31.877 61.292c-0.37101 2.714-1.7641 5.5146-3.4502 6.9293-0.77602 0.57727-1.5903 1.1031-2.8757 0.92391-0.45762-0.09627-1.4667-0.47639-1.4667-1.9633l0.01173-0.23098c0.14003-2.1221 2.7284-4.2442 7.833-6.3374l-0.05143 0.6785m-17.611-9.5567c-1.9113 13.599-3.8227 14.292-4.1836 14.292-0.37822 0.01173-1.23 0.02436-1.23-3.5513 0-7.0737 2.4931-15.273 6.6146-20.514-0.31038 2.9883-0.71025 6.2508-1.2011 9.7732m36.981-11.823c2.0586-0.41865 3.124 0.18767 3.124 1.8189 0 4.0277-7.4548 7.6511-11.074 9.3546 0.30893-6.2508 4.1215-10.394 7.9499-11.174m3.8241 28.006c6.964 0.04782 13.319-2.7284 18.067-8.243 4.7437-5.5146 7.3768-13.31 7.3768-22.26 0-18.637-0.73335-21.77-2.6851-29.998l-0.1071-0.47639c-1.4653-6.1931-5.4583-7.7089-12.484-5.197-9.9132 3.5513-27.469 10.668-38.735 15.851-9.2882 4.2586-18.158 8.9359-22.003 11.231-2.239 1.3281-3.3838 3.5513-3.7794 7.2325v0.0478c-0.48505 5.1681-0.7218 9.5278-0.7218 19.128 0 9.4701 0.29883 13.96 0.7117 18.897l0.0099 0.04782c0.37245 3.6668 1.4552 5.4568 3.7794 6.1498 3.9179 1.1693 12.822 3.2625 22.003 4.7928 10.872 1.8045 26.814 3.5224 36.688 4.172 0.45618 0.04782 7.7247 0.66406 12.643 0.70737 1.6962 0.01173 2.9146-1.025 2.9146-2.3964l-0.0505-0.46195c-0.3277-1.588-2.1322-2.8439-3.9815-2.7862-4.6296 0.12992-11.91-0.23098-11.983-0.23098l-0.0622-0.01173c-9.6823-0.28872-25.403-1.4292-36.168-2.8439-10.094-1.3137-18.734-3.1471-21.801-3.9555-1.4321-0.38977-1.8377-1.0538-2.0918-3.4502-0.42298-4.9083-0.73335-9.3979-0.73335-18.897 0-9.6722 0.2252-13.859 0.73335-19.099 0.26562-2.3964 0.7218-3.3059 2.0918-4.071 3.8126-2.1365 12.598-6.4529 21.801-10.351 11.848-5.0238 29.594-11.506 38.131-14.263 4.1157-1.3137 5.6055-0.62075 6.4616 3.2048l0.10827 0.46195c1.7526 7.8099 2.356 10.481 2.356 27.862 0 14.898-7.4707 24.036-18.49 24.368-4.9574 0.14436-9.8006-2.483-11.306-7.5212l0.54135-0.23098c4.979-2.1365 15.372-6.6262 15.372-14.566 0-4.4752-3.5975-6.7272-8.4307-5.5579-6.1858 1.4869-12.152 7.9543-12.152 17.266l0.0226 0.56301c-1.8377 0.86616-2.4022 1.1404-4.2182 1.9777-0.69871-1.9489-1.8218-3.609-3.3318-4.7495-1.1563-0.8806-2.5552-1.4869-4.0551-1.7901 1.946-1.9922 3.5975-4.8072 3.5975-8.6039 0-4.7495-3.1413-8.5028-8.6891-6.6983-1.3094 0.43308-2.561 1.0683-3.7173 1.8478 0.09627-1.5735 0.1588-3.0171 0.17034-4.3019v-0.0244c0-0.92654-0.78249-1.4075-1.3483-1.2559-0.68679 0.18403-1.3584 0.9943-1.3584 2.2087-0.02256 1.6313-0.11792 3.5657-0.28872 5.7456-5.8466 5.8899-9.2246 16.385-9.2246 25.234 0 5.7456 2.1149 6.655 3.4286 6.6839 2.8872 0.07218 4.9905-5.1825 6.7445-17.294 0.68716-4.8072 1.2069-9.1669 1.5562-12.992 1.2458-0.98166 2.5942-1.7323 4.0378-2.151 3.5975-1.0394 5.2836 1.1549 5.2836 3.8256 0 2.3964-0.81852 5.2692-6.593 8.1853-0.93894 0.5421-1.2578 1.4692-1.0481 2.252 0.21494 0.80217 0.71694 1.487 1.5793 1.2559 2.7515-0.75068 5.8192-0.28872 7.7478 1.2704 0.9138 0.73624 1.5952 1.7612 2.0413 2.9738h-0.01173c-4.4997 1.9489-9.9869 4.9227-10.309 10.048l-0.02165 0.5197c0 2.815 1.5504 5.1104 3.9699 5.7022 1.7872 0.43308 3.6538-0.04782 5.3731-1.4292 2.5047-1.9922 4.5228-5.8322 5.0757-9.7155l0.15735-2.1943-0.02165-0.50526c1.6457-0.70737 2.1871-0.93834 4.1388-1.7901 1.985 6.655 8.3859 10.625 15.288 10.668"/>
 <g transform="matrix(12.03 0 0 -12.03 -446.84 4793.9)" fill="#adaeb0">
  <path d="m44.984 396.38c0-0.3468-0.1518-0.51-0.41292-0.4488-0.27288 0.0648-0.44304 0.3204-0.44304 0.69v1.44c0 0.3708 0.18804 0.5028 0.46032 0.3852l2.7868-1.2144c0.19128-0.0828 0.28404-0.2316 0.28404-0.4704 0-0.2304-0.10872-0.372-0.19308-0.4776-0.25596-0.3168-0.51984-0.6516-0.79788-1.0044 0.6582-0.2244 1.0421-0.888 1.0421-1.9116 0-0.5652-0.14904-1.1496-0.43308-1.5552-0.30804-0.4476-0.78612-0.7032-1.2548-0.7812-0.90612-0.15-2.1863 0.3732-2.1863 2.0856 0 0.702 0.26436 1.3152 0.9192 1.2396 0.36888-0.0432 0.60792-0.3768 0.60792-0.804 0-0.438-0.24696-0.6324-0.56484-0.6324 0.05064-0.2856 0.22788-0.534 0.34176-0.6324 0.27-0.2412 0.61692-0.3348 0.91032-0.3096 0.6108 0.0504 1.1039 0.5844 1.1039 1.434 0 0.2856-0.06324 0.5436-0.19128 0.7404-0.1176 0.1848-0.33888 0.2976-0.62904 0.3396-0.35388 0.0504-0.4176-0.0456-0.6876-0.01-0.20532 0.0276-0.30612 0.2556-0.30612 0.4692 0 0.1632 0.1008 0.288 0.17808 0.3624l1.193 1.3116-1.6111 0.5652c-0.08292 0.0288-0.11628-1e-3 -0.11628-0.1056"/>
  <path d="m49.395 392.39c0.285 0.0192 0.48096 0.1392 0.61968 0.3696 0.135 0.2532 0.20532 0.7416 0.20532 1.2072 0 0.5028-0.05904 0.906-0.18096 1.1688-0.11808 0.2628-0.28032 0.4212-0.57936 0.5256l-0.27984 0.0984c-0.04776 0.0168-0.0618-0.0264-0.0618-0.174v-3.102c0-0.0984 0.01068-0.1104 0.051-0.1092zm-0.74808-0.0936 0.05712 0.1068v3.4728l-0.05712 0.1224-0.24984 0.0888c-0.14628 0.054-0.23724 0.2184-0.23724 0.444 0 0.2196 0.09096 0.3204 0.23724 0.2568l1.0556-0.4608c0.38904-0.1692 0.606-0.3936 0.77196-0.7416 0.19596-0.4092 0.28032-1.0056 0.28032-1.6608 0-0.6444-0.09228-1.2576-0.27696-1.614-0.19224-0.3696-0.44724-0.5256-0.79932-0.5784l-1.0316-0.1524c-0.14628-0.0228-0.23724 0.0972-0.23724 0.3228 0 0.2268 0.09096 0.366 0.23724 0.3756"/>
 </g>
</svg>
