<svg width="840.65mm" height="200.07mm" version="1.1" viewBox="0 0 840.65 200.07" xmlns="http://www.w3.org/2000/svg">
 <g transform="translate(-.91677 -96.68)">
  <g transform="matrix(1.655 0 0 1.6703 -198.53 -611.88)">
   <g transform="translate(-3.2072 312.17)" fill="#a02c2c">
    <g fill="#2b6872">
     <g transform="matrix(1.0018 0 0 .98726 41.789 -67.012)" aria-label="PLAY MORE">
      <path d="m271.91 237.57 14.683-0.096c5.5155-0.0361 7.5878-2.7443 7.5878-7.9362v-0.2225c0-4.9694-2.6853-7.521-8.2009-7.4911l-5.1883 0.0281-0.10005-24.26c-0.0233-5.6368-2.6852-8.3812-7.7655-8.3812h-2.5401c-4.8625 0-7.431 2.7445-7.4751 8.3812l-0.23582 30.11c-0.0523 6.675 3.3566 9.9054 9.235 9.8669z" stroke-width="1.7196"/>
      <path d="m316.65 217 4.0127-10.95 4.0127 10.95zm10.998 12.812 0.0743 0.14897c2.5265 6.5548 6.5392 8.6405 10.329 8.6405 5.4246 0 10.329-4.1713 9.6602-5.81l-15.754-38.584c-0.8174-2.8305-2.8238-4.9161-10.998-4.9161-8.174 0-10.552 2.0856-11.369 4.9161l-14.936 38.808c-0.59448 1.6387 4.3842 5.661 9.2886 5.661 3.8641 0 7.6538-2.2346 9.8831-8.4915l0.14861-0.37243z" stroke-width="1.7437"/>
      <path d="m369.29 219.33 16.039-23.061c0.51266-0.7439-2.8563-6.8439-11.132-6.8439-2.9295 0-5.7858 1.711-8.4224 6.3975l-5.4196 9.3731-5.1999-9.3731c-2.4169-4.5378-5.3464-6.3231-8.3491-6.3231-9.228 0-12.231 5.8768-11.718 6.7695l16.259 23.061v10.489c0 5.5048 2.6366 8.406 7.5435 8.406h2.5633c5.1267 0 7.8365-2.9012 7.8365-8.406z" stroke-width="1.73"/>
      <path d="m402.58 238.23h2.9236c5.1164 0 6.9436-2.9017 6.9436-8.4075v-13.169l2.412 8.9283c0.73091 1.8601 0.21926 3.7945 6.7244 3.7945 6.5051 0 6.2127-2.0089 6.8705-3.7945l2.412-9.7467v13.988c0 5.5058 2.0465 8.4075 6.9436 8.4075h2.9236c5.1164 0 6.9436-2.9017 6.9436-8.4075v-32.067c0-5.6546-2.7044-8.4075-7.8207-8.4075h-5.1164c-3.5814 0-5.4087 0.59522-6.9436 4.0921l-6.1396 16.369-6.1396-16.369c-1.3887-3.1993-2.9236-4.0921-7.236-4.0921h-5.1164c-4.8971 0-7.5283 2.7529-7.5283 8.4075v32.067c0 5.5058 2.0465 8.4075 6.9436 8.4075z" stroke-width="1.7284"/>
      <path d="m474.18 238.56c14.737 0 25.316-10.479 25.316-25.017 0-14.464-10.579-24.943-25.316-24.943s-25.389 10.479-25.389 24.943c0 14.538 10.579 25.017 25.389 25.017zm0-16.161c-4.888 0-7.8792-3.3946-7.8792-8.8554 0-5.6822 2.9182-8.9292 7.8792-8.9292 4.8151 0 7.8063 3.4684 7.8063 8.9292 0 5.4609-2.9912 8.8554-7.8063 8.8554z" stroke-width="1.7197"/>
      <path d="m518.48 211.97v-8.7051h4.3274c3.5206 0 5.0608 1.488 5.0608 4.3897 0 2.8273-1.6869 4.3153-4.9875 4.3153zm18.483 8.0354c5.7943-2.3809 8.8014-7.3658 8.8014-13.839 0-10.64-6.7478-16.443-20.683-16.443h-15.182c-5.941 0-9.0948 3.4225-9.0948 10.119v27.678c0 6.6962 2.6404 10.714 7.5546 10.714h2.5671c5.1342 0 7.848-2.9017 7.848-8.4075v-5.9522h0.8068l4.6208 6.5474c3.7406 5.2826 6.3811 7.8122 12.175 7.8122 7.7013 0 10.708-5.357 10.195-6.0266z" stroke-width="1.7314"/>
      <path d="m556.17 237.86h24.409c5.7003 0 8.2581-2.2321 8.2581-7.217v-0.37201c0-4.6874-2.5578-6.3986-8.2581-6.3986h-15.566v-3.7945h8.9889c5.8465 0 8.2581-1.9345 8.2581-6.6218v-0.22321c0-4.3897-2.3386-6.1754-8.2581-6.1754h-8.9889v-3.1993h15.274c5.7003 0 8.2581-1.8601 8.2581-6.845v-0.37201c0-4.7618-2.5578-6.9194-8.2581-6.9194h-24.117c-5.9196 0-9.062 3.4225-9.062 10.119v28.05c0 6.6962 3.1425 9.9699 9.062 9.9699z" stroke-width="1.7282"/>
      <path d="m235.44 213.01v-9.9248h3.4654c3.5392 0 5.3825 1.7909 5.3825 4.9997 0 3.1341-1.7696 4.9251-5.0138 4.9251zm0.29493 13.059h4.4977c14.009 0 21.456-5.8952 21.456-17.984 0-12.313-7.742-18.506-22.267-18.506h-12.682c-5.9724 0-9.1429 3.5073-9.1429 10.149v30.073c0 5.5221 2.8019 8.4323 7.5945 8.4323h2.6544c5.1613 0 7.8894-2.9849 7.8894-8.4323z" stroke-width="1.7385"/>
     </g>
     <g transform="matrix(.20331 0 0 .20096 123.32 172.28)">
      <g transform="matrix(28.48 0 0 28.98 -1716.1 -4776.9)" fill="#2b6872">
       <g transform="matrix(3.0561 0 0 3.0813 -153.4 -354.39)" fill="#2b6872">
        <g transform="matrix(.35278 0 0 -.35278 75.685 170.04)">
         <path d="m0 0c-0.139-1.131-1.025-2.02-2.174-2.157 0 0-1.825-0.278-4.51-0.278s-4.509 0.278-4.509 0.278c-1.149 0.137-2.035 1.026-2.175 2.157 0 0-0.277 2.015-0.277 4.412s0.277 4.412 0.277 4.413c0.14 1.13 1.026 2.019 2.175 2.155 0 0 1.824 0.279 4.509 0.279s4.51-0.279 4.51-0.279c1.149-0.136 2.035-1.025 2.174-2.155 0-1e-3 0.278-2.016 0.278-4.413s-0.278-4.412-0.278-4.412m2.552 10.509c-0.193 1.561-1.417 2.791-3.005 2.979 0 0-2.521 0.384-6.231 0.384s-6.231-0.384-6.231-0.384c-1.588-0.188-2.812-1.418-3.004-2.979 0 0-0.384-2.786-0.384-6.097s0.384-6.096 0.384-6.097c0.192-1.561 1.416-2.791 3.004-2.979 0 0 2.521-0.385 6.231-0.385s6.231 0.385 6.231 0.385c1.588 0.188 2.812 1.418 3.005 2.979 0 1e-3 0.384 2.786 0.384 6.097s-0.384 6.097-0.384 6.097" fill="#2b6872"/>
        </g>
        <g transform="matrix(.35278 0 0 -.35278 73.688 167.86)">
         <path d="m0 0c0.42 0.058 0.831 0.084 1.321 0.075 0.474-0.01 0.974-0.055 1.417-0.135 0 0 0.145-0.034 0.145 0.118v0.983c0 0.09-0.116 0.119-0.116 0.119-0.486 0.125-0.967 0.195-1.443 0.205-0.448 8e-3 -0.895-0.036-1.341-0.131 0 0-0.112-0.034-0.112-0.131v-0.972c0-0.18 0.129-0.131 0.129-0.131" fill="#2b6872"/>
        </g>
        <path d="m72.456 168.08s0.52917-7.1e-4 0.52917-0.43744c0-0.43674-0.52917-0.43709-0.52917-0.43709s-0.52952 3.5e-4 -0.52952 0.43709 0.52952 0.43744 0.52952 0.43744"/>
        <g transform="matrix(.35278 0 0 -.35278 74.746 168.96)">
         <path d="m0 0c-0.521-0.322-2.042-1.143-4.016-1.143-1.973 0-3.495 0.821-4.016 1.143 0 0-0.194 0.136-0.194-0.117v-0.503c0-0.152 0.171-0.311 0.171-0.311 0.514-0.395 2.124-1.501 4.039-1.502 1.915 1e-3 3.524 1.107 4.039 1.502 0 0 0.172 0.159 0.172 0.311v0.503c0 0.253-0.195 0.117-0.195 0.117" fill="#2b6872"/>
        </g>
       </g>
      </g>
     </g>
    </g>
   </g>
   <g transform="scale(.99862 1.0014)" fill="#df8600" stroke-width="1.7039" aria-label="Series">
    <path d="m255.98 526.56q0-1.3844 0.92293-2.7333 0.95843-1.3844 1.9524-2.0588 0.99393-0.70995 1.2069-0.56796 2.2363 2.7688 6.0346 4.6147 3.8337 1.8459 7.9869 1.8459t6.354-1.4909q2.2363-1.4909 2.2363-4.2597 0-1.1004-0.53246-1.9879-0.49696-0.92293-1.1359-1.4199-0.60345-0.49696-2.0588-0.99392-1.4554-0.53247-2.3428-0.74545-0.85193-0.21299-2.8753-0.67445-0.88743-0.21299-1.3134-0.28398-3.2658-0.70995-5.6441-1.5619-2.3428-0.88743-4.7567-2.4848-2.3783-1.5974-3.6207-4.1532t-1.2424-5.9636q0-6.6025 4.9696-10.578 5.0051-3.9757 13.418-3.9757 7.9159 0 12.389 2.6268 4.4727 2.6268 4.4727 5.9636 0 1.5264-1.0649 2.9463-1.0294 1.4199-2.0588 2.1298-0.99392 0.67445-1.1714 0.53246-2.1653-2.5558-5.5021-4.1887t-6.993-1.6329q-3.8692 0-5.9991 1.4909-2.1298 1.4909-2.1298 4.1177 0 0.63895 0.14199 1.2069 0.14199 0.53246 0.46146 0.99393 0.31948 0.46146 0.63896 0.81644 0.35497 0.31948 1.0294 0.60346 0.70995 0.28397 1.1714 0.49696 0.46146 0.21298 1.4199 0.46147 0.95843 0.21298 1.5264 0.35497t1.7749 0.39047q1.2069 0.24848 1.8459 0.39047 7.348 1.5974 11.643 4.9342 4.2952 3.3013 4.2952 9.4068 0 7.064-5.0406 11.004-5.0051 3.9047-14.234 3.9047-8.7324 0-13.454-2.9108-4.7212-2.9463-4.7212-6.567z"/>
    <path d="m297.37 517.62q0-8.1289 5.2181-13.454 5.2536-5.3601 13.347-5.3601 7.8449 0 12.744 4.9696 4.8986 4.9341 4.8986 12.779v0.70995q-0.071 1.4554-0.60346 2.1654-0.49696 0.67445-1.8459 0.67445h-24.529q0.49696 3.9402 3.3013 6.212 2.8043 2.2363 7.0285 2.2363 6.993 0 10.046-5.2536 0.071-0.14199 1.2424 0.17748 1.2069 0.28398 2.4493 1.4554 1.2424 1.1359 1.2424 2.9463 0 3.1238-4.1887 5.6441-4.1532 2.5203-11.146 2.5203-8.7324 0-13.986-5.0051-5.2181-5.0406-5.2181-13.418zm9.2293-3.4788h17.465q-0.14199-3.6917-2.3783-5.9281-2.2008-2.2718-5.9281-2.2718-3.5497 0-6.0701 2.3073-2.5203 2.2718-3.0883 5.8926z"/>
    <path d="m339.33 530.51v-30.102q0-0.14199 0.49696-0.42597 0.49697-0.28398 1.4199-0.49697 0.95843-0.24848 1.9169-0.24848 5.4666 0 6.2476 6.0346 2.3428-6.4605 8.6614-6.4605 3.0528 0 4.8276 1.5974 1.7749 1.5974 1.7749 4.3662 0 1.8104-0.81644 3.1593-0.78095 1.3489-1.5619 1.8814-0.74544 0.49697-0.88743 0.35498-1.8814-1.7394-4.6502-1.7749-7.206 0-7.206 11.501v10.614q0 4.8632-4.5082 4.8632h-1.0649q-4.6502 0-4.6502-4.8632z"/>
    <path d="m369.11 488.48q0-2.4138 1.5264-3.7627 1.5264-1.3844 4.2242-1.3844t4.2242 1.3489 1.5264 3.8337q0 2.4493-1.5264 3.8337t-4.2242 1.3844q-2.6978 0-4.2242-1.3844t-1.5264-3.8692zm0.60345 42.029v-26.304q0-4.9341 4.5792-4.9696h1.0649q4.5792 0 4.6147 4.9696v26.304q0 4.8632-4.5082 4.8632h-1.1004q-4.6502 0-4.6502-4.8632z"/>
    <path d="m386.11 517.62q0-8.1289 5.2181-13.454 5.2536-5.3601 13.347-5.3601 7.8449 0 12.744 4.9696 4.8986 4.9341 4.8986 12.779v0.70995q-0.071 1.4554-0.60346 2.1654-0.49696 0.67445-1.8459 0.67445h-24.529q0.49696 3.9402 3.3013 6.212 2.8043 2.2363 7.0285 2.2363 6.993 0 10.046-5.2536 0.071-0.14199 1.2424 0.17748 1.2069 0.28398 2.4493 1.4554 1.2424 1.1359 1.2424 2.9463 0 3.1238-4.1887 5.6441-4.1532 2.5203-11.146 2.5203-8.7324 0-13.986-5.0051-5.2181-5.0406-5.2181-13.418zm9.2293-3.4788h17.465q-0.14199-3.6917-2.3783-5.9281-2.2008-2.2718-5.9281-2.2718-3.5497 0-6.0701 2.3073-2.5203 2.2718-3.0883 5.8926z"/>
    <path d="m425.66 528.16q0-1.1714 0.70995-2.2363 0.74545-1.1004 1.4909-1.5974 0.78095-0.49696 0.92294-0.35497 4.4372 4.7212 11.714 4.7212 6.2475 0 6.2475-3.4078 0-1.7394-1.5264-2.4848-1.5264-0.74544-5.3246-1.5264-0.49696-0.071-0.78094-0.14199-1.8104-0.42597-2.6978-0.63895-0.88743-0.24848-2.6623-0.81644-1.7749-0.60346-2.8043-1.3134-0.99393-0.74544-2.1298-1.8104-1.1359-1.1004-1.6684-2.6623-0.53246-1.5619-0.53246-3.5142 0-5.1471 4.0112-8.3064 4.0467-3.1948 10.791-3.1948 6.922 0 10.649 2.2008 3.7627 2.1653 3.7627 5.3601 0 1.2424-0.81644 2.3428-0.78094 1.0649-1.5974 1.6329-0.78094 0.53246-0.92293 0.39047-4.0822-4.7212-10.401-4.7212-6.0346 0-6.0346 3.4788 0 1.5974 1.3844 2.2718 1.3844 0.63895 4.8632 1.4554 0.88743 0.21299 1.3134 0.28398 2.1653 0.49696 3.3368 0.81644 1.1714 0.28398 3.3368 1.1714 2.2008 0.85193 3.3368 1.8814 1.1714 0.99393 2.0944 2.8043 0.95843 1.8104 0.95843 4.1532 0 5.3956-4.1887 8.4484-4.1532 3.0528-11.43 3.0528-7.419 0-11.43-2.2363-3.9757-2.2363-3.9757-5.5021z"/>
   </g>
  </g>
 </g>
</svg>
