<svg width="800" height="165.53" space="preserve" version="1.1" viewBox="0 0 800 165.53" xmlns="http://www.w3.org/2000/svg">
 <g class="st0" transform="translate(-.4 45.627)" display="none">
  <radialGradient id="SVGID_1_" cx="391.38" cy="72.879" r="229.66" gradientTransform="matrix(1.98,0,0,-1.98,-658.59,149.34)" gradientUnits="userSpaceOnUse">
   <stop stop-color="#4B4B5A" offset="0"/>
   <stop stop-color="#474756" offset=".06"/>
   <stop stop-color="#303042" offset=".39"/>
   <stop stop-color="#232336" offset=".71"/>
   <stop stop-color="#1E1E32" offset="1"/>
  </radialGradient>
  <path class="st1" d="m196.3 58.4c9.1-4.4 14.4-12.2 14.4-23 0-20.9-13.9-30.4-38.1-30.4h-49.2v111.8h56.4c25.3 0 39.4-11.7 39.4-30.6-0.1-15.5-8.5-24.2-22.9-27.8zm-43-29.6h14.8c7.8 0 11.7 3.4 11.7 9.7 0 6.2-4.1 9.5-11.9 9.5h-14.6zm21.9 63.8h-21.8v-20.2h21.3c8.4 0 12.6 3.6 12.6 10.2-0.1 6.2-4 10-12.1 10z" display="inline" fill="url(#SVGID_1_)"/>
  <path class="st2" d="m224.1 65.5c-0.3 1.8-0.5 3.6-0.5 5.4v45.8h30v-43.5c0-2 0.3-4 1.1-5.8 2.7-5.8 8.6-9.3 15-9.1 4.9 0 9.7 1.2 14.1 3.3l7.7-27.9c-50.2-12.8-63.7 14.4-67.4 31.8z" display="inline"/>
  <path class="st2" d="m332 28.5c-26.3 0-43.4 19.4-43.4 45.5 0 25.8 14.1 45 44.8 45 10.1 0.1 20.1-2.4 29-7.3l-12.7-19.1c-3.5 1.3-7.2 1.9-11 2-0.9 0.1-1.9 0.1-2.8 0-11.1 0-17-6.1-18.4-14.1h51.5s0.1-10.5 0.1-16.3c-0.1-19.3-12.3-35.7-37.1-35.7zm12.6 35h-26.7c1.1-7.2 6.3-12.5 14.4-12.5 8.3 0 12.3 4.3 12.3 11z" display="inline"/>
  <path class="st2" d="m109.5 4.9h-107.3c-1.2 0-2.2 1-2.2 2.3v107.3c0 1.2 1 2.2 2.2 2.2h107.3c1.2 0 2.2-1 2.2-2.2v-107.3c0-1.3-1-2.3-2.2-2.3zm-28.6 80.2h-16.3l-10.1-33h-11.2v33h-13.1v-33h-9.5v-11.4h44.4l7.6 28.6 7.6-28.6h14.1z" display="inline"/>
  <rect class="st2" x="377.4" y="30.8" width="30" height="86" display="inline"/>
  <polygon class="st2" points="417.1 95 417.1 116.8 485.2 116.8 485.2 92.2 454.9 92.2 485.2 52.5 485.2 30.8 417.1 30.8 417.1 55.3 447.9 55.3" display="inline"/>
  <path class="st2" d="m548.9 29.3c-10.3 0-18.1 2.8-23 7.2v-36.5h-30v116.8h30v-51.5c3-4.5 8.2-7.2 13.6-7.1 7.8 0 12 4.8 12 14.5v44.1h30v-49.5c0-21.1-10.6-38-32.6-38z" display="inline"/>
 </g>
 <g transform="matrix(1.3817 0 0 1.3817 -.55268 -.13817)" fill="#2b2032">
  <path class="st3" d="m233.1 70c-0.2 0.9-0.5 3.1-0.5 5.1v42.7h27.9v-40.7c0-2.5 0.6-4.6 1-5.4 2.4-5 7.4-8.5 14-8.5 4.9 0 9.6 1.4 13.1 3.1l7.1-26c-46.6-11.9-59.2 13.5-62.6 29.7zm-31.4-6.7c8.4-4.1 13.4-11.3 13.4-21.4 0-19.5-12.9-28.3-35.5-28.3h-45.8v104.1h52.5c23.6 0 36.7-10.9 36.7-28.5 0-14.4-7.9-22.5-21.3-25.9zm-40-27.5h13.8c7.3 0 10.9 3.2 10.9 9s-3.8 8.9-11.1 8.9h-13.7v-17.9zm20.4 59.4h-20.4v-18.9h19.8c7.9 0 11.8 3.4 11.8 9.5 0 5.8-3.6 9.4-11.2 9.4zm155-59.7c-24.4 0-40.5 18.1-40.5 42.4 0 24 13.1 42 41.8 42 10.2 0 19.6-2.5 27-6.8l-11.8-17.8c-1.9 0.7-5.1 1.7-10.2 1.9-0.9 0.1-1.8 0-2.6 0-10.3 0-15.9-5.7-17.2-13.2h48s0.1-9.8 0.1-15.2c-0.1-18-11.5-33.3-34.6-33.3zm11.8 32.6h-24.9c1-6.7 5.8-11.6 13.4-11.6 7.7 0 11.5 4 11.5 10.3zm31.7 49.6h27.9v-80.1h-27.9zm41.3-57.3h28.7l-28.7 37v20.2h63.4v-22.7h-28.2l28.2-37v-20.3h-63.4zm127.1-24.2c-9.6 0-16.9 2.6-21.4 6.7v-33.9h-27.9v108.7h27.9v-47.9c2-3.1 6.1-6.6 12.7-6.6 7.3 0 11.2 4.4 11.2 13.5v41h27.9v-46.1c0-19.6-9.9-35.4-30.4-35.4zm-154.3-36.1c-7.8 0-14.1 6.4-14.1 14.1 0 7.8 6.4 14.1 14.1 14.1 7.8 0 14.1-6.4 14.1-14.1 0.1-7.7-6.3-14.1-14.1-14.1z"/>
  <path class="st3" d="m0.4 13.6v104.1h104.1v-104.1z"/>
 </g>
 <path class="st3" d="m98.515 115.79h-9.9482l-16.718-38.411h-15.613v37.582h-14.922v-37.582h-18.238v-12.159h59.136l11.33 28.739 11.744-28.739h15.613z" fill="#fff" stroke-width="1.3817"/>
</svg>
