<svg id="a" data-name="Calque 1" version="1.1" viewBox="0 0 220.03 90" xmlns="http://www.w3.org/2000/svg">
 <path id="b" d="m63.805 58.619c-0.53076 3.4432-2.585 7.0041-5.1178 8.8517-1.4814 1.075-2.9982 1.5117-4.5199 1.2765-0.74072-0.11201-2.3952-0.60467-2.3952-2.637l0.0136-0.31913c0.23683-2.8722 4.409-5.6268 12.092-8.0286l-0.0724 0.85661m-29.99-15.738c-3.9371 20.391-8.037 21.415-8.8181 21.415-0.82638 0-2.763 0-2.763-5.6772 0-11.27 5.5058-23.498 13.956-29.931-0.59795 4.2999-1.3975 9.0532-2.375 14.193m53.787-6.349c2.1264 0 3.2081 0.89021 3.2081 2.6202 0 4.2495-7.8993 7.0041-12.078 8.3814 0.37455-7.1384 4.7433-11.002 8.8701-11.002m3.9035 30.351c6.569 0 12.04-2.6874 15.819-7.7767 3.5692-4.7702 5.447-11.505 5.447-19.45 0-16.561-0.519-19.551-1.9165-27.546l-0.085-0.47029c-1.0632-6.1643-4.1134-9.154-9.8813-9.7251-9.1389-0.9238-29.019-1.9148-45.212-1.9148-16.106 0-34.582 0.99098-43.781 1.9148-5.7679 0.57108-8.8181 3.5608-9.8947 9.7251v0.0556c-1.3319 8.7845-2.0004 16.343-2.0004 33.324 0 16.729 0.86669 24.64 1.9887 33.24l0.01155 0.08398c1.038 6.349 3.9051 9.154 9.8947 9.7419 9.3623 0.94059 27.885 1.9148 43.781 1.9148 15.674 0 34.073-0.97419 43.435-1.898 0.40647-0.01365 6.475-0.50389 10.274-1.1254l2.1264-2.5194-0.0263-0.41991c-0.24354-1.4109-1.5553-2.3347-2.9394-2.1163-3.6146 0.60467-9.7688 1.075-9.841 1.075l-0.0598 0.01365c-9.238 0.8902-27.432 1.8644-42.968 1.8644-17.648 0-35.914-1.1589-43.276-1.8644-3.628-0.36952-4.6778-1.4445-5.348-5.4756-1.0951-8.3982-1.9349-16.141-1.9349-32.518 0-16.729 0.62986-23.817 1.9349-32.518 0.68193-3.9135 1.8896-5.1565 5.348-5.4924 9.0801-0.907 27.333-1.8812 43.276-1.8812 16.947 0 36.841 1.0918 44.695 1.8812 3.4701 0.33593 4.6711 1.5789 5.3597 5.5092l0.085 0.48709c1.3706 7.8775 1.8442 10.531 1.8442 26.656 0 13.84-6.0433 22.104-16.155 22.104-5.1044 0-10.464-3.1409-12.216-9.0196l0.62987-0.20156c5.5965-1.8476 16.009-5.274 16.009-13.387 0-4.5686-3.4248-7.7431-8.3259-7.7431-6.8042 0-14.02 5.9963-14.02 17.115l0.0252 0.68865c-2.3817 0.78943-3.1359 1.0246-5.5697 1.8308-0.95235-2.5194-2.5194-4.7702-4.6778-6.5002-1.6931-1.3605-3.7792-2.4187-6.0887-3.1577 2.9646-2.1499 5.4319-5.358 5.4319-10.229 0-6.0467-4.7181-12.177-13.719-12.177-2.2961 0-4.5081 0.33593-6.6194 0.907 0.18308-2.2339 0.29394-4.2663 0.32081-6.0971v-0.0283c0-1.3941-1.1153-2.5362-2.5194-2.553-1.4109-0.0283-2.5715 1.1086-2.6051 2.5194-0.02519 2.3851-0.22339 5.1901-0.5442 8.3142-12.132 6.4666-19.887 22.154-19.887 36.582 0 9.4059 4.928 10.8 7.8674 10.8 6.1743 0 10.439-7.8775 13.844-25.547 1.2984-6.8361 2.2893-12.984 2.9394-18.358 2.2641-0.907 4.6845-1.4109 7.2039-1.4109 5.9375 0 8.5947 3.544 8.5947 7.0545 0 3.1745-1.2849 6.7521-10.871 9.2548-1.2933 0.33593-2.1197 1.6124-1.8778 2.9226 0.23683 1.3269 1.4579 2.2507 2.7832 2.0996 4.6778-0.4871 9.5924 0.73903 12.543 3.0905 1.3588 1.1086 2.3632 2.5194 3.0049 4.1151h-0.0115c-6.8042 2.0324-15.884 5.5596-16.462 12.748l-0.02624 0.70545c0 3.9639 2.6773 7.088 6.7185 7.7095 2.8671 0.4535 5.7544-0.31913 8.3259-2.2003 3.6162-2.637 6.4179-7.424 7.1586-12.194l0.20996-2.6874-0.0336-0.62147c2.1986-0.72224 2.9007-0.94059 5.3933-1.7804 2.4607 7.9783 9.8678 12.564 17.072 12.564m49.61-33.425h-2.9528l-0.66346-0.65505v-25.396c0-1.6628-1.2396-2.2675-2.2893-2.2675l-2.0861 0.83981c-1.9366 2.2171-3.1829 3.1745-5.8266 5.1733l-0.86669 1.7636 0.6433 1.5621 1.4697 0.60466 1.8039-0.65505 2.2322-1.7636v20.139l-0.66346 0.65505h-3.4599c-1.5217 0-2.4858 0.78943-2.4858 2.1163 0 1.3437 0.96411 2.1163 2.4858 2.1163h12.658c1.5217 0 2.4926-0.77263 2.4926-2.1163 0-1.3269-0.97083-2.1163-2.4926-2.1163"/>
 <g id="c" transform="matrix(13.997 0 0 -13.997 -503.54 6470.2)" fill="#75787d">
  <path id="d" d="m48.404 460.95v0.5688l-0.04596 0.0468h-0.15984c-0.11016 0-0.17712 0.0576-0.17712 0.1524 0 0.0936 0.06696 0.1536 0.17712 0.1536h0.8208c0.11016 0 0.17904-0.06 0.17904-0.1536 0-0.0948-0.06888-0.1524-0.17904-0.1524h-0.21564l-0.04728-0.0468v-1.572l0.04728-0.0468h0.21564c0.11016 0 0.17904-0.0564 0.17904-0.1536 0-0.096-0.06888-0.1524-0.17904-0.1524h-0.8208c-0.11016 0-0.17712 0.0564-0.17712 0.1524 0 0.0972 0.06696 0.1536 0.17712 0.1536h0.15984l0.04596 0.0468v0.678h-0.95388v-0.678l0.04596-0.0468h0.16032c0.10968 0 0.1758-0.0564 0.1758-0.1536 0-0.096-0.06612-0.1524-0.1758-0.1524h-0.82128c-0.10968 0-0.18 0.0564-0.18 0.1524 0 0.0972 0.07032 0.1536 0.18 0.1536h0.21612l0.0468 0.0468v1.572l-0.0468 0.0468h-0.21612c-0.10968 0-0.18 0.0576-0.18 0.1524 0 0.0936 0.07032 0.1536 0.18 0.1536h0.82128c0.10968 0 0.1758-0.06 0.1758-0.1536 0-0.0948-0.06612-0.1524-0.1758-0.1524h-0.16032l-0.04596-0.0468v-0.5688"/>
  <path id="e" d="m50.445 459.92c0.28644 0 0.495 0.0576 0.65208 0.1764 0.156 0.1356 0.23904 0.4056 0.23904 0.6612 0 0.2772-0.06984 0.4896-0.21288 0.6132-0.13308 0.1188-0.30888 0.1728-0.615 0.1728h-0.26616l-0.0558-0.0936v-1.476l0.04596-0.054zm-0.66192-0.0192 0.04692 0.0468v1.572l-0.04692 0.0468h-0.19584c-0.11016 0-0.1758 0.0552-0.1758 0.1524 0 0.0936 0.06564 0.1536 0.1758 0.1536h0.915c0.40212 0 0.64404-0.0708 0.84-0.2232 0.24276-0.1896 0.35292-0.5148 0.35292-0.8916 0-0.3684-0.12-0.7176-0.34872-0.9108-0.22644-0.1896-0.50904-0.252-0.8682-0.252h-0.891c-0.11016 0-0.1758 0.0564-0.1758 0.1524 0 0.0972 0.06564 0.1536 0.1758 0.1536"/>
 </g>
</svg>
