<?xml version="1.0" encoding="UTF-8"?>
<!-- Created with Inkscape (http://www.inkscape.org/) -->
<svg id="svg4525" width="211.67mm" height="179mm" version="1.1" viewBox="0 0 211.67 179" xmlns="http://www.w3.org/2000/svg" xmlns:cc="http://creativecommons.org/ns#" xmlns:dc="http://purl.org/dc/elements/1.1/" xmlns:rdf="http://www.w3.org/1999/02/22-rdf-syntax-ns#">
 <defs id="defs4519">
  <linearGradient id="a" x1="26.728" x2="94.512" y1="78.892" y2="78.892" gradientTransform="scale(1.1129 .89852)" gradientUnits="userSpaceOnUse">
   <stop id="stop4" stop-color="#889098" offset=".022"/>
   <stop id="stop6" stop-color="#dfe1e3" offset=".968"/>
  </linearGradient>
  <linearGradient id="b" x1="268.04" x2="257.59" y1="32.317" y2="22.119" gradientTransform="scale(.42768 2.3382)" gradientUnits="userSpaceOnUse">
   <stop id="stop9" stop-color="#E8297D" offset="0"/>
   <stop id="stop11" stop-color="#B3195E" offset="1"/>
  </linearGradient>
  <linearGradient id="c" x1="33.942" x2="20.01" y1="34.139" y2="34.233" gradientTransform="scale(.6116 1.6351)" gradientUnits="userSpaceOnUse">
   <stop id="stop14" stop-color="#E8297D" offset="0"/>
   <stop id="stop16" stop-color="#B3195E" offset="1"/>
  </linearGradient>
 </defs>
 <metadata id="metadata4522">
  <rdf:RDF>
   <cc:Work rdf:about="">
    <dc:format>image/svg+xml</dc:format>
    <dc:type rdf:resource="http://purl.org/dc/dcmitype/StillImage"/>
    <dc:title/>
   </cc:Work>
  </rdf:RDF>
 </metadata>
 <g id="layer1" transform="translate(32.86 16.762)">
  <g id="g29" transform="matrix(1.7665 0 0 1.7665 -32.86 -16.762)">
   <path id="path21" d="m105.17 101.33v-15.097l-16.435-14.918 16.437-15.097v-15.78s-11.972 11.282-24.862 23.252l-15.07-13.546c-18.132-16.644-35.492-6.014-35.492-6.014l8.397 10.093c3.335-0.268 10.184-5.15 19.385 3.87 3.66 3.604 9.17 8.16 14.53 13.192-5.36 5.033-10.87 9.976-14.53 13.58-9.202 9.05-17.302 4.048-20.607 3.78l-7.146 10.215s19.712 8.455 35.493-6.016l15.127-14.024c12.834 11.97 24.774 22.51 24.774 22.51z" fill="url(#a)"/>
   <path id="path23" d="m108.15 101.33 11.493-0.03s0.178-57.47 0.178-58.422l-11.582-5.36-0.09 63.812z" fill="url(#b)"/>
   <path id="path25" d="m99.692 45.588v15.662l20.13-18.312-11.584-5.42zm-69.41-4.824c-6.967 0-13.428 2.442-18.61 6.462v-47.226l-11.672 8.218v62.83c0 16.672 13.608 30.282 30.283 30.282s30.283-13.608 30.283-30.283c-0.03-16.675-13.638-30.283-30.283-30.283zm0 48.894c-10.183 0-18.61-8.427-18.61-18.61 0-10.184 8.427-18.61 18.61-18.61 10.185 0 18.462 8.426 18.462 18.61-0.03 10.213-8.277 18.61-18.46 18.61z" fill="#e9287d"/>
   <path id="path27" d="m11.672 47.226v22.332s0-9.41 10.214-15.096c-0.298-8.755-0.834-12.21-0.834-12.21s-5.24 1.64-9.38 4.974z" fill="url(#c)"/>
  </g>
 </g>
</svg>
