<svg id="e" width="798.18" height="800" version="1.0" viewBox="-7.331 -7.331 337.33 338.05" xmlns="http://www.w3.org/2000/svg">
 <defs id="f">
  <clipPath id="d">
   <path id="g" d="m423.02 243.9h16.077v16.077h-16.077z"/>
  </clipPath>
  <filter id="b" x="-.037778" y="-.034382" width="1.0756" height="1.0688" color-interpolation-filters="sRGB">
   <feGaussianBlur id="h" stdDeviation="0.21309751"/>
  </filter>
  <clipPath id="c">
   <path id="i" d="m423.02 243.9h16.077v16.077h-16.077z"/>
  </clipPath>
  <radialGradient id="a" cx="431.06" cy="251.93" r="8.0374" gradientTransform="matrix(20.985 0 0 -20.985 -8884.4 5449)" gradientUnits="userSpaceOnUse">
   <stop id="j" stop-color="#fb0" offset="0"/>
   <stop id="k" stop-color="#ff8601" offset=".64922"/>
   <stop id="l" stop-color="#fe4d00" offset="1"/>
  </radialGradient>
 </defs>
 <path id="m" d="m-7.331-6.581h337.33v337.33h-337.33z" fill="url(#a)" style="paint-order:stroke fill markers"/>
 <g id="n" transform="matrix(20.985 0 0 -20.985 -8884.4 5449)" fill-opacity=".58824" filter="url(#b)">
  <g id="o" clip-path="url(#c)" fill-opacity=".58824">
   <g id="p" transform="translate(427 256.16)">
    <path id="q" d="m0 0c-0.303-0.239-0.732-0.391-1.203-0.391-1.069-1e-3 -1.54 0.633-1.541 1.484-1e-3 0.868 0.59 1.502 1.495 1.503 0.824 0 1.253-0.454 1.28-1.11l-0.672-0.153c-0.027 0.369-0.195 0.596-0.602 0.596-0.45 0-0.721-0.347-0.72-0.814 0-0.455 0.25-0.84 0.851-0.839 0.282 0 0.613 0.152 0.819 0.315z" fill-opacity=".58824"/>
   </g>
   <g id="r" transform="translate(428.71 257.15)">
    <path id="s" d="m0 0c-0.063 0.027-0.163 0.064-0.294 0.064-0.273 0-0.441-0.123-0.441-0.437 0-0.245 0.105-0.394 0.315-0.394 0.163 0 0.331 0.107 0.42 0.218zm-1.299 1.453c0.168 0.059 0.562 0.15 0.909 0.15 0.557 0 0.977-0.138 1.099-0.718 0.037-0.16 0.053-0.341 0.053-0.549v-0.921c0-0.128 0.032-0.213 0.147-0.213 0.037 0 0.079 0.01 0.137 0.027l0.058-0.491c-0.152-0.064-0.347-0.096-0.494-0.096-0.262 0-0.42 0.117-0.483 0.319-0.158-0.149-0.431-0.314-0.793-0.314-0.578-1e-3 -0.852 0.398-0.852 0.899-1e-3 0.65 0.367 0.997 1.087 0.997 0.157 0 0.268-0.016 0.431-0.053v0.08c-1e-3 0.32-0.216 0.437-0.51 0.437-0.258-1e-3 -0.494-0.065-0.678-0.124z" fill-opacity=".58824"/>
   </g>
   <g id="t" transform="translate(430.86 258.68)">
    <path id="u" d="m0 0v-0.347c0.2 0.233 0.515 0.396 0.911 0.396 0.732 1e-3 1.052-0.552 1.052-1.251l1e-3 -0.759c0-0.163 0.044-0.288 0.195-0.287 0.092 0 0.195 0.038 0.288 0.087l0.033-0.602c-0.141-0.071-0.369-0.125-0.618-0.125-0.423-1e-3 -0.657 0.216-0.657 0.747l-1e-3 0.813c0 0.418-0.195 0.678-0.575 0.678-0.32 0-0.542-0.272-0.628-0.499l1e-3 -1.687h-0.759l-2e-3 2.836z" fill-opacity=".58824"/>
   </g>
   <g id="v" transform="translate(435.09 257.15)">
    <path id="w" d="m0 0c-0.063 0.026-0.163 0.064-0.294 0.064-0.274-1e-3 -0.442-0.123-0.441-0.438 0-0.245 0.105-0.394 0.315-0.394 0.163 1e-3 0.331 0.107 0.421 0.219zm-1.299 1.453c0.168 0.059 0.562 0.15 0.909 0.15 0.557 0 0.977-0.138 1.099-0.718 0.036-0.16 0.052-0.341 0.053-0.549v-0.922c0-0.127 0.032-0.213 0.147-0.213 0.037 0 0.079 0.011 0.137 0.027l0.058-0.49c-0.152-0.064-0.346-0.096-0.493-0.096-0.263 0-0.421 0.117-0.484 0.319-0.158-0.149-0.431-0.314-0.793-0.315-0.578 0-0.852 0.399-0.852 0.9-1e-3 0.65 0.367 0.997 1.087 0.997 0.158 0 0.268-0.016 0.431-0.053l-1e-3 0.08c0 0.319-0.215 0.436-0.509 0.436-0.258 0-0.494-0.064-0.678-0.123z" fill-opacity=".58824"/>
   </g>
   <g id="x" transform="translate(437.22 259.5)">
    <path id="y" d="m0 0 2e-3 -2.751c0-0.195 0.076-0.309 0.233-0.309 0.108 0 0.206 0.039 0.303 0.087l0.039-0.601c-0.13-0.055-0.374-0.125-0.64-0.126-0.423 0-0.694 0.206-0.694 0.764l-2e-3 2.936z" fill-opacity=".58824"/>
   </g>
   <g id="z" transform="translate(436.71 250.17)">
    <path id="aa" d="m0 0-0.684 5.026h-5.929l0.289-2.721 3.12 0.459 0.526-3.185c0.051-0.321 0.056-0.629 0.017-0.915-0.037-0.268-0.122-0.511-0.253-0.722-0.13-0.21-0.303-0.383-0.529-0.529-0.221-0.142-0.513-0.244-0.869-0.303-0.126-0.021-0.254-0.032-0.379-0.032-1.031 0-1.751 0.66-1.926 1.766l-0.069 0.439-2.678-0.423 0.07-0.439c0.115-0.732 0.336-1.374 0.657-1.909 0.325-0.542 0.731-0.983 1.207-1.311 0.476-0.329 1.024-0.552 1.628-0.665 0.305-0.056 0.623-0.085 0.946-0.085 0.304 0 0.622 0.026 0.942 0.076 0.712 0.113 1.347 0.336 1.886 0.662 0.543 0.33 0.989 0.744 1.324 1.231 0.334 0.486 0.565 1.044 0.685 1.659 0.118 0.605 0.125 1.252 0.019 1.921" fill-opacity=".58824"/>
   </g>
  </g>
 </g>
 <g id="ab" transform="matrix(20.985 0 0 -20.985 -8884.4 5449)">
  <g id="ac" clip-path="url(#d)">
   <g id="ad" transform="translate(427 256.16)">
    <path id="ae" d="m0 0c-0.303-0.239-0.732-0.391-1.203-0.391-1.069-1e-3 -1.54 0.633-1.541 1.484-1e-3 0.868 0.59 1.502 1.495 1.503 0.824 0 1.253-0.454 1.28-1.11l-0.672-0.153c-0.027 0.369-0.195 0.596-0.602 0.596-0.45 0-0.721-0.347-0.72-0.814 0-0.455 0.25-0.84 0.851-0.839 0.282 0 0.613 0.152 0.819 0.315z" fill="#fff"/>
   </g>
   <g id="af" transform="translate(428.71 257.15)">
    <path id="ag" d="m0 0c-0.063 0.027-0.163 0.064-0.294 0.064-0.273 0-0.441-0.123-0.441-0.437 0-0.245 0.105-0.394 0.315-0.394 0.163 0 0.331 0.107 0.42 0.218zm-1.299 1.453c0.168 0.059 0.562 0.15 0.909 0.15 0.557 0 0.977-0.138 1.099-0.718 0.037-0.16 0.053-0.341 0.053-0.549v-0.921c0-0.128 0.032-0.213 0.147-0.213 0.037 0 0.079 0.01 0.137 0.027l0.058-0.491c-0.152-0.064-0.347-0.096-0.494-0.096-0.262 0-0.42 0.117-0.483 0.319-0.158-0.149-0.431-0.314-0.793-0.314-0.578-1e-3 -0.852 0.398-0.852 0.899-1e-3 0.65 0.367 0.997 1.087 0.997 0.157 0 0.268-0.016 0.431-0.053v0.08c-1e-3 0.32-0.216 0.437-0.51 0.437-0.258-1e-3 -0.494-0.065-0.678-0.124z" fill="#fff"/>
   </g>
   <g id="ah" transform="translate(430.86 258.68)">
    <path id="ai" d="m0 0v-0.347c0.2 0.233 0.515 0.396 0.911 0.396 0.732 1e-3 1.052-0.552 1.052-1.251l1e-3 -0.759c0-0.163 0.044-0.288 0.195-0.287 0.092 0 0.195 0.038 0.288 0.087l0.033-0.602c-0.141-0.071-0.369-0.125-0.618-0.125-0.423-1e-3 -0.657 0.216-0.657 0.747l-1e-3 0.813c0 0.418-0.195 0.678-0.575 0.678-0.32 0-0.542-0.272-0.628-0.499l1e-3 -1.687h-0.759l-2e-3 2.836z" fill="#fff"/>
   </g>
   <g id="aj" transform="translate(435.09 257.15)">
    <path id="ak" d="m0 0c-0.063 0.026-0.163 0.064-0.294 0.064-0.274-1e-3 -0.442-0.123-0.441-0.438 0-0.245 0.105-0.394 0.315-0.394 0.163 1e-3 0.331 0.107 0.421 0.219zm-1.299 1.453c0.168 0.059 0.562 0.15 0.909 0.15 0.557 0 0.977-0.138 1.099-0.718 0.036-0.16 0.052-0.341 0.053-0.549v-0.922c0-0.127 0.032-0.213 0.147-0.213 0.037 0 0.079 0.011 0.137 0.027l0.058-0.49c-0.152-0.064-0.346-0.096-0.493-0.096-0.263 0-0.421 0.117-0.484 0.319-0.158-0.149-0.431-0.314-0.793-0.315-0.578 0-0.852 0.399-0.852 0.9-1e-3 0.65 0.367 0.997 1.087 0.997 0.158 0 0.268-0.016 0.431-0.053l-1e-3 0.08c0 0.319-0.215 0.436-0.509 0.436-0.258 0-0.494-0.064-0.678-0.123z" fill="#fff"/>
   </g>
   <g id="al" transform="translate(437.22 259.5)">
    <path id="am" d="m0 0 2e-3 -2.751c0-0.195 0.076-0.309 0.233-0.309 0.108 0 0.206 0.039 0.303 0.087l0.039-0.601c-0.13-0.055-0.374-0.125-0.64-0.126-0.423 0-0.694 0.206-0.694 0.764l-2e-3 2.936z" fill="#fff"/>
   </g>
   <g id="an" transform="translate(436.71 250.17)">
    <path id="ao" d="m0 0-0.684 5.026h-5.929l0.289-2.721 3.12 0.459 0.526-3.185c0.051-0.321 0.056-0.629 0.017-0.915-0.037-0.268-0.122-0.511-0.253-0.722-0.13-0.21-0.303-0.383-0.529-0.529-0.221-0.142-0.513-0.244-0.869-0.303-0.126-0.021-0.254-0.032-0.379-0.032-1.031 0-1.751 0.66-1.926 1.766l-0.069 0.439-2.678-0.423 0.07-0.439c0.115-0.732 0.336-1.374 0.657-1.909 0.325-0.542 0.731-0.983 1.207-1.311 0.476-0.329 1.024-0.552 1.628-0.665 0.305-0.056 0.623-0.085 0.946-0.085 0.304 0 0.622 0.026 0.942 0.076 0.712 0.113 1.347 0.336 1.886 0.662 0.543 0.33 0.989 0.744 1.324 1.231 0.334 0.486 0.565 1.044 0.685 1.659 0.118 0.605 0.125 1.252 0.019 1.921" fill="#fff"/>
   </g>
  </g>
 </g>
</svg>
