<svg class="channel channel--svg caz2" width="800" height="223.1" role="img" version="1.1" viewBox="0 0 800 223.1" xmlns="http://www.w3.org/2000/svg">
 <path d="m678.33 66.725c1.0522-20.727 19.268-37.032 40.816-35.096 19.258 1.7395 34.203 18.338 33.945 37.51-0.0981 7.2765-2.2172 14.137-6.1372 19.845-10.228 14.908-73.868 103.73-95.365 133.73-0.15923 0.23274-0.41653 0.35525-0.69947 0.35525h-17.297c-0.42755 0-0.67375-0.47776-0.42755-0.82076 9.909-13.817 89.841-125.34 101.15-141.81 2.1192-3.0993 3.321-6.86 3.4667-10.939 0.40458-10.817-7.3255-20.605-18.069-22.503-13.364-2.3643-25.064 7.2643-26.079 19.833-0.0334 0.36753-0.33181 0.66148-0.71049 0.66148h-13.856c-0.4166 0-0.75949-0.35524-0.73379-0.77175z" fill="#615f5f" fill-rule="evenodd"/>
 <path d="m716.55 2.34e-4c37.755 0 68.465 30.478 68.465 67.939 0 14.148-3.8955 27.059-11.27 37.338-16.158 22.516-53.753 74.59-72.007 99.85-0.24369 0.34303 0.0134 0.80851 0.42995 0.80851l97.094 0.012c0.40392 0 0.72278 0.32954 0.72278 0.72276v15.705c0 0.39076-0.31846 0.72275-0.72278 0.72275h-130.51c-0.44197 0-0.69947-0.50226-0.44197-0.8575 0 0 69.825-96.628 91.448-126.78 5.3042-7.3868 8.1095-16.905 8.1095-27.514 0-28.127-23.055-51.009-51.401-51.009-27.967 0-50.776 22.269-51.389 49.87-0.012 0.37975-0.31852 0.69825-0.7105 0.69825h-15.533c-0.40425 0-0.74725-0.34303-0.73648-0.74725 0.63851-36.922 31.092-66.763 68.455-66.763z" fill="#36312c" fill-rule="evenodd"/>
 <path d="m799.28 176.52c0.40459 0 0.72278 0.33194 0.72278 0.72398h-0.0267v14.491c0 0.40425-0.31712 0.72398-0.7215 0.72398h-72.545c-0.44063 0-0.71049-0.51454-0.44063-0.86976l10.62-14.616c0.2083-0.28054 0.54011-0.45325 0.89422-0.45325z" fill="#93908f" fill-rule="evenodd"/>
 <path d="m301.78 137.16c0.26952-0.55126 1.0658-0.55126 1.3475 0l42.691 85.923h-17.652l-25.039-50.398c-0.26952-0.55126-1.0658-0.55126-1.3475 0l-25.039 50.398h-17.652zm302.07-110.15c0.42754-0.59906 1.3708-0.29275 1.3708 0.44224v24.831c0 0.15923-0.0614 0.30624-0.14574 0.44097l-87.81 122.61c-0.35525 0.50226 0 1.2005 0.62476 1.2005h86.584c0.41527 0 0.74604 0.33074 0.74604 0.74603v14.407c0 0.41653-0.34176 0.75827-0.75828 0.75827h-117.61c-0.62477 0-0.98-0.69702-0.62477-1.1993zm-492.31 37.021c13.438 0 25.97 5.3288 35.194 13.939 0.30624 0.28174 0.31852 0.78522 0.012 1.078l-10.119 10.082c-0.29402 0.283-0.74726 0.283-1.0412 0.0134-6.37-5.7943-14.957-9.3713-24.047-9.3713-18.314 0-33.161 14.541-33.161 32.463 0 17.933 14.847 32.463 33.161 32.463 9.0895 0 17.689-3.577 24.047-9.3725 0.30624-0.28054 0.7595-0.26825 1.0412 0.0134l10.119 10.106c0.30624 0.29275 0.29403 0.784-0.012 1.078-9.2243 8.6106-21.756 13.941-35.194 13.941-27.048 0-48.988-21.585-48.988-48.217 0-26.63 21.928-48.215 48.988-48.215z" fill="#c7eb13" fill-rule="evenodd"/>
 <path d="m301.78 69.666c0.26952-0.55126 1.0658-0.55126 1.3475 0l76.232 153.42h-17.652l-58.58-117.89c-0.26952-0.55126-1.0658-0.55126-1.3475 0l-58.58 117.89h-17.652zm244.19-37.682c0.62476 0 0.98 0.69947 0.62476 1.2005l-117.61 164.21c-0.42995 0.60026-1.3855 0.30624-1.3977-0.43977v-24.806c0-0.15923 0.0487-0.31973 0.14701-0.44224l87.808-122.6c0.35525-0.50106 0-1.2005-0.62476-1.2005h-86.582c-0.41653 0-0.74848-0.33074-0.74848-0.74726v-14.418c0-0.41646 0.34423-0.75949 0.7595-0.75949zm-434.41 0.83397c22.075 0 42.446 8.8323 57.33 23.102 0.30624 0.29523 0.30624 0.78523 0.012 1.078l-10.119 10.082c-0.29402 0.29522-0.75951 0.29522-1.0535 0.0134-12.017-11.442-28.445-18.51-46.17-18.51-35.599 0-64.447 28.492-64.447 63.651 0 35.158 28.849 63.651 64.447 63.651 17.714 0 34.141-7.0695 46.17-18.511 0.30624-0.28053 0.75951-0.26825 1.0535 0.0134l10.131 10.07c0.29402 0.29403 0.29402 0.78278-0.012 1.078-14.896 14.271-35.256 23.09-57.342 23.09-44.333 0-80.274-35.548-80.274-79.405 0-43.854 35.942-79.404 80.274-79.404z" fill="#b3d40d" fill-rule="evenodd"/>
 <path d="m301.78 2.168c0.26952-0.55126 1.0658-0.55126 1.3475 0l109.77 220.92h-17.651l-92.12-185.39c-0.26952-0.55126-1.0658-0.55126-1.3475 0l-92.12 185.39h-17.652zm-190.23-0.56387c30.723 0 58.923 12.324 79.478 32.254 0.29403 0.29402 0.29403 0.784 0 1.078l-10.119 10.082c-0.29402 0.29522-0.7595 0.29522-1.0535 0.012-17.689-17.089-41.944-27.661-68.306-27.661-52.859 0-95.722 42.471-95.722 94.852s42.851 94.852 95.722 94.852c26.362 0 50.617-10.572 68.306-27.661 0.29402-0.28053 0.75951-0.28053 1.0535 0.012l10.131 10.082c0.30625 0.29523 0.30625 0.78401 0 1.078-20.556 19.931-48.755 32.254-79.478 32.254-61.618 4.9e-4 -111.56-49.513-111.56-110.61 0-61.091 49.943-110.61 111.55-110.63zm491.23-0.24475 0.61248 0.96775c0.61249 0 0.96776 0.686 0.61249 1.1882l-145 202.47c-0.35524 0.50105 0 1.187 0.61248 1.187h144.86c0.41653 0 0.74602 0.33074 0.74602 0.74848v13.192c0 0.40425-0.32954 0.74725-0.74602 0.74725h-175.41c-0.61248 0-0.96776-0.69826-0.61248-1.1882l144.82-202.21c0.35525-0.50226 0-1.1882-0.61248-1.1882h-144.31c-0.41526 0-0.74725-0.33074-0.74725-0.74726v-14.418c0-0.41646 0.33194-0.74724 0.74725-0.74724z" fill="#a0c20b" fill-rule="evenodd"/>
</svg>
