<?xml version="1.0" encoding="UTF-8"?>
<svg id="svg28" width="211.67mm" height="47.084mm" version="1.1" viewBox="0 0 211.67 47.084" xmlns="http://www.w3.org/2000/svg" xmlns:cc="http://creativecommons.org/ns#" xmlns:dc="http://purl.org/dc/elements/1.1/" xmlns:rdf="http://www.w3.org/1999/02/22-rdf-syntax-ns#">
 <metadata id="metadata34">
  <rdf:RDF>
   <cc:Work rdf:about="">
    <dc:format>image/svg+xml</dc:format>
    <dc:type rdf:resource="http://purl.org/dc/dcmitype/StillImage"/>
    <dc:title/>
   </cc:Work>
  </rdf:RDF>
 </metadata>
 <defs id="defs32">
  <clipPath id="clipPath1804">
   <path id="path1802" d="m54.855 469.69h34.453v7.664h-34.453z"/>
  </clipPath>
  <radialGradient id="radialGradient1794" cx="0" cy="0" r="1" gradientTransform="matrix(5.6237 0 0 -5.6237 58.687 475.27)" gradientUnits="userSpaceOnUse">
   <stop id="stop1790" stop-color="#f00" offset="0"/>
   <stop id="stop1792" stop-color="#a30000" offset="1"/>
  </radialGradient>
  <clipPath id="clipPath1772">
   <path id="path1770" d="m54.855 469.69h34.453v7.664h-34.453z"/>
  </clipPath>
  <linearGradient id="linearGradient1762" x2="1" gradientTransform="matrix(0 -7.4102 -7.4102 0 73.998 477.19)" gradientUnits="userSpaceOnUse">
   <stop id="stop1756" stop-color="#c8c8c8" offset="0"/>
   <stop id="stop1758" stop-color="#6e6e6e" offset=".84936"/>
   <stop id="stop1760" stop-color="#898989" offset="1"/>
  </linearGradient>
  <clipPath id="clipPath1738">
   <path id="path1736" d="m54.855 469.69h34.453v7.664h-34.453z"/>
  </clipPath>
 </defs>
 <g id="g1732" transform="matrix(6.1437 0 0 -6.1437 -337.01 2932.7)">
  <g id="g1734" clip-path="url(#clipPath1738)">
   <g id="g1740" transform="translate(85.476 469.69)">
    <path id="path1742" d="m0 0c2.117 0 3.832 1.716 3.832 3.832 0 2.117-1.715 3.833-3.832 3.833h-26.789v-7.665z" fill="#ccc"/>
   </g>
  </g>
 </g>
 <g id="g1744" transform="matrix(6.1437 0 0 -6.1437 -337.01 2932.7)">
  <g id="g1746">
   <g id="g1752">
    <g id="g1754">
     <path id="path1764" d="m58.814 477.23v-7.411h26.662c2.043 0 3.705 1.663 3.705 3.706s-1.662 3.705-3.705 3.705z" fill="url(#linearGradient1762)"/>
    </g>
   </g>
  </g>
 </g>
 <g id="g1766" transform="matrix(6.1437 0 0 -6.1437 -337.01 2932.7)">
  <g id="g1768" clip-path="url(#clipPath1772)">
   <g id="g1774" transform="translate(54.855 473.52)">
    <path id="path1776" d="m0 0c0-2.117 1.716-3.832 3.832-3.832 2.117 0 3.833 1.715 3.833 3.832s-1.716 3.832-3.833 3.832c-2.116 0-3.832-1.715-3.832-3.832" fill="#f00001"/>
   </g>
  </g>
 </g>
 <g id="g1778" transform="matrix(6.1437 0 0 -6.1437 -337.01 2932.7)">
  <g id="g1780">
   <g id="g1786">
    <g id="g1788">
     <path id="path1796" d="m54.988 473.52c0-2.043 1.656-3.7 3.699-3.7s3.699 1.657 3.699 3.7-1.656 3.699-3.699 3.699-3.699-1.656-3.699-3.699" fill="url(#radialGradient1794)"/>
    </g>
   </g>
  </g>
 </g>
 <g id="g1798" transform="matrix(6.1437 0 0 -6.1437 -337.01 2932.7)">
  <g id="g1800" clip-path="url(#clipPath1804)">
   <g id="g1806" transform="translate(60.298 471.55)">
    <path id="path1808" d="m0 0c-0.237 4e-3 -0.279 0.16-0.118 0.684l0.363 1.247c0.17 0.585 0.312 1.346-0.627 1.361-0.58 9e-3 -1.051-0.335-1.416-0.726l0.741 2.439-1.804-0.124-0.105-0.357c0.603-0.01 0.8-0.127 0.655-0.599l-1.341-4.379 0.96-0.012 0.555 1.9c0.201 0.669 0.821 1.208 1.21 1.202 0.328-5e-3 0.371-0.181 0.298-0.478-0.025-0.099-0.049-0.19-0.074-0.289l-0.363-1.246c-0.282-0.934 0.09-1.148 0.639-1.156 0.371-6e-3 0.642 0.152 0.811 0.262l0.145 0.415c-0.177-0.073-0.331-0.147-0.529-0.144" fill="#fff"/>
   </g>
   <g id="g1810" transform="translate(64.541 471.79)">
    <path id="path1812" d="m0 0h-0.742l0.601 2.128c0.11 0.38-0.049 0.472-0.533 0.472l0.079 0.288 1.459 0.123-0.864-3.011m0.613 3.354c-0.251 0-0.398 0.208-0.331 0.46 0.068 0.227 0.313 0.417 0.552 0.417 0.252 0 0.417-0.202 0.343-0.454-0.067-0.239-0.325-0.423-0.564-0.423" fill="#fff"/>
   </g>
   <g id="g1814" transform="translate(68.85 474.05)">
    <path id="path1816" d="m0 0c-0.098 0.074-0.184 0.16-0.288 0.221s-0.239 0.11-0.392 0.11c-0.191 0-0.405-0.067-0.466-0.288-0.056-0.19 0.104-0.307 0.257-0.417 0.067-0.043 0.141-0.086 0.209-0.135 0.288-0.19 0.588-0.447 0.441-0.95-0.178-0.626-0.779-0.871-1.398-0.871-0.294 0-0.521 0.043-0.834 0.129l0.178 0.613c0.22-0.178 0.435-0.356 0.754-0.356 0.362 0 0.533 0.178 0.582 0.356 0.062 0.196-0.091 0.325-0.257 0.435-0.356 0.252-0.822 0.466-0.662 1.024 0.129 0.46 0.564 0.846 1.312 0.846 0.264 0 0.484-0.055 0.736-0.116l-0.172-0.601" fill="#fff"/>
   </g>
   <g id="g1818" transform="translate(72.446 474.35)">
    <path id="path1820" d="m0 0h-0.803l-0.491-1.711c-0.122-0.423-0.129-0.533 0.27-0.533 0.067 0 0.141 6e-3 0.319 0.049l-0.111-0.38c-0.183-0.031-0.331-0.055-0.472-0.055-0.594 0-0.981 0.104-0.766 0.858l0.509 1.772h-0.478l0.104 0.368h0.478l0.129 0.454 0.926 0.644-0.313-1.098h0.803l-0.104-0.368" fill="#fff"/>
   </g>
   <g id="g1822" transform="translate(75.105 474.44)">
    <path id="path1824" d="m0 0c-0.552 0-0.797-0.675-0.957-1.22-0.159-0.546-0.282-1.177 0.227-1.177 0.546 0 0.779 0.594 0.957 1.213 0.172 0.601 0.27 1.184-0.227 1.184m-0.785-2.722c-1.055 0-1.214 0.68-0.962 1.538 0.294 1.025 0.876 1.509 1.802 1.509 0.951 0 1.22-0.656 0.963-1.545-0.288-0.999-0.865-1.502-1.803-1.502" fill="#fff"/>
   </g>
   <g id="g1826" transform="translate(78.242 471.79)">
    <path id="path1828" d="m0 0h-0.742l0.601 2.128c0.11 0.38-0.049 0.472-0.533 0.472l0.08 0.288 1.459 0.123-0.865-3.011m0.613 3.354c-0.251 0-0.399 0.208-0.331 0.46 0.068 0.227 0.313 0.417 0.552 0.417 0.251 0 0.417-0.202 0.343-0.454-0.067-0.239-0.325-0.423-0.564-0.423" fill="#fff"/>
   </g>
   <g id="g1830" transform="translate(82.79 473.96)">
    <path id="path1832" d="m0 0c-0.098 0.037-0.221 0.092-0.331 0.092-0.564 0-0.846-0.313-1.024-0.92l-0.392-1.343h-0.742l0.601 2.091c0.11 0.38-0.05 0.466-0.534 0.466l0.08 0.288 1.459 0.129-0.227-0.631 0.043-0.013c0.258 0.472 0.552 0.644 0.871 0.644 0.116 0 0.233-0.012 0.398-0.043l-0.202-0.76" fill="#fff"/>
   </g>
   <g id="g1834" transform="translate(85.478 474.46)">
    <path id="path1836" d="m0 0c-0.374 0-0.65-0.35-0.724-0.644h1c0.098 0.288 0.116 0.644-0.276 0.644m-0.834-0.981c-0.135-0.57-0.104-1.294 0.668-1.294 0.246 0 0.473 0.049 0.699 0.129l-0.116-0.411c-0.325-0.104-0.638-0.166-0.963-0.166-0.987 0-1.41 0.607-1.116 1.637 0.282 0.975 0.889 1.411 1.742 1.411 0.907 0 1.085-0.528 0.833-1.306z" fill="#fff"/>
   </g>
  </g>
 </g>
</svg>
