<?xml version="1.0" encoding="UTF-8"?>
<!-- Generator: Adobe Illustrator 17.0.0, SVG Export Plug-In . SVG Version: 6.00 Build 0)  -->
<!DOCTYPE svg  PUBLIC '-//W3C//DTD SVG 1.1//EN'  'http://www.w3.org/Graphics/SVG/1.1/DTD/svg11.dtd'>
<svg id="Calque_1" width="150px" height="150px" enable-background="new 0 0 150 150" version="1.1" viewBox="0 0 150 150" xml:space="preserve" xmlns="http://www.w3.org/2000/svg">
<g id="_x23_ff2354ff">
	<path d="M70.63,0h8.6c18.21,1.14,35.97,8.93,48.82,21.94C141.03,34.75,148.8,52.44,150,70.6v8.65   c-1.15,18.22-8.94,35.97-21.96,48.81c-12.81,12.98-30.5,20.74-48.65,21.94h-8.63c-18.22-1.15-35.97-8.94-48.82-21.95   C8.96,115.24,1.2,97.55,0,79.39v-8.63c1.14-18.23,8.95-35.99,21.98-48.85C34.79,8.95,52.48,1.19,70.63,0" fill="#FF2354"/>
</g>
<g id="_x23_fbe121ff" fill="#FBE121">
	<path d="m43.6 23.72c4.51-2.54 10.47-2.11 14.58 1.04 3.5 2.56 5.56 6.87 5.44 11.2 0.07 17.04-0.11 34.09 0.09 51.12-0.02 0.2-0.07 0.6-0.09 0.8-1.14 6.54 1.79 13.76-1.85 19.83-3.47 6.29-12.25 8.66-18.4 4.94-4.46-2.45-7.1-7.54-6.87-12.59 0-21.36-0.02-42.72 0.01-64.08-0.14-4.99 2.68-9.91 7.09-12.26z"/>
	<path d="m90.58 58.62c5.12-5.15 14.39-4.9 19.23 0.53 4.86 4.94 4.84 13.64-0.04 18.56-4.5 4.6-9.05 9.15-13.66 13.64-3.4-3.4-6.7-6.9-10.23-10.17-4.47-4.15-11.77-4.35-16.76-1 7.01-7.32 14.28-14.4 21.46-21.56z"/>
	<path d="m90.07 105.1c4.32-4.79 11.97-5.5 17.35-2.1 6.8 4.44 8.14 14.98 2.3 20.74-5.51 6.14-16.22 5.25-20.89-1.46-3.57-5.15-3.2-12.66 1.24-17.18z"/>
</g>
<g id="_x23_671d75ff">
	<path d="m69.12 80.18c4.99-3.35 12.29-3.15 16.76 1 3.53 3.27 6.83 6.77 10.23 10.17 3.69 3.96 7.84 7.49 11.31 11.65-5.38-3.4-13.03-2.69-17.35 2.1-4.44 4.52-4.81 12.03-1.24 17.18-7.25-6.78-14.09-14-21.17-20.96-3.7-3.37-4.82-8.63-4.04-13.44 0.02-0.2 0.07-0.6 0.09-0.8 1.46-2.54 3.1-5.05 5.41-6.9z" fill="#671D75"/>
</g>
</svg>
