<svg width="841.43mm" height="198.77mm" version="1.1" viewBox="0 0 841.43 198.77" xmlns="http://www.w3.org/2000/svg">
 <g transform="translate(-.61487 -97.119)">
  <g transform="matrix(1.6565 0 0 1.6595 -204.33 -88.808)" fill="#a00">
   <g transform="matrix(1.0018 0 0 .98726 41.789 -67.012)" fill="#2b6872" aria-label="PLAY MORE">
    <path d="m271.91 237.57 14.683-0.096c5.5155-0.0361 7.5878-2.7443 7.5878-7.9362v-0.2225c0-4.9694-2.6853-7.521-8.2009-7.4911l-5.1883 0.0281-0.10005-24.26c-0.0233-5.6368-2.6852-8.3812-7.7655-8.3812h-2.5401c-4.8625 0-7.431 2.7445-7.4751 8.3812l-0.23582 30.11c-0.0523 6.675 3.3566 9.9054 9.235 9.8669z" stroke-width="1.7196"/>
    <path d="m316.65 217 4.0127-10.95 4.0127 10.95zm10.998 12.812 0.0743 0.14897c2.5265 6.5548 6.5392 8.6405 10.329 8.6405 5.4246 0 10.329-4.1713 9.6602-5.81l-15.754-38.584c-0.8174-2.8305-2.8238-4.9161-10.998-4.9161-8.174 0-10.552 2.0856-11.369 4.9161l-14.936 38.808c-0.59448 1.6387 4.3842 5.661 9.2886 5.661 3.8641 0 7.6538-2.2346 9.8831-8.4915l0.14861-0.37243z" stroke-width="1.7437"/>
    <path d="m369.29 219.33 16.039-23.061c0.51266-0.7439-2.8563-6.8439-11.132-6.8439-2.9295 0-5.7858 1.711-8.4224 6.3975l-5.4196 9.3731-5.1999-9.3731c-2.4169-4.5378-5.3464-6.3231-8.3491-6.3231-9.228 0-12.231 5.8768-11.718 6.7695l16.259 23.061v10.489c0 5.5048 2.6366 8.406 7.5435 8.406h2.5633c5.1267 0 7.8365-2.9012 7.8365-8.406z" stroke-width="1.73"/>
    <path d="m402.58 238.23h2.9236c5.1164 0 6.9436-2.9017 6.9436-8.4075v-13.169l2.412 8.9283c0.73091 1.8601 0.21926 3.7945 6.7244 3.7945 6.5051 0 6.2127-2.0089 6.8705-3.7945l2.412-9.7467v13.988c0 5.5058 2.0465 8.4075 6.9436 8.4075h2.9236c5.1164 0 6.9436-2.9017 6.9436-8.4075v-32.067c0-5.6546-2.7044-8.4075-7.8207-8.4075h-5.1164c-3.5814 0-5.4087 0.59522-6.9436 4.0921l-6.1396 16.369-6.1396-16.369c-1.3887-3.1993-2.9236-4.0921-7.236-4.0921h-5.1164c-4.8971 0-7.5283 2.7529-7.5283 8.4075v32.067c0 5.5058 2.0465 8.4075 6.9436 8.4075z" stroke-width="1.7284"/>
    <path d="m474.18 238.56c14.737 0 25.316-10.479 25.316-25.017 0-14.464-10.579-24.943-25.316-24.943s-25.389 10.479-25.389 24.943c0 14.538 10.579 25.017 25.389 25.017zm0-16.161c-4.888 0-7.8792-3.3946-7.8792-8.8554 0-5.6822 2.9182-8.9292 7.8792-8.9292 4.8151 0 7.8063 3.4684 7.8063 8.9292 0 5.4609-2.9912 8.8554-7.8063 8.8554z" stroke-width="1.7197"/>
    <path d="m518.48 211.97v-8.7051h4.3274c3.5206 0 5.0608 1.488 5.0608 4.3897 0 2.8273-1.6869 4.3153-4.9875 4.3153zm18.483 8.0354c5.7943-2.3809 8.8014-7.3658 8.8014-13.839 0-10.64-6.7478-16.443-20.683-16.443h-15.182c-5.941 0-9.0948 3.4225-9.0948 10.119v27.678c0 6.6962 2.6404 10.714 7.5546 10.714h2.5671c5.1342 0 7.848-2.9017 7.848-8.4075v-5.9522h0.8068l4.6208 6.5474c3.7406 5.2826 6.3811 7.8122 12.175 7.8122 7.7013 0 10.708-5.357 10.195-6.0266z" stroke-width="1.7314"/>
    <path d="m556.17 237.86h24.409c5.7003 0 8.2581-2.2321 8.2581-7.217v-0.37201c0-4.6874-2.5578-6.3986-8.2581-6.3986h-15.566v-3.7945h8.9889c5.8465 0 8.2581-1.9345 8.2581-6.6218v-0.22321c0-4.3897-2.3386-6.1754-8.2581-6.1754h-8.9889v-3.1993h15.274c5.7003 0 8.2581-1.8601 8.2581-6.845v-0.37201c0-4.7618-2.5578-6.9194-8.2581-6.9194h-24.117c-5.9196 0-9.062 3.4225-9.062 10.119v28.05c0 6.6962 3.1425 9.9699 9.062 9.9699z" stroke-width="1.7282"/>
    <path d="m235.44 213.01v-9.9248h3.4654c3.5392 0 5.3825 1.7909 5.3825 4.9997 0 3.1341-1.7696 4.9251-5.0138 4.9251zm0.29493 13.059h4.4977c14.009 0 21.456-5.8952 21.456-17.984 0-12.313-7.742-18.506-22.267-18.506h-12.682c-5.9724 0-9.1429 3.5073-9.1429 10.149v30.073c0 5.5221 2.8019 8.4323 7.5945 8.4323h2.6544c5.1613 0 7.8894-2.9849 7.8894-8.4323z" stroke-width="1.7385"/>
   </g>
   <g transform="scale(1.002 .99804)" fill="#078499" aria-label="Cinema">
    <path d="m259.48 199.73q0-10.8 6.7721-17.679 6.8077-6.9146 17.607-6.9146 8.4829 0 13.33 3.5999 4.8474 3.5642 4.8474 7.0572 0 2.1029-1.5326 3.5286-1.5326 1.39-3.0296 1.8178t-1.6396 0.14257q-1.7465-2.994-4.883-4.7048-3.1009-1.7108-6.6651-1.7108-5.9879 0-9.873 4.1345-3.8494 4.0989-3.8494 10.693 0 6.5582 3.885 10.728 3.9207 4.1345 9.9086 4.1345 4.0989 0 7.2354-1.889t4.5266-5.2394q0.14257-0.28514 1.7108 0.14257 1.5683 0.42771 3.1365 1.8178 1.5683 1.39 1.5683 3.493 0 3.7068-5.0612 7.5562-5.0256 3.8494-13.758 3.8494-10.728 0-17.5-6.8433-6.7364-6.8433-6.7364-17.714z" stroke-width="1.7108"/>
    <path d="m307.53 176.85q0-2.4423 1.5326-3.8071 1.5326-1.4007 4.2414-1.4007t4.2414 1.3648 1.5326 3.879q0 2.4782-1.5326 3.879-1.5326 1.4007-4.2414 1.4007t-4.2414-1.4007-1.5326-3.9149zm0.60592 42.525v-26.614q0-4.9924 4.5979-5.0283h1.0693q4.5979 0 4.6335 5.0283v26.614q0 4.9206-4.5266 4.9206h-1.1049q-4.6692 0-4.6692-4.9206z" stroke-width="1.7174"/>
    <path d="m326.56 219.26v-30.225q0-0.14257 0.499-0.4277 0.49899-0.28514 1.4257-0.499 0.96235-0.24949 1.9247-0.24949 5.2394 0 6.2018 5.8454 4.2414-6.2731 11.762-6.2731 6.6295 0 9.9086 4.0989 3.3147 4.0632 3.3147 10.657v17.073q0 4.883-4.5266 4.883h-1.1049q-4.6692 0-4.6692-4.883v-15.54q0-3.5642-1.7108-5.5958-1.7108-2.0673-4.883-2.0673-5.4176 0-7.877 4.6692v18.534q0 4.883-4.5266 4.883h-1.0693q-4.6692 0-4.6692-4.883z" stroke-width="1.7108"/>
    <path d="m367.32 206.35q0-8.1621 5.2394-13.508 5.2751-5.382 13.402-5.382 7.877 0 12.796 4.9899 4.9186 4.9543 4.9186 12.831v0.71284q-0.0713 1.4613-0.60592 2.1742-0.49899 0.67721-1.8534 0.67721h-24.629q0.49899 3.9563 3.3147 6.2374 2.8158 2.2455 7.0572 2.2455 7.0216 0 10.087-5.2751 0.0713-0.14257 1.2475 0.17821 1.2118 0.28514 2.4593 1.4613 1.2475 1.1406 1.2475 2.9583 0 3.1365-4.2058 5.6671-4.1702 2.5306-11.192 2.5306-8.768 0-14.043-5.0256-5.2394-5.0612-5.2394-13.473zm9.267-3.493h17.536q-0.14257-3.7068-2.388-5.9523-2.2098-2.2811-5.9523-2.2811-3.5642 0-6.0948 2.3168-2.5306 2.2811-3.1009 5.9166z" stroke-width="1.7108"/>
    <path d="m409.26 219.2v-30.225q0-0.14257 0.499-0.4277 0.49899-0.28514 1.4257-0.499 0.96235-0.24949 1.9247-0.24949 5.2394 0 6.2018 5.7028 4.1702-6.1305 11.014-6.1305 8.6968 0 11.406 7.3067 4.3127-7.3067 12.047-7.3067 6.5582 0 9.6947 3.8137 3.1365 3.7781 3.1365 10.336v17.679q0 4.883-4.5266 4.883h-1.0693q-4.6692 0-4.6692-4.883v-16.003q0-7.2354-6.2374-7.1998-2.1742 0-4.0989 1.2118-1.889 1.1762-2.9583 3.1722v18.819q0 4.883-4.5266 4.883h-1.0336q-4.7404 0-4.7404-4.883v-15.754q0-7.4493-6.1305-7.4493-2.1742 0-4.0989 1.2118-1.889 1.1762-2.994 3.1722v18.819q0 4.883-4.5266 4.883h-1.0693q-4.6692 0-4.6692-4.883z" stroke-width="1.7108"/>
    <path d="m472.14 214.56q0-6.2084 5.5958-9.1682 5.5959-2.9598 17.322-3.1042h1.1762q0-7.183-7.3067-7.183-6.2018 0-8.8037 5.5587 0 0.21657-1.6752 0.0722-1.6396-0.14438-3.3147-1.2633-1.6752-1.119-1.6752-3.2486 0-3.6817 4.2414-6.3167t11.905-2.635q16.788 0 16.788 14.871v21.368q0 0.36095-1.2118 0.758-1.2118 0.39704-2.6732 0.39704-5.1682 0-6.0592-5.667-4.0989 5.9918-12.332 5.9918-5.5602 0-8.768-2.8876t-3.2078-7.5439zm9.8729-0.75801q0 1.9852 1.497 3.1764t4.0276 1.1912q3.7781 0 6.2374-2.274 2.4593-2.3101 2.4593-5.8475v-2.0935l-1.889 0.10829q-6.2018 0.14438-9.267 1.516-3.0652 1.3355-3.0652 4.2232z" stroke-width="1.7217"/>
   </g>
   <g transform="matrix(.20331 0 0 .20096 123.32 172.28)" fill="#a00">
    <g transform="matrix(28.48 0 0 28.98 -1716.1 -4776.9)" fill="#2b6872">
     <g transform="matrix(3.0561 0 0 3.0813 -153.4 -354.39)" fill="#2b6872">
      <g transform="matrix(.35278 0 0 -.35278 75.685 170.04)">
       <path d="m0 0c-0.139-1.131-1.025-2.02-2.174-2.157 0 0-1.825-0.278-4.51-0.278s-4.509 0.278-4.509 0.278c-1.149 0.137-2.035 1.026-2.175 2.157 0 0-0.277 2.015-0.277 4.412s0.277 4.412 0.277 4.413c0.14 1.13 1.026 2.019 2.175 2.155 0 0 1.824 0.279 4.509 0.279s4.51-0.279 4.51-0.279c1.149-0.136 2.035-1.025 2.174-2.155 0-1e-3 0.278-2.016 0.278-4.413s-0.278-4.412-0.278-4.412m2.552 10.509c-0.193 1.561-1.417 2.791-3.005 2.979 0 0-2.521 0.384-6.231 0.384s-6.231-0.384-6.231-0.384c-1.588-0.188-2.812-1.418-3.004-2.979 0 0-0.384-2.786-0.384-6.097s0.384-6.096 0.384-6.097c0.192-1.561 1.416-2.791 3.004-2.979 0 0 2.521-0.385 6.231-0.385s6.231 0.385 6.231 0.385c1.588 0.188 2.812 1.418 3.005 2.979 0 1e-3 0.384 2.786 0.384 6.097s-0.384 6.097-0.384 6.097" fill="#2b6872"/>
      </g>
      <g transform="matrix(.35278 0 0 -.35278 73.688 167.86)">
       <path d="m0 0c0.42 0.058 0.831 0.084 1.321 0.075 0.474-0.01 0.974-0.055 1.417-0.135 0 0 0.145-0.034 0.145 0.118v0.983c0 0.09-0.116 0.119-0.116 0.119-0.486 0.125-0.967 0.195-1.443 0.205-0.448 8e-3 -0.895-0.036-1.341-0.131 0 0-0.112-0.034-0.112-0.131v-0.972c0-0.18 0.129-0.131 0.129-0.131" fill="#2b6872"/>
      </g>
      <path d="m72.456 168.08s0.52917-7.1e-4 0.52917-0.43744c0-0.43674-0.52917-0.43709-0.52917-0.43709s-0.52952 3.5e-4 -0.52952 0.43709 0.52952 0.43744 0.52952 0.43744"/>
      <g transform="matrix(.35278 0 0 -.35278 74.746 168.96)">
       <path d="m0 0c-0.521-0.322-2.042-1.143-4.016-1.143-1.973 0-3.495 0.821-4.016 1.143 0 0-0.194 0.136-0.194-0.117v-0.503c0-0.152 0.171-0.311 0.171-0.311 0.514-0.395 2.124-1.501 4.039-1.502 1.915 1e-3 3.524 1.107 4.039 1.502 0 0 0.172 0.159 0.172 0.311v0.503c0 0.253-0.195 0.117-0.195 0.117" fill="#2b6872"/>
      </g>
     </g>
    </g>
   </g>
  </g>
 </g>
</svg>
