<svg id="a" width="841.97mm" height="198.77mm" version="1.1" viewBox="0 0 841.97 198.77" xmlns="http://www.w3.org/2000/svg">
 <g id="b" fill="#fff">
  <g id="c">
   <g id="d" transform="matrix(17.046 0 0 -17.046 168.39 145.93)">
    <path id="e" d="m0 0c-0.084-0.696-0.621-1.245-1.318-1.329 0 0-1.105-0.171-2.732-0.171s-2.732 0.171-2.732 0.171c-0.697 0.084-1.233 0.633-1.318 1.329 0 0-0.168 1.242-0.168 2.719s0.168 2.719 0.168 2.719c0.085 0.697 0.621 1.245 1.318 1.329 0 0 1.105 0.172 2.732 0.172s2.732-0.172 2.732-0.172c0.697-0.084 1.234-0.632 1.318-1.328 0 0 0.168-1.243 0.168-2.72s-0.168-2.719-0.168-2.719m1.546 6.477c-0.117 0.962-0.858 1.72-1.821 1.836 0 0-1.527 0.237-3.775 0.237s-3.775-0.237-3.775-0.237c-0.962-0.116-1.704-0.874-1.82-1.836-1e-3 0-0.233-1.717-0.233-3.758 0-2.04 0.232-3.757 0.233-3.757 0.116-0.963 0.858-1.72 1.82-1.836 0 0 1.527-0.237 3.775-0.237s3.775 0.237 3.775 0.237c0.963 0.116 1.704 0.873 1.821 1.836 0 0 0.233 1.717 0.233 3.757 0 2.041-0.233 3.758-0.233 3.758" fill="#fff"/>
   </g>
   <g id="f" transform="matrix(17.046 0 0 -17.046 140.09 80.3)">
    <path id="g" d="m0 0v0.606l-0.071 0.073c-0.294 0.077-0.586 0.12-0.876 0.126-0.272 5e-3 -0.543-0.022-0.814-0.081l-0.067-0.08v-0.599c0-0.112 0.078-0.081 0.078-0.081 0.255 0.036 0.504 0.052 0.801 0.047 0.288-7e-3 0.592-0.034 0.861-0.084 0 0 0.088-0.021 0.088 0.073" fill="#fff"/>
   </g>
   <g id="h" transform="matrix(17.046 0 0 -17.046 89.634 74.163)">
    <path id="i" d="m0 0c0 0.763-0.91 0.764-0.91 0.764s-0.911-1e-3 -0.911-0.764 0.911-0.764 0.911-0.764 0.91 1e-3 0.91 0.764" fill="#fff"/>
   </g>
   <g id="j" transform="matrix(17.046 0 0 -17.046 99.691 138.94)">
    <path id="k" d="m0 0c-1.162 1e-3 -2.14 0.682-2.452 0.926 0 0-0.104 0.098-0.104 0.191v0.311c0 0.155 0.119 0.071 0.119 0.071 0.316-0.198 1.239-0.704 2.437-0.704s2.121 0.506 2.438 0.704c0 0 0.117 0.084 0.117-0.071v-0.311c0-0.093-0.103-0.191-0.103-0.191-0.313-0.244-1.29-0.925-2.452-0.926" fill="#fff"/>
   </g>
  </g>
  <g id="l">
   <g id="m" transform="matrix(17.046 0 0 -17.046 261.8 52.003)">
    <path id="n" d="m0 0c0.313 0 0.484 0.171 0.484 0.469 0 0.306-0.178 0.477-0.52 0.477h-0.334v-0.946zm-0.342-1.6c0-0.519-0.262-0.804-0.76-0.804h-0.256c-0.463 0-0.733 0.278-0.733 0.804v2.866c0 0.633 0.306 0.967 0.882 0.967h1.223c1.401 0 2.148-0.59 2.148-1.764 0-1.152-0.718-1.714-2.069-1.714h-0.435z" fill="#fff"/>
   </g>
   <g id="o" transform="matrix(17.046 0 0 -17.046 300.83 76.209)">
    <path id="p" d="m0 0v2.88c0 0.541 0.256 0.804 0.733 0.804h0.249c0.497 0 0.76-0.263 0.76-0.804v-2.332h0.496c0.54 0 0.803-0.242 0.803-0.719v-0.021c0-0.498-0.263-0.761-0.803-0.761h-1.356c-0.576 0-0.882 0.313-0.882 0.953" fill="#fff"/>
   </g>
   <g id="q" transform="matrix(17.046 0 0 -17.046 403.45 58.481)">
    <path id="r" d="m0 0-0.384 1.045-0.384-1.045zm-1.024-1.223-0.014-0.036c-0.214-0.597-0.576-0.811-0.946-0.811-0.47 0-0.946 0.385-0.889 0.541l1.43 3.705c0.078 0.271 0.305 0.47 1.088 0.47 0.782 0 0.974-0.199 1.052-0.47l1.508-3.684c0.064-0.156-0.406-0.554-0.925-0.554-0.362 0-0.747 0.199-0.988 0.825l-7e-3 0.014z" fill="#fff"/>
   </g>
   <g id="s" transform="matrix(17.046 0 0 -17.046 477.6 79.277)">
    <path id="t" d="m0 0c0-0.526-0.263-0.804-0.761-0.804h-0.249c-0.477 0-0.733 0.278-0.733 0.804v1.003l-1.578 2.205c-0.05 0.085 0.241 0.647 1.138 0.647 0.291 0 0.575-0.171 0.81-0.605l0.505-0.896 0.526 0.896c0.256 0.448 0.534 0.612 0.818 0.612 0.804 0 1.131-0.583 1.081-0.654l-1.557-2.205z" fill="#fff"/>
   </g>
   <g id="u" transform="matrix(17.046 0 0 -17.046 521.41 79.277)">
    <path id="v" d="m0 0v3.065c0 0.541 0.256 0.804 0.733 0.804h0.497c0.42 0 0.569-0.086 0.704-0.391l0.598-1.565 0.597 1.565c0.15 0.334 0.327 0.391 0.676 0.391h0.498c0.498 0 0.761-0.263 0.761-0.804v-3.065c0-0.526-0.178-0.804-0.676-0.804h-0.284c-0.477 0-0.676 0.278-0.676 0.804v1.337l-0.235-0.932c-0.064-0.17-0.035-0.362-0.668-0.362s-0.583 0.185-0.654 0.362l-0.235 0.854v-1.259c0-0.526-0.178-0.804-0.676-0.804h-0.284c-0.477 0-0.676 0.278-0.676 0.804" fill="#fff"/>
   </g>
   <g id="w" transform="matrix(17.046 0 0 -17.046 664.94 52.685)">
    <path id="x" d="m0 0c0 0.526-0.291 0.861-0.761 0.861-0.484 0-0.768-0.313-0.768-0.861 0-0.526 0.292-0.853 0.768-0.853 0.47 0 0.761 0.327 0.761 0.853m-3.236 0c0 1.394 1.038 2.404 2.475 2.404s2.468-1.01 2.468-2.404c0-1.401-1.031-2.411-2.468-2.411-1.444 0-2.475 1.01-2.475 2.411" fill="#fff"/>
   </g>
   <g id="y" transform="matrix(17.046 0 0 -17.046 732.61 50.299)">
    <path id="z" d="m0 0c0.32 0 0.483 0.142 0.483 0.412 0 0.278-0.149 0.42-0.49 0.42h-0.42v-0.832zm2.297-1.935c0.05-0.064-0.242-0.576-0.988-0.576-0.562 0-0.818 0.242-1.181 0.747l-0.448 0.626h-0.078v-0.569c0-0.526-0.263-0.804-0.761-0.804h-0.249c-0.477 0-0.733 0.384-0.733 1.024v2.646c0 0.64 0.306 0.967 0.882 0.967h1.472c1.352 0 2.006-0.554 2.006-1.571 0-0.619-0.292-1.096-0.854-1.323z" fill="#fff"/>
   </g>
   <g id="aa" transform="matrix(17.046 0 0 -17.046 772.84 76.209)">
    <path id="ab" d="m0 0v2.681c0 0.64 0.306 0.967 0.882 0.967h2.347c0.555 0 0.803-0.206 0.803-0.661v-0.036c0-0.476-0.248-0.654-0.803-0.654h-1.487v-0.306h0.875c0.576 0 0.804-0.17 0.804-0.59v-0.021c0-0.448-0.235-0.633-0.804-0.633h-0.875v-0.363h1.515c0.555 0 0.804-0.164 0.804-0.612v-0.035c0-0.477-0.249-0.69-0.804-0.69h-2.375c-0.576 0-0.882 0.313-0.882 0.953" fill="#fff"/>
   </g>
  </g>
 </g>
 <g id="ac">
  <g id="ad" transform="matrix(17.046 0 0 -17.046 260.44 177.63)">
   <path id="ae" d="m0 0c0.825 0 1.166 0.249 1.166 0.86 0 0.548-0.384 0.825-1.137 0.825h-1.323v-1.685zm-0.014 2.112c0.59 0 0.981 0.327 0.981 0.825 0 0.526-0.334 0.796-1.003 0.796h-1.258v-1.621zm-1.764-2.276v4.061c0 0.149 0.121 0.27 0.271 0.27h1.471c0.975 0 1.501-0.427 1.501-1.209 0-0.483-0.278-0.832-0.797-1.003 0.683-0.149 0.996-0.583 0.996-1.116 0-0.839-0.533-1.273-1.657-1.273h-1.514c-0.15 0-0.271 0.121-0.271 0.27" fill="#63898a"/>
  </g>
  <g id="af" transform="matrix(17.046 0 0 -17.046 301.52 181.89)">
   <path id="ag" d="m0 0v4.601l0.156 0.049c0.157 0 0.306-0.078 0.306-0.448v-4.202c0-0.171-0.085-0.22-0.206-0.22h-0.05c-0.121 0-0.206 0.049-0.206 0.22" fill="#63898a"/>
  </g>
  <g id="ah" transform="matrix(17.046 0 0 -17.046 364.07 162.12)">
   <path id="ai" d="m0 0v0.313l-0.199-7e-3c-1.159-0.043-1.756-0.249-1.756-0.782 0-0.342 0.277-0.562 0.739-0.562 0.697 0 1.216 0.434 1.216 1.038m0 0.796c0 0.583-0.341 0.903-0.953 0.903-0.547 0-0.896-0.277-1.081-0.625 0-7e-3 -0.263 0.021-0.263 0.27 0 0.242 0.484 0.782 1.38 0.782 0.86 0 1.372-0.498 1.372-1.315v-2.134l-0.156-0.049c-0.157 0-0.292 0.078-0.292 0.448v0.128c-0.263-0.391-0.725-0.626-1.266-0.626-0.739 0-1.166 0.377-1.166 0.946 0 0.789 0.79 1.116 2.354 1.152h0.071z" fill="#63898a"/>
  </g>
  <g id="aj" transform="matrix(17.046 0 0 -17.046 383.68 156.15)">
   <path id="ak" d="m0 0c0 1.024 0.747 1.771 1.742 1.771 0.989 0 1.458-0.633 1.458-0.939 0-0.206-0.292-0.249-0.306-0.22-0.178 0.419-0.505 0.746-1.152 0.746-0.725 0-1.273-0.569-1.273-1.358s0.541-1.372 1.273-1.372c0.647 0 0.974 0.327 1.152 0.746 0.014 0.029 0.306-0.014 0.306-0.22 0-0.306-0.469-0.939-1.458-0.939-0.995 0-1.742 0.754-1.742 1.785" fill="#63898a"/>
  </g>
  <g id="al" transform="matrix(17.046 0 0 -17.046 458.17 181.89)">
   <path id="am" d="m0 0c0-0.171-0.085-0.22-0.206-0.22h-0.05c-0.121 0-0.206 0.049-0.206 0.22v4.601l0.156 0.049c0.157 0 0.306-0.078 0.306-0.448v-2.559l1.365 1.393c0.128 0.135 0.221 0.185 0.313 0.185 0.185 0 0.249-0.206 0.228-0.227l-1.401-1.387 1.621-1.586c0.021-0.021-0.057-0.241-0.249-0.241-0.085 0-0.163 0.042-0.298 0.177l-1.579 1.572z" fill="#63898a"/>
  </g>
 </g>
</svg>
