<svg id="b" version="1.1" viewBox="0 0 702.19 800" xml:space="preserve" xmlns="http://www.w3.org/2000/svg"><defs id="c"><clipPath id="a"><path id="d" d="m0 0h841.89v595.28h-841.89z"/></clipPath></defs><g id="e" transform="matrix(1.3333 0 0 -1.3333 .00064569 800)"><g id="f" transform="matrix(42.66 0 0 42.66 -17418 -11697)"><g id="g" clip-path="url(#a)"><g id="h" transform="translate(415.77 286.51)"><path id="i" d="m0 0c1e-3 0.455 5e-3 0.697 0.013 0.725 7e-3 0.029 0.017 0.049 0.029 0.06l0.013 7e-3c0.01 5e-3 0.021 8e-3 0.033 9e-3 0.017 0 0.04-0.011 0.067-0.032 0.017-0.014 0.032-0.032 0.043-0.054 6e-3 -0.012 0.01-0.024 0.014-0.038 0.012-0.039 0-0.175-0.038-0.408-0.038-0.232-0.062-0.359-0.072-0.381-6e-3 -0.011-0.012-0.019-0.02-0.022-7e-3 -4e-3 -0.015-4e-3 -0.024 0-0.016 4e-3 -0.029 0.016-0.039 0.036l-4e-3 8e-3c-0.01 0.023-0.015 0.053-0.015 0.09" fill="#ffc421"/></g><g id="j" transform="translate(415.29 286.15)"><path id="k" d="m0 0c-0.256 0.469-0.319 0.61-0.329 0.66-9e-3 0.05-9e-3 0.087 1e-3 0.112l0.016 0.019c0.011 0.013 0.026 0.024 0.044 0.032 0.027 0.01 0.07 6e-3 0.129-0.013 0.038-0.013 0.074-0.034 0.108-0.064 0.018-0.014 0.035-0.032 0.051-0.052 0.049-0.057 0.075-0.139 0.153-0.426 0.043-0.157 0.071-0.35 0.07-0.391 0-0.021-4e-3 -0.037-0.013-0.047-8e-3 -0.01-0.021-0.015-0.039-0.014-0.028-1e-3 -0.057 0.011-0.087 0.037l-0.013 0.011c-0.033 0.031-0.06 0.079-0.091 0.136" fill="#ffc421"/></g><g id="l" transform="translate(415.96 276.43)"><path id="m" d="m0 0c0.118-1.266 0.171-1.94 0.158-2.021-0.014-0.081-0.035-0.138-0.064-0.172l-0.035-0.022c-0.026-0.016-0.055-0.026-0.088-0.031-0.048-4e-3 -0.112 0.02-0.193 0.073-0.051 0.035-0.096 0.082-0.133 0.142-0.019 0.03-0.035 0.063-0.05 0.101-0.043 0.107-0.044 0.488-2e-3 1.143 0.041 0.655 0.074 1.014 0.098 1.075 0.012 0.033 0.027 0.056 0.046 0.068s0.042 0.014 0.069 4e-3c0.044-9e-3 0.082-0.039 0.115-0.091l0.014-0.022c0.033-0.062 0.054-0.145 0.065-0.247" fill="#ffc421"/></g><g id="n" transform="translate(417.21 276.68)"><path id="o" d="m0 0c0.639-1.1 0.97-1.689 0.992-1.768s0.027-0.14 0.014-0.183l-0.022-0.035c-0.017-0.025-0.039-0.047-0.066-0.065-0.042-0.024-0.111-0.029-0.207-0.014-0.061 0.01-0.121 0.034-0.18 0.073-0.029 0.019-0.058 0.042-0.087 0.07-0.085 0.08-0.246 0.425-0.483 1.037-0.238 0.612-0.359 0.951-0.363 1.016-3e-3 0.036 2e-3 0.063 0.014 0.082 0.013 0.019 0.032 0.029 0.061 0.032 0.043 0.011 0.091 0 0.142-0.034l0.022-0.015c0.056-0.042 0.111-0.108 0.163-0.196" fill="#ffc421"/></g><g id="p" transform="translate(417.87 277.74)"><path id="q" d="m0 0c1.101-0.637 1.68-0.985 1.739-1.043 0.058-0.057 0.092-0.108 0.103-0.151l-3e-3 -0.042c-2e-3 -0.03-0.01-0.06-0.025-0.089-0.024-0.041-0.081-0.08-0.171-0.115-0.059-0.021-0.123-0.03-0.193-0.026-0.035 2e-3 -0.072 8e-3 -0.111 0.018-0.113 0.027-0.424 0.247-0.934 0.66-0.51 0.414-0.783 0.648-0.819 0.703-0.02 0.029-0.03 0.055-0.028 0.077 1e-3 0.023 0.013 0.042 0.036 0.059 0.033 0.03 0.08 0.044 0.141 0.04l0.026-1e-3c0.07-9e-3 0.15-0.039 0.239-0.09" fill="#ffc421"/></g><g id="r" transform="translate(410.72 279.85)"><path id="s" d="m0 0c-7e-3 0.091-0.045 0.167-0.115 0.227s-0.151 0.087-0.242 0.08-0.166-0.046-0.227-0.115c-0.06-0.07-0.087-0.151-0.08-0.242 7e-3 -0.093 0.046-0.169 0.115-0.229 0.07-0.058 0.151-0.085 0.242-0.078s0.167 0.045 0.227 0.114c0.06 0.068 0.087 0.149 0.08 0.243" fill="#ffc421"/></g><g id="t" transform="translate(417.04 278.28)"><path id="u" d="m0 0c-0.031 0.072-0.123 0.102-0.192 0.081-0.083-0.027-0.141-0.113-0.141-0.113-0.119-0.161-0.202-0.201-0.294-0.257-0.468-0.287-0.734-0.052-0.734-0.052-0.033 0.026-0.059 0.051-0.086 0.096-0.026 0.044-0.052 0.108-0.083 0.208 0.587 0.433 0.893 0.753 1.076 0.992 0.135 0.177 0.22 0.452 0.215 0.642-0.023 0.756-0.626 0.792-0.626 0.792s-0.524 0.093-0.928-0.4c-0.117-0.142-0.226-0.336-0.291-0.612-0.066-0.277-0.085-0.549-0.057-0.815 0.015-0.148 0.039-0.294 0.07-0.436-0.234-0.22-0.342-0.327-0.427-0.377-0.098-0.057-0.121 0.03-0.121 0.03-0.068 0.323-9e-3 0.935-9e-3 1.111l0.05 0.934c-0.015 0.159-0.032 0.354-0.126 0.409-0.11 0.066-0.226 0.086-0.344 0.071l-8e-3 -2e-3c-0.124-0.019-0.278-0.052-0.42-0.143-0.133-0.085-0.259-0.22-0.406-0.499 0 0-7e-3 0.144-0.016 0.207-0.023 0.171-0.072 0.291-0.146 0.362-0.105 0.094-0.236 0.135-0.393 0.122l-0.042-6e-3c-0.148-0.02-0.306-0.086-0.475-0.199-0.181-0.122-0.313-0.445-0.328-0.535 0.027 0.285 0.053 0.484 0.038 0.601-3e-3 0.022-7e-3 0.041-0.012 0.056-0.031 0.103-0.098 0.149-0.2 0.141l-0.021-3e-3c-0.093-0.012-0.157-0.061-0.193-0.144-0.038-0.092-0.105-0.603-0.176-1.536-0.022-0.305-0.04-0.618-0.053-0.883-0.081-0.238-0.171-0.334-0.266-0.405-0.103-0.078-0.185-0.119-0.245-0.124-0.063-4e-3 -0.12 0.013-0.173 0.054s-0.09 0.092-0.11 0.153c-7e-3 0.018-0.011 0.044-0.013 0.078-6e-3 0.072-1e-3 0.181 0.015 0.327 0.023 0.208 0.028 0.22 0.05 0.33 0.044 0.22 0.055 0.311 0.055 0.377 0 0.033-3e-3 0.06-6e-3 0.095-0.01 0.098-0.068 0.154-0.124 0.168-0.026 4e-3 -0.051 4e-3 -0.075 3e-3 -0.034-3e-3 -0.067-0.011-0.1-0.023-0.058-0.029-0.125-0.17-0.174-0.425l-0.027-0.157c-0.018-0.078-0.025-0.159-0.029-0.182-5e-3 -0.031-8e-3 -0.054-0.012-0.074-1e-3 -9e-3 -2e-3 -0.019-4e-3 -0.029 0-4e-3 0-7e-3 -1e-3 -0.011-6e-3 -0.042-0.012-0.089-0.017-0.141-0.029-0.318-0.459-0.747-0.785-0.516-0.214 0.15-0.174 0.823-0.174 0.823l-1e-3 0.015c0.032 0.42 0.146 1.139 0.29 1.873l1.018 0.083 0.093 8e-3c0.156 0.013 0.257 0.039 0.301 0.076 0.053 0.044 0.076 0.1 0.07 0.17l-1e-3 7e-3c-9e-3 0.071-0.041 0.119-0.099 0.142s-0.175 0.026-0.353 0.011l-0.943-0.07c0.238 1.027 0.188 1.009 0.18 1.1l-1e-3 0.015c-0.03 0.035-0.086 0.05-0.17 0.043-0.082-7e-3 -0.145-0.036-0.189-0.086-0.044-0.049-0.013-0.038-0.236-1.122-0.063-3e-3 -0.121-6e-3 -0.177-0.011-0.255-0.022-0.35-0.086-0.35-0.086-0.042-0.042-0.061-0.091-0.056-0.15 1e-3 -9e-3 3e-3 -0.02 6e-3 -0.031 0.014-0.072 0.039-0.126 0.085-0.136 0.12-0.028 0.39-1e-3 0.39-1e-3 -0.063-0.274-0.084-0.507-0.11-0.683-0.069-0.467-0.142-0.904-0.169-1.229 0 0-0.101-0.816 0.278-1.133 0.547-0.459 1.044-0.029 1.243 0.193 0.069-0.128 0.162-0.221 0.279-0.28 0.101-0.053 0.2-0.076 0.296-0.069 0.018 2e-3 0.038 4e-3 0.059 9e-3 0.113 0.021 0.243 0.073 0.388 0.156 0.026 0.015 0.053 0.033 0.079 0.055 0.021-0.076 0.075-0.149 0.21-0.149 0.092 1e-3 0.142 0.071 0.157 0.141 0.016 0.071 0.116 0.754 0.234 1.912 0 0 0.016 0.444 0.417 0.723 0.143 0.1 0.258 0.165 0.357 0.179l0.029 3e-3c0.102 6e-3 0.168-0.025 0.197-0.094 3e-3 -8e-3 6e-3 -0.017 8e-3 -0.028 0.016-0.118-0.044-0.546-0.095-1.273-0.062-0.878-0.087-1.163-0.085-1.262 2e-3 -0.077 0.053-0.154 0.096-0.181 0 0 0.045-0.035 0.135-9e-3 0.086 0.024 0.138 0.076 0.159 0.151 0.026 0.097 0.059 0.657 0.152 1.774 0.031 0.379 0.296 0.61 0.433 0.698 0.135 0.087 0.251 0.133 0.355 0.147l0.029 4e-3c0.079 0.011 0.116 4e-3 0.124-0.071l-0.028-0.61c-0.029-0.292-0.097-1.133-0.02-1.556 0.028-0.154 0.084-0.247 0.149-0.326 0.158-0.19 0.387-0.133 0.548-0.011 0.129 0.097 0.301 0.261 0.445 0.406 0.067-0.153 0.149-0.272 0.244-0.356 0.131-0.118 0.271-0.181 0.42-0.19 0 0 0.536-0.035 0.944 0.304 0 0 0.164 0.105 0.25 0.287 0.064 0.135 0.082 0.279 0.05 0.354m-1.564 1.472c0.062 0.125 0.141 0.241 0.237 0.321 0.077 0.062 0.148 0.092 0.219 0.114 0 0 0.167 0.05 0.285 4e-3 0.125-0.048 0.155-0.203 0.155-0.203s0.062-0.194-0.115-0.415c-0.178-0.221-0.466-0.507-0.861-0.835 0 0-0.098 0.658 0.08 1.014" fill="#ffc421"/></g><g id="v" transform="translate(413.19 285.71)"><path id="w" d="m0 0c-0.087-0.27-0.23-0.551-0.425-0.834-0.194-0.282-0.562-0.663-0.884-0.859-0.408-0.249-0.779-0.453-1.214-0.561-0.027-0.28-0.089-0.944-0.143-1.529-0.031-0.339-0.043-0.543-0.233-0.562-0.289-0.028-0.288 0.313-0.281 0.469 0.035 0.739 0.127 1.473 0.127 1.473l9e-3 0.072c-0.526-0.022-1.078 0.126-1.526 0.436 0 0-0.245 0.163-0.296 0.384-0.014 0.061-0.017 0.113 0.015 0.148 0.128 0.139 0.273-0.039 0.295-0.063 0.167-0.182 0.42-0.276 0.519-0.309 0.377-0.127 0.761-0.137 1.061-0.106 0.066 0.448 0.147 0.915 0.263 1.502 0.141 0.71 0.334 1.39 0.494 1.653 0.083 0.135 0.203 0.151 0.248 0.119 0.072-0.051 0.057-0.164 0.057-0.164s-0.177-0.666-0.32-1.401c0 0-0.13-0.613-0.238-1.606 0.858 0.265 1.411 0.922 1.588 1.176 0.197 0.286 0.329 0.54 0.393 0.756 0.054 0.186 0.079 0.361 0.074 0.521-1e-3 0.031-4e-3 0.062-8e-3 0.088-0.017 0.187-0.067 0.361-0.15 0.519-0.083 0.16-0.244 0.363-0.468 0.517-0.328 0.225-0.749 0.311-1.156 0.239-0.577-0.103-0.92-0.288-1.37-0.648-0.182-0.145-0.315-0.281-0.427-0.194-0.123 0.095 0.025 0.279 0.025 0.279 0.329 0.468 0.963 0.812 1.574 0.956 0 0 0.483 0.108 0.968 0.048 0.318-0.039 0.65-0.166 0.91-0.417 0 0 0.595-0.514 0.644-1.277 0.019-0.296-0.066-0.655-0.125-0.825" fill="#ffc421"/></g><g id="x" transform="translate(420.64 282.66)"><path id="y" d="m0 0c-3e-3 0.066-0.033 0.15-0.058 0.203-0.015 0.034-0.037 0.059-0.066 0.076-0.076 0.04-0.151 0.045-0.225 0.013l-9e-3 -3e-3c-0.073-0.034-0.06-0.21-0.203-0.366-0.098-0.108-0.246-0.249-0.246-0.249-0.082-0.07-0.2-0.188-0.307-0.297-0.108-0.108-0.205-0.206-0.249-0.237l-0.014 0.269c0.021 0.508 0.086 1.215 0.099 1.356 0.016 0.191 0.041 0.317 0.058 0.537 0.014 0.201 0.027 0.381 0.025 0.544-1e-3 0.163-0.056 0.265-0.115 0.302-0.026 0.014-0.053 0.026-0.081 0.034-0.033 0.01-0.067 0.017-0.103 0.019-0.065-1e-3 -0.089-0.069-0.121-0.172-0.032-0.105-0.037-0.396-0.089-0.967-0.014-0.153-5e-3 -0.272-0.08-0.526-0.237-0.488-0.395-0.763-0.473-0.823-0.082-0.062-0.151-0.101-0.21-0.118-0.012-5e-3 -0.023-7e-3 -0.035-9e-3 -0.045-5e-3 -0.09 5e-3 -0.134 0.031-0.055 0.031-0.098 0.075-0.129 0.131-0.013 0.021-0.022 0.055-0.028 0.102-9e-3 0.069-0.01 0.166-4e-3 0.289 0.011 0.205 0.051 0.531 0.121 0.978s0.099 0.716 0.088 0.806c-0.012 0.088-0.043 0.138-0.095 0.148-0.03 3e-3 -0.059 3e-3 -0.087-1e-3 -0.024-2e-3 -0.047-8e-3 -0.07-0.016-0.053-0.021-0.092-0.098-0.117-0.23-0.024-0.132-0.049-0.28-0.077-0.442-0.028-0.164-0.055-0.31-0.082-0.441-0.027-0.13-0.05-0.276-0.07-0.437-0.013-0.111-0.017-0.232-0.012-0.364-0.128-0.253-0.329-0.645-0.437-0.722-0.108-0.078-0.193-0.119-0.254-0.122-0.064-3e-3 -0.123 0.016-0.176 0.059-0.053 0.042-0.089 0.096-0.109 0.159-7e-3 0.018-0.011 0.045-0.012 0.079-4e-3 0.075 3e-3 0.186 0.022 0.335 0.029 0.213 0.096 0.569 0.199 1.067 0.105 0.493 0.155 0.793 0.149 0.9v4e-3c-8e-3 0.101-0.041 0.159-0.098 0.175-0.027 4e-3 -0.052 5e-3 -0.077 4e-3 -0.034-2e-3 -0.068-9e-3 -0.103-0.022-0.06-0.027-0.118-0.171-0.173-0.431-0.163 0.289-0.344 0.436-0.542 0.441-0.048 0-0.095-1e-3 -0.141-3e-3 -0.141-8e-3 -0.267-0.034-0.377-0.077-0.147-0.059-0.281-0.155-0.402-0.29-0.121-0.136-0.242-0.307-0.362-0.516s-0.195-0.457-0.225-0.745c-0.024-0.208-0.031-0.399-0.021-0.576 1e-3 -0.015 1e-3 -0.029 2e-3 -0.044-0.215-0.305-0.5-0.513-0.697-0.593-0.213-0.089-0.373-0.134-0.481-0.136h-4e-3c-0.108 0-0.187 0.027-0.235 0.082-0.05 0.054-0.083 0.14-0.098 0.258l-1e-3 0.025c-2e-3 0.147-0.011 0.11 0.178 0.814 0.437 0.221 0.811 0.561 1.066 0.831 0.253 0.271 0.447 0.526 0.579 0.768s0.22 0.474 0.263 0.696c0.04 0.208 0.055 0.351 0.044 0.497-0.049 0.544-0.492 0.507-0.492 0.507-0.285 3e-3 -0.551-0.235-0.551-0.235-0.296-0.268-0.525-0.651-0.652-0.89-0.157-0.296-0.499-1.144-0.632-1.738-8e-3 -0.035-0.016-0.068-0.023-0.101l-0.496-0.24c-0.359-0.155-0.375-0.045-0.386 0s0.187 0.286-0.034 0.349c-0.221 0.064-0.356-0.165-0.36-0.187-4e-3 -0.023-0.126-0.226 0-0.488 0.139-0.288 0.534-0.216 0.534-0.216 0.154 0.012 0.37 0.104 0.619 0.25-0.101-0.433-0.134-0.56-0.132-0.667v-4e-3c5e-3 -0.139 0.028-0.258 0.068-0.359 0.041-0.1 0.105-0.183 0.193-0.248 0.089-0.064 0.217-0.103 0.385-0.115 0.023-2e-3 0.048-3e-3 0.075-3e-3 0.16 4e-3 0.379 0.029 0.634 0.136 0.4 0.169 0.61 0.343 0.736 0.474 0.021-0.064 0.045-0.121 0.073-0.173 0.072-0.138 0.17-0.239 0.291-0.305 0.094-0.051 0.209-0.073 0.345-0.066 0.037 2e-3 0.076 7e-3 0.116 0.014 0.186 0.029 0.332 0.095 0.439 0.197s0.221 0.246 0.342 0.432c0.141-0.282 0.274-0.456 0.398-0.521 0.102-0.056 0.202-0.082 0.301-0.076 0.019 1e-3 0.038 3e-3 0.06 7e-3 0.117 0.02 0.251 0.07 0.401 0.152 0.136 0.073 0.275 0.238 0.418 0.493 0.06-0.107 0.147-0.189 0.259-0.249 0.109-0.056 0.213-0.078 0.313-0.065l0.035 5e-3c0.111 0.023 0.229 0.081 0.355 0.175 0.086 0.064 0.172 0.172 0.258 0.327-0.015-0.03 0.059-0.751 0.059-0.751-0.012-0.126-1.372-0.715-1.385-1.813-0.02-1.653 1.16-1.664 1.506-1.583 0.347 0.081 0.768 0.47 0.825 1.086 0.058 0.622-0.286 1.406-0.286 1.406-0.095 0.25-0.148 0.492-0.158 0.67 0.23 0.202 0.389 0.339 0.547 0.505l0.214 0.194c0.088 0.072 0.192 0.18 0.257 0.241 0.194 0.181 0.26 0.251 0.252 0.416m-6.543 2.99s0.178 0.206 0.318 0.155c0.074-0.027 0.077-0.175 0.077-0.175 2e-3 -0.105-6e-3 -0.333-0.076-0.556-0.146-0.473-0.658-1.217-1.313-1.57 0 0 0.22 1.182 0.994 2.146m1.97-2.622c-0.041-0.179-0.14-0.377-0.296-0.594-0.155-0.218-0.304-0.362-0.445-0.434-0.091-0.048-0.168-0.074-0.232-0.077-0.035-1e-3 -0.065 3e-3 -0.089 0.015-0.075 0.034-0.138 0.096-0.191 0.187-0.05 0.08-0.079 0.199-0.087 0.357l-4e-3 0.052c-4e-3 0.185 8e-3 0.37 0.037 0.556s0.102 0.381 0.222 0.585c0.119 0.203 0.256 0.346 0.412 0.429 0.125 0.064 0.232 0.097 0.32 0.102 0.024 1e-3 0.047 1e-3 0.068 0 0.1-0.014 0.192-0.057 0.277-0.13 0.084-0.073 0.14-0.197 0.168-0.373-0.066-0.271-0.119-0.496-0.16-0.675m3.309-4c-0.103-0.272-0.276-0.483-0.669-0.492-0.391-9e-3 -0.818 0.393-0.803 1.041 0.013 0.518 0.242 0.781 0.442 0.992 0.258 0.272 0.654 0.497 0.654 0.497 0.098-0.489 0.171-0.621 0.313-1.059 0 0 0.191-0.641 0.063-0.979" fill="#ffc421"/></g><g id="z" transform="translate(418.84 287.94)"><path id="aa" d="m0 0c-0.815 0.577-1.676 0.082-1.676 0.082-0.473-0.228-0.676-0.73-0.655-1.263 0.01-0.243-0.065-0.538-0.238-0.779-0.161-0.225-0.342-0.33-0.314-0.472 0.032-0.154 0.505-0.183 0.805-0.192 0.854-0.024 1.29 0.129 1.29 0.129 0.364 0.088 0.684 0.23 0.958 0.508 0.255 0.259 0.645 1.41-0.17 1.987m-0.719-0.463c-1e-3 7e-3 -1e-3 0.015-1e-3 0.022 0 0.023 5e-3 0.041 0.017 0.056 0.014 0.019 0.03 0.032 0.048 0.039 0.015 6e-3 0.033 9e-3 0.054 9e-3h0.011c0.026-2e-3 0.048-0.013 0.065-0.033 0.016-0.02 0.027-0.048 0.031-0.084 0-8e-3 1e-3 -0.016 1e-3 -0.023 0-0.027-6e-3 -0.051-0.017-0.072-0.014-0.027-0.038-0.051-0.07-0.073-0.032-0.021-0.081-0.031-0.147-0.031h-7e-3l-6e-3 0.056c0.042 0.014 0.069 0.033 0.08 0.059-0.035 0.017-0.055 0.042-0.059 0.075m-0.962 0.045c0.022 0.023 0.048 0.034 0.079 0.035 0.031 0 0.058-0.011 0.08-0.033 0.023-0.022 0.034-0.049 0.034-0.08 0-0.032-0.011-0.059-0.033-0.08-0.021-0.022-0.048-0.034-0.079-0.034-0.032 0-0.058 0.011-0.081 0.032-0.022 0.022-0.033 0.049-0.033 0.08s0.01 0.058 0.033 0.08m1.027-1.131c-0.013-0.028-0.042-0.074-0.085-0.136-0.043-0.061-0.102-0.119-0.176-0.173-0.071-0.049-0.142-0.076-0.214-0.08-6e-3 -1e-3 -0.012-1e-3 -0.016 0-0.078-2e-3 -0.134 9e-3 -0.168 0.033-0.035 0.025-0.058 0.056-0.072 0.096-0.011 0.031-0.02 0.065-0.026 0.103-0.051-0.082-0.1-0.135-0.146-0.157-0.052-0.025-0.097-0.039-0.136-0.044-6e-3 -1e-3 -0.013-2e-3 -0.02-2e-3 -0.032 0-0.065 0.01-0.099 0.03-0.04 0.024-0.07 0.06-0.091 0.107-0.019 0.041-0.028 0.094-0.029 0.157 0 0.011 0 0.023 1e-3 0.035 3e-3 0.079 0.013 0.148 0.029 0.207 0.017 0.059 0.038 0.132 0.064 0.222l0.058 0.19c0.022 0.086 0.044 0.133 0.064 0.141 0.012 3e-3 0.023 5e-3 0.035 5e-3 8e-3 0 0.016-1e-3 0.025-2e-3 0.019-6e-3 0.028-0.026 0.029-0.06v-1e-3c1e-3 -0.036-0.02-0.134-0.063-0.296-0.042-0.164-0.07-0.281-0.082-0.351-9e-3 -0.049-0.013-0.086-0.013-0.111 0-0.012 1e-3 -0.02 3e-3 -0.027 5e-3 -0.021 0.016-0.039 0.033-0.054 0.018-0.015 0.036-0.023 0.058-0.022 0.02 0 0.049 0.012 0.086 0.036 0.037 0.025 0.079 0.078 0.126 0.16 0.038 0.067 0.066 0.111 0.084 0.133 4e-3 0.029 9e-3 0.06 0.014 0.093 0.029 0.185 0.025 0.166 0.079 0.375 0 0-0.092-7e-3 -0.133 3e-3 -0.015 4e-3 -0.024 0.022-0.028 0.047-1e-3 4e-3 -2e-3 7e-3 -2e-3 0.011-1e-3 0.019 6e-3 0.036 0.02 0.05 0 0 0.033 0.021 0.12 0.026 0.019 2e-3 0.039 3e-3 0.06 3e-3 0.084 0.367 0.08 0.329 0.096 0.345 0.015 0.017 0.037 0.026 0.065 0.028s0.048-3e-3 0.057-0.016v-5e-3c3e-3 -0.031 0.012 0.01-0.076-0.337l0.257 0.016c0.06 4e-3 0.1 3e-3 0.12-6e-3 0.019-8e-3 0.03-0.024 0.032-0.049v-2e-3c2e-3 -0.024-6e-3 -0.043-0.024-0.057-0.016-0.013-0.05-0.021-0.103-0.024l-0.032-3e-3 -0.282-0.02c-0.113-0.532-0.122-0.623-0.117-0.708v-5e-3c5e-3 -0.08 0.034-0.123 0.086-0.131 0.013-2e-3 0.028-3e-3 0.044-2e-3 0.04 3e-3 0.083 0.017 0.129 0.043 0.061 0.034 0.114 0.083 0.158 0.147 0.045 0.063 0.073 0.105 0.084 0.127 0.012 0.021 0.03 0.038 0.054 0.049 9e-3 4e-3 0.017 6e-3 0.026 7e-3 0.013 1e-3 0.026-4e-3 0.038-0.014 0.013-0.013 0.02-0.028 0.021-0.045l1e-3 -0.01c-2e-3 -0.022-0.01-0.046-0.023-0.075m0.568-0.226c-0.022-7e-3 -0.042-0.013-0.062-0.016-0.075-0.015-0.138-0.01-0.189 0.015-0.064 0.03-0.103 0.065-0.119 0.105-5e-3 0.012-8e-3 0.024-0.011 0.034-4e-3 0.024-2e-3 0.043 8e-3 0.058 9e-3 0.016 0.023 0.026 0.042 0.029 5e-3 2e-3 0.012 2e-3 0.019 3e-3 0.029-1e-3 0.052-0.016 0.069-0.044 0.017-0.029 0.034-0.046 0.052-0.052 0.017-5e-3 0.039-7e-3 0.066-6e-3 4e-3 0 8e-3 0 0.011 1e-3 0.025 5e-3 0.054 0.021 0.089 0.048 0.037 0.028 0.048 0.082 0.033 0.161l-5e-3 0.025c-0.023 0.093-0.114 0.235-0.274 0.426-0.108-0.24-0.111-0.234-0.13-0.267-0.016-0.027-0.034-0.042-0.055-0.046-6e-3 -1e-3 -0.012-1e-3 -0.018 1e-3 -0.03 2e-3 -0.05 0.02-0.06 0.054-1e-3 3e-3 -2e-3 5e-3 -3e-3 7e-3 -6e-3 0.034 0.01 0.088 0.049 0.162 0.041 0.08 0.026 0.047 0.08 0.189 0.053 0.143 0.09 0.223 0.109 0.241 0.012 0.012 0.026 0.019 0.042 0.022 7e-3 2e-3 0.014 3e-3 0.022 3e-3 0.024-2e-3 0.041-0.014 0.052-0.038l2e-3 -9e-3c5e-3 -0.026-7e-3 -0.076-0.035-0.147l0.137-0.163c0.133-0.177 0.209-0.317 0.23-0.421 4e-3 -0.023 6e-3 -0.043 5e-3 -0.062 0.013-0.111-0.054-0.282-0.156-0.313" fill="#ffc421"/></g></g></g></g></svg>
