<?xml version="1.0" encoding="UTF-8"?>
<svg id="svg11" width="450pt" height="338.78pt" version="1.1" viewBox="0 0 450 338.78" xmlns="http://www.w3.org/2000/svg" xmlns:cc="http://creativecommons.org/ns#" xmlns:dc="http://purl.org/dc/elements/1.1/" xmlns:rdf="http://www.w3.org/1999/02/22-rdf-syntax-ns#">
 <metadata id="metadata17">
  <rdf:RDF>
   <cc:Work rdf:about="">
    <dc:format>image/svg+xml</dc:format>
    <dc:type rdf:resource="http://purl.org/dc/dcmitype/StillImage"/>
    <dc:title/>
   </cc:Work>
  </rdf:RDF>
 </metadata>
 <path id="path4-1" d="m322.44 89.77c-0.0419-0.22405-0.0848-0.44558-0.12773-0.66861-0.11388-0.60653-0.23112-1.2111-0.35275-1.8141-3.085-15.006-8.8535-28.871-17.167-40.872-9.506-13.711-22.112-24.705-37.531-32.68-15.091-7.8134-32.152-12.343-50.712-13.463-8.4795-0.51109-17.246-0.3027-26.036 0.62126-31.177 3.2768-62.879 15.202-94.227 35.441-61.477 39.695-98.206 103.43-96.206 158.1 0.59299 15.275 4.2145 29.853 11.174 42.972 14.235 26.859 38.225 46.044 67.55 54.026 13.967 3.8012 28.691 4.9244 43.759 3.3411 0.72816-0.0762 1.4553-0.15973 2.1874-0.24898 16.224-1.9922 32.433-7.0977 48.179-15.174 4.0445-2.0739 8.1561-4.607 12.242-7.5445 11.407 9.082 22.012 16.699 29.413 21.909 3.4688 1.7975 7.4001 2.4974 11.327 2.0488 5.7289-0.4482 10.93-3.5466 14.267-8.236 3.1091-4.3705 4.3307-9.6428 3.44-14.932-0.89163-5.2883-3.7882-9.891-8.1588-13-5.1602-3.6726-12.94-9.3294-21.544-16.054l-0.12262-0.0938 0.11554-0.14777c0.17411-0.23264 0.34567-0.46274 0.51623-0.69285 7.4182-10.06 19.802-29.959 19.426-50.271-0.30627-13.386-5.1975-26.327-13.794-36.466-9.7345-11.481-23.11-18.004-37.665-18.365-2.1683-0.0551-4.3715 0.0348-6.5493 0.26341-20.323 2.1349-38.318 16.159-44.771 34.895-2.4699 7.1669-3.5176 14.492-3.2054 21.784 0.76397 16.181 8.2429 32.199 21.874 45.994 1.2126 1.2262 2.4699 2.4744 3.7599 3.7322l0.15846 0.15747-0.14988 0.0904c-11.757 5.8868-23.588 9.4867-35.187 10.705-9.9969 1.0511-19.742 0.31081-28.966-2.1985-18.53-5.0302-33.663-17.123-42.644-34.082-4.0016-7.535-6.1615-16.37-6.5023-26.015-0.54408-14.037 2.7779-29.822 9.8961-45.943 13.2-29.953 37.318-57.319 67.887-77.054 25.993-16.786 51.776-26.619 76.642-29.231 6.6431-0.69837 13.184-0.8619 19.442-0.48546 25.311 1.527 45.785 11.8 57.648 28.929 5.4326 7.8411 9.1744 17.222 11.107 27.561 0.0211 0.11192 0.0402 0.22556 0.0621 0.3376 0.0747 0.41026 0.14882 0.81998 0.21799 1.2338 0.0762 0.45314 0.14883 0.90831 0.21898 1.365 8e-3 0.05844 0.0185 0.11659 0.0262 0.17662 1.4271 9.4005 1.3832 19.527-0.21092 30.021-3.4331 22.617-14.023 45.073-30.117 64.169-5.4443 8.4482-3.808 19.729 4.1459 26.258 4.1843 3.4334 9.452 5.2156 14.836 4.319h1e-3c5.2833-0.44812 10.051-2.9955 13.422-7.1024 21.665-26.401 34.897-56.979 38.262-88.546 1.4392-13.486 0.96836-26.611-1.3039-39.059m-154.47 101.26c0.39208-8.4938 5.9009-14.642 13.18-14.642 7.278 0 13.178 6.5548 13.178 14.642 0 1.3504-0.16199 2.6391-0.38605 3.8983-0.56013 3.6176-3.6338 11.979-12.926 22.593-1.5582-1.8409-3.0485-3.6495-4.4502-5.4014-4.3619-5.4529-8.9882-12.598-8.5961-21.09" fill="#ff331e" stroke-width="2.0531"/>
 <g id="g878" fill="#fff">
  <path id="path2-0" d="m315.27 298.49c7.4264-6.7259 11.413-16.512 10.548-26.9-1.3352-16.025-14.562-28.84-30.618-29.744-16.338-0.91841-30.278 10.211-33.688 25.401l19.055 4.3276c1.2918-5.758 6.352-10.1 12.438-10.244 6.3329-0.14988 11.937 4.5048 13.162 10.72 1.0299 5.2252-1.531 9.8456-5.1532 13.12l-30.05 25.668c-7.0388 6.013-11.105 14.796-11.138 24.053l-0.0151 3.8771h65.739v-18.331h-35.896l25.609-21.954" stroke-width="2.0531"/>
  <path id="path6" d="m352.59 285.25v53.519h13.142v-22.039h17.292v22.039h13.144v-53.519h-13.144v20.026h-17.292v-20.026z" stroke-width="1.5063"/>
  <path id="path8" d="m404.45 285.25h16.671c4.1029 0 8.1989 0.17669 12.273 0.70757 9.2638 1.6871 15.274 10.665 16.208 19.597 0.73809 7.8931 0.88873 16.494-3.4645 23.483-2.4978 4.6519-7.1136 7.7786-12.177 9.0155-4.662 0.92023-9.7366 0.71174-14.081 0.71534h-15.43v-53.519m13.052 10.996v31.467h8.2492c3.7299 0 7.9562-1.2127 9.2638-4.3294 2.6531-6.8558 3.0353-15.063 0.0205-21.85-2.0066-3.8751-5.8886-5.2871-9.971-5.2871z" stroke-width="1.5063"/>
 </g>
</svg>
