<svg id="a" version="1.1" viewBox="0 0 800 372.95" viewbox="0 0 336 189" xmlns="http://www.w3.org/2000/svg">
 <path id="b" d="m681.08 76.523v24.052h-26.232v65.244h-30.313v-65.244h-37.24v-24.052" stroke-width="7.1477"/>
 <path id="c" d="m704.72 76.523 14.546 57.217 26.504-90.111 24.738 11.279-36.561 110.91h-29.227l-32.072-89.296" stroke-width="7.1477"/>
 <path id="d" d="m683.25 233.5c-64.422 0-116.75-52.321-116.75-116.75 0-64.422 52.321-116.75 116.75-116.75 64.422 0 116.75 52.321 116.75 116.75 0 64.422-52.321 116.75-116.75 116.75zm0-205.37c-48.933 0-88.617 39.827-88.617 88.617 0 48.933 39.82 88.617 88.617 88.617 48.926 0 88.617-39.82 88.617-88.617 0-48.79-39.691-88.617-88.617-88.617zm-553.18 340.2-54.916-76.245h-17.669v76.245h-57.489v-235.4h74.479c6.39 0 12.78 0.13581 19.034 0.40742 6.3829 0.27161 12.637 0.81484 18.891 1.9013 6.2471 1.0864 12.366 2.7161 18.212 4.8962 5.8397 2.1729 11.279 5.4323 16.311 9.6494a76.909 76.909 0 0 1 21.743 28.948c4.8962 11.279 7.2049 23.244 7.2049 35.61 0 9.242-1.3581 17.941-3.9455 26.096a74.865 74.865 0 0 1-11.279 22.294 60.97 60.97 0 0 1-18.348 16.44c-3.9384 2.3159-6.7903 4.2172-8.8346 5.1678l65.509 83.993zm-12.101-150.32c0-11.829-3.8026-20.121-11.279-24.874-7.4765-4.7604-16.583-7.2049-27.183-7.2049h-22.015v65.373h21.2c10.872 0 20.114-2.5803 27.726-7.7481 7.6123-5.2965 11.551-13.867 11.551-25.546z" stroke-width="7.1477"/>
 <path id="e" d="m409.11 250.76c0 17.398-3.2594 33.573-9.921 48.526-6.6617 14.946-15.496 27.862-26.775 38.869-11.279 10.872-24.602 19.442-39.691 25.553a128.97 128.97 0 0 1-48.519 9.242c-17.126 0-33.301-3.1236-48.39-9.3778-15.082-6.2542-28.133-14.817-39.141-25.553a120.77 120.77 0 0 1-26.232-38.462c-6.5258-14.817-9.6494-30.992-9.6494-48.39s3.1236-33.709 9.5136-48.654c6.39-15.082 15.082-27.998 26.096-39.012 11.007-11.007 24.059-19.57 39.141-25.825 15.089-6.2471 31.264-9.3778 48.662-9.3778 17.126 0 33.437 3.1307 48.519 9.3778 15.225 6.2542 28.412 14.817 39.691 25.825a121.83 121.83 0 0 1 26.775 38.876c6.6617 14.81 9.921 30.985 9.921 48.39m-54.909 0.40027c0-9.242-1.6297-17.941-4.8962-26.504a68.954 68.954 0 0 0-14.131-22.422c-6.1184-6.5259-13.459-11.558-21.886-15.36-8.563-3.8026-17.941-5.711-28.405-5.711s-19.842 1.7726-28.405 5.4394a67.296 67.296 0 0 0-21.886 14.953 69.454 69.454 0 0 0-14.131 22.015 71.534 71.534 0 0 0-4.8962 26.375c0 9.3706 1.6297 18.341 4.8962 26.768a66.96 66.96 0 0 0 14.131 22.294c6.1184 6.3829 13.459 11.415 22.158 15.225 8.6988 3.8026 18.348 5.7039 28.948 5.7039 10.193 0 19.442-1.9013 27.862-5.711a68.904 68.904 0 0 0 21.75-15.225 68.847 68.847 0 0 0 14.131-21.872 69.318 69.318 0 0 0 4.7604-25.968" stroke-width="7.1477"/>
 <path id="f" d="m577.23 296.97c0 9.9282-1.7655 19.17-5.4323 27.733a70.119 70.119 0 0 1-16.047 23.101c-5.7039 5.1678-11.415 9.242-17.526 11.958-5.9826 2.8591-12.237 4.8962-18.763 5.9826a138.24 138.24 0 0 1-19.978 2.1729c-6.7903 0.27161-13.867 0.40742-21.2 0.40742h-74.479v-235.4h72.306c5.1606 0 10.736 0 16.711 0.13581 5.9826 0.1358 11.965 0.54322 18.084 1.2222a95.708 95.708 0 0 1 17.526 3.6739c5.7182 1.7655 10.607 4.3458 14.817 7.8768 7.3407 5.8468 12.78 13.188 16.583 21.886a66.331 66.331 0 0 1 5.711 26.775c0 10.328-2.3159 19.57-6.9333 27.726-4.6246 8.1484-11.415 14.817-20.249 19.978 12.909 4.2172 22.694 11.007 29.084 20.257 6.5259 9.5064 9.7852 20.928 9.7852 34.523m-69.183-93.106c0-3.9455-0.67903-7.2049-2.1729-9.5136a13.766 13.766 0 0 0-5.711-5.4323 19.149 19.149 0 0 0-8.1484-2.4517 73.05 73.05 0 0 0-9.5207-0.54322h-21.2v36.696h21.2c6.7975 0 12.78-1.2223 17.805-3.531 5.1678-2.4517 7.7481-7.4765 7.7481-15.225m11.551 89.296c0-4.4888-0.95065-8.0197-2.5732-10.736a16.711 16.711 0 0 0-6.9333-6.1184c-2.8591-1.3581-5.9826-2.3087-9.5208-2.8591a95.765 95.765 0 0 0-11.007-0.67189h-28.269v42.672h28.269a58.182 58.182 0 0 0 11.007-1.0864 30.621 30.621 0 0 0 9.5136-3.531c2.8591-1.6297 5.1678-3.9384 6.9333-6.9333 1.7655-2.8591 2.5803-6.5259 2.5803-10.736" stroke-width="7.1477"/>
</svg>
