<svg id="x" version="1.1" viewBox="0 0 681.02 150" xmlns="http://www.w3.org/2000/svg">
 <defs id="y">
  <clipPath id="z">
   <path id="aa" d="m0 0h1920v1080h-1920v-1080z"/>
  </clipPath>
  <clipPath id="u">
   <path id="ab" d="m624 511h671v245h-671v-245z"/>
  </clipPath>
  <radialGradient id="a" cx="0" cy="0" r="1" gradientTransform="matrix(329.57 0 0 -329.83 1004 652.12)" gradientUnits="userSpaceOnUse">
   <stop id="ac" stop-color="#970d0d" offset="0"/>
   <stop id="ad" stop-color="#440c11" offset="1"/>
  </radialGradient>
  <clipPath id="v">
   <path id="ae" d="m1295 511v245h-335.81v-245h335.81z"/>
  </clipPath>
  <radialGradient id="b" cx="0" cy="0" r="1" gradientTransform="matrix(343.79 0 0 -344.05 656.78 757.3)" gradientUnits="userSpaceOnUse">
   <stop id="af" stop-color="#2962f2" offset="0"/>
   <stop id="ag" stop-color="#0d1950" offset="1"/>
  </radialGradient>
  <clipPath id="w">
   <path id="ah" d="m959.81 511v245h-335.81v-245h335.81z"/>
  </clipPath>
  <clipPath id="ai">
   <path id="aj" d="m0 0h595.28v841.89h-595.28v-841.89z"/>
  </clipPath>
  <clipPath id="ak">
   <path id="al" d="m0 0h595.28v841.89h-595.28v-841.89z"/>
  </clipPath>
  <clipPath id="am">
   <path id="an" d="m0 0h595.28v841.89h-595.28v-841.89z"/>
  </clipPath>
  <clipPath id="ao">
   <path id="ap" d="m473.03 551.03c-1.67-1.813-4.121-2.709-7.937-2.941l-1.296-0.063h-1.313l0.222-0.823h1.101c5.603 0.122 8.697 1.392 10.7 4.374l-0.681 0.454-0.796-1.001z"/>
  </clipPath>
  <clipPath id="aq">
   <path id="ar" d="m419.28 568.37-0.174-0.822h8.254l0.136 0.822h-8.216z"/>
  </clipPath>
  <clipPath id="as">
   <path id="at" d="m412.93 553.03-0.174-0.822h15.458l0.179 0.822h-15.463z"/>
  </clipPath>
  <clipPath id="au">
   <path id="av" d="m464.19 532.68h-21.403v-0.822h21.403c7.975 0 14.647 2.287 19.837 6.799l-0.542 0.617c-5.033-4.38-11.526-6.594-19.295-6.594"/>
  </clipPath>
  <clipPath id="aw">
   <path id="ax" d="m431.43 586.36v-0.823h41.467c8.243 0 14.747-2.561 18.82-7.41 3.094-3.684 4.665-8.496 4.665-14.288h0.822c0 5.992-1.639 10.978-4.86 14.82-4.226 5.033-10.956 7.701-19.447 7.701h-41.467z"/>
  </clipPath>
  <clipPath id="ay">
   <path id="az" d="m463.26 571.01v-0.823h5.396c4.106 0 7.021-0.99 8.664-2.951 1.144-1.36 1.719-3.257 1.719-5.634h0.823c0 2.577-0.644 4.649-1.909 6.162-1.813 2.15-4.938 3.246-9.297 3.246h-5.396z"/>
  </clipPath>
  <linearGradient id="o" x1="1580.6" x2="1863.1" y1="330.74" y2="330.74" gradientTransform="translate(0 -16.491)" gradientUnits="userSpaceOnUse">
   <stop id="ba" stop-color="#d2d1d2" offset="0"/>
   <stop id="bb" stop-color="#dcdcdc" offset=".14286"/>
   <stop id="bc" stop-color="#f6f5f5" offset=".45593"/>
   <stop id="bd" stop-color="#e5e5e5" offset=".75632"/>
   <stop id="be" stop-color="#c6c5c5" offset=".9375"/>
   <stop id="bf" stop-color="#949292" offset="1"/>
  </linearGradient>
  <linearGradient id="n" x1=".40683" x2=".58911" y1="-2.0057" y2="-2.0713" gradientTransform="matrix(257.85 0 0 -257.85 1610.7 -321.38)" gradientUnits="userSpaceOnUse">
   <stop id="bg" stop-color="#bdbbbc" offset="0"/>
   <stop id="bh" stop-color="#fcfbfc" offset=".5"/>
   <stop id="bi" stop-color="#b2b1b1" offset="1"/>
  </linearGradient>
  <linearGradient id="m" x1="1724.9" x2="1788.7" y1="260.02" y2="260.02" gradientTransform="translate(0 16.491)" gradientUnits="userSpaceOnUse">
   <stop id="bj" stop-color="#bdbbbc" offset="0"/>
   <stop id="bk" stop-color="#fcfbfc" offset=".5"/>
   <stop id="bl" stop-color="#acabab" offset="1"/>
  </linearGradient>
  <linearGradient id="l" x2="1" gradientTransform="matrix(273.13 0 0 -273.13 1356.4 -346.96)" gradientUnits="userSpaceOnUse">
   <stop id="bm" stop-color="#bbbaba" offset="0"/>
   <stop id="bn" stop-color="#514e4f" offset=".11798"/>
   <stop id="bo" stop-color="#8a8889" offset=".29776"/>
   <stop id="bp" stop-color="#676465" offset=".44382"/>
   <stop id="bq" stop-color="#959394" offset=".56741"/>
   <stop id="br" stop-color="#f2f2f2" offset=".69101"/>
   <stop id="bs" stop-color="#bdbcbc" offset=".79776"/>
   <stop id="bt" stop-color="#727070" offset=".91011"/>
   <stop id="bu" stop-color="#bfbebe" offset="1"/>
  </linearGradient>
  <linearGradient id="k" x2="1" gradientTransform="matrix(360.05 0 0 -360.05 1519.2 -608.21)" gradientUnits="userSpaceOnUse">
   <stop id="bv" stop-color="#bbbaba" offset="0"/>
   <stop id="bw" stop-color="#514e4f" offset=".11798"/>
   <stop id="bx" stop-color="#8a8889" offset=".29776"/>
   <stop id="by" stop-color="#676465" offset=".44382"/>
   <stop id="bz" stop-color="#959394" offset=".56741"/>
   <stop id="ca" stop-color="#f2f2f2" offset=".69101"/>
   <stop id="cb" stop-color="#bdbcbc" offset=".79776"/>
   <stop id="cc" stop-color="#727070" offset=".91011"/>
   <stop id="cd" stop-color="#bfbebe" offset="1"/>
  </linearGradient>
  <linearGradient id="j" x2="1" gradientTransform="matrix(300.14 0 0 -300.14 1348.9 -335.06)" gradientUnits="userSpaceOnUse">
   <stop id="ce" stop-color="#bbbaba" offset="0"/>
   <stop id="cf" stop-color="#514e4f" offset=".11798"/>
   <stop id="cg" stop-color="#8a8889" offset=".29776"/>
   <stop id="ch" stop-color="#676465" offset=".44382"/>
   <stop id="ci" stop-color="#959394" offset=".56741"/>
   <stop id="cj" stop-color="#f2f2f2" offset=".69101"/>
   <stop id="ck" stop-color="#bdbcbc" offset=".79776"/>
   <stop id="cl" stop-color="#727070" offset=".91011"/>
   <stop id="cm" stop-color="#bfbebe" offset="1"/>
  </linearGradient>
  <linearGradient id="i" x2="1" gradientTransform="matrix(164.45 0 0 -164.45 1657.2 -61.569)" gradientUnits="userSpaceOnUse">
   <stop id="cn" stop-color="#bbbaba" offset="0"/>
   <stop id="co" stop-color="#514e4f" offset=".11798"/>
   <stop id="cp" stop-color="#8a8889" offset=".29776"/>
   <stop id="cq" stop-color="#676465" offset=".44382"/>
   <stop id="cr" stop-color="#959394" offset=".56741"/>
   <stop id="cs" stop-color="#f2f2f2" offset=".69101"/>
   <stop id="ct" stop-color="#bdbcbc" offset=".79776"/>
   <stop id="cu" stop-color="#727070" offset=".91011"/>
   <stop id="cv" stop-color="#bfbebe" offset="1"/>
  </linearGradient>
  <linearGradient id="h" x2="1" gradientTransform="matrix(257.85 0 0 -257.85 1590.2 -337.86)" gradientUnits="userSpaceOnUse">
   <stop id="cw" stop-color="#bbbaba" offset="0"/>
   <stop id="cx" stop-color="#514e4f" offset=".11798"/>
   <stop id="cy" stop-color="#8a8889" offset=".29776"/>
   <stop id="cz" stop-color="#676465" offset=".44382"/>
   <stop id="da" stop-color="#959394" offset=".56741"/>
   <stop id="db" stop-color="#f2f2f2" offset=".69101"/>
   <stop id="dc" stop-color="#bdbcbc" offset=".79776"/>
   <stop id="dd" stop-color="#727070" offset=".91011"/>
   <stop id="de" stop-color="#bfbebe" offset="1"/>
  </linearGradient>
  <linearGradient id="g" x2="1" gradientTransform="matrix(451.12 0 0 -451.12 1368.3 -597.98)" gradientUnits="userSpaceOnUse">
   <stop id="df" stop-color="#bbbaba" offset="0"/>
   <stop id="dg" stop-color="#514e4f" offset=".11798"/>
   <stop id="dh" stop-color="#8a8889" offset=".29776"/>
   <stop id="di" stop-color="#676465" offset=".44382"/>
   <stop id="dj" stop-color="#959394" offset=".56741"/>
   <stop id="dk" stop-color="#f2f2f2" offset=".69101"/>
   <stop id="dl" stop-color="#bdbcbc" offset=".79776"/>
   <stop id="dm" stop-color="#727070" offset=".91011"/>
   <stop id="dn" stop-color="#bfbebe" offset="1"/>
  </linearGradient>
  <linearGradient id="f" x2="1" gradientTransform="matrix(451.07 0 0 -451.07 1368.3 -559.62)" gradientUnits="userSpaceOnUse">
   <stop id="do" stop-color="#bbbaba" offset="0"/>
   <stop id="dp" stop-color="#514e4f" offset=".11798"/>
   <stop id="dq" stop-color="#8a8889" offset=".29776"/>
   <stop id="dr" stop-color="#676465" offset=".44382"/>
   <stop id="ds" stop-color="#959394" offset=".56741"/>
   <stop id="dt" stop-color="#f2f2f2" offset=".69101"/>
   <stop id="du" stop-color="#bdbcbc" offset=".79776"/>
   <stop id="dv" stop-color="#727070" offset=".91011"/>
   <stop id="dw" stop-color="#bfbebe" offset="1"/>
  </linearGradient>
  <linearGradient id="d" x2="1" gradientTransform="matrix(713.14 0 0 713.14 814.43 1733.3)" gradientUnits="userSpaceOnUse">
   <stop id="dx" stop-color="#484546" offset="0"/>
   <stop id="dy" stop-color="#d5d4d5" offset=".20224"/>
   <stop id="dz" stop-color="#8d8b8b" offset=".87079"/>
   <stop id="ea" stop-color="#8d8b8b" offset="1"/>
  </linearGradient>
  <linearGradient id="e" x2="1" gradientTransform="matrix(451.12 0 0 -451.12 1368.1 -559.72)" gradientUnits="userSpaceOnUse">
   <stop id="eb" stop-color="#bbbaba" offset="0"/>
   <stop id="ec" stop-color="#514e4f" offset=".11798"/>
   <stop id="ed" stop-color="#8a8889" offset=".29776"/>
   <stop id="ee" stop-color="#676465" offset=".44382"/>
   <stop id="ef" stop-color="#959394" offset=".56741"/>
   <stop id="eg" stop-color="#f2f2f2" offset=".69101"/>
   <stop id="eh" stop-color="#bdbcbc" offset=".79776"/>
   <stop id="ei" stop-color="#727070" offset=".91011"/>
   <stop id="ej" stop-color="#bfbebe" offset="1"/>
  </linearGradient>
  <linearGradient id="c" x1="1629.3" x2="1805.9" y1="127.93" y2="127.93" gradientTransform="translate(0 16.491)" gradientUnits="userSpaceOnUse">
   <stop id="ek" stop-color="#cbcacb" offset="0"/>
   <stop id="el" stop-color="#fcfbfc" offset=".5"/>
   <stop id="em" stop-color="#a8a6a7" offset="1"/>
  </linearGradient>
  <linearGradient id="t" x1="1411.4" x2="1457.8" y1="661.59" y2="661.59" gradientTransform="matrix(.61225 0 0 -.61225 -54.225 884.63)" gradientUnits="userSpaceOnUse">
   <stop id="en" stop-color="#d3d2d2" offset="0"/>
   <stop id="eo" stop-color="#fcfbfc" offset=".4"/>
   <stop id="ep" stop-color="#cecdcd" offset="1"/>
  </linearGradient>
  <linearGradient id="s" x1="1404.6" x2="1451" y1="661.59" y2="661.59" gradientTransform="matrix(.61225 0 0 -.61225 -130.38 884.64)" gradientUnits="userSpaceOnUse">
   <stop id="eq" stop-color="#918f90" offset="0"/>
   <stop id="er" stop-color="#fcfbfc" offset=".5"/>
   <stop id="es" stop-color="#cecdcd" offset="1"/>
  </linearGradient>
  <linearGradient id="r" x1="1407.4" x2="1467.4" y1="661.59" y2="661.59" gradientTransform="matrix(.61225 0 0 -.61225 -86.507 832.71)" gradientUnits="userSpaceOnUse">
   <stop id="et" stop-color="#d2d1d2" offset="0"/>
   <stop id="eu" stop-color="#fbfbfb" offset=".5"/>
   <stop id="ev" stop-color="#d2d1d2" offset="1"/>
  </linearGradient>
  <linearGradient id="q" x1="1407.4" x2="1442.4" y1="661.59" y2="661.59" gradientTransform="matrix(.61225 0 0 -.61225 -72.345 793.55)" gradientUnits="userSpaceOnUse">
   <stop id="ew" stop-color="#d2d1d2" offset="0"/>
   <stop id="ex" stop-color="#fbfbfb" offset=".5"/>
   <stop id="ey" stop-color="#d2d1d2" offset="1"/>
  </linearGradient>
  <linearGradient id="p" x1="845.78" x2="997.18" y1="9.2266" y2="9.2266" gradientTransform="matrix(.48975 0 0 .4898 307.3 338.06)" gradientUnits="userSpaceOnUse">
   <stop id="ez" stop-color="#7a7878" offset="0"/>
   <stop id="fa" stop-color="#fbfbfb" offset=".36024"/>
   <stop id="fb" stop-color="#fbfbfb" offset=".69"/>
   <stop id="fc" stop-color="#d8d7d8" offset="1"/>
  </linearGradient>
 </defs>
 <g id="fd" transform="translate(-309.7 -340.49)">
  <g id="fe" transform="matrix(.61225 0 0 -.61225 -72.345 803.34)">
   <g id="ff" clip-path="url(#w)">
    <g id="fg">
     <g id="fh">
      <path id="fi" d="m624 511h671v245h-671v-245z" fill="url(#b)"/>
     </g>
    </g>
   </g>
  </g>
  <g id="fj" transform="matrix(.61225 0 0 -.61225 -72.345 803.34)">
   <g id="fk" clip-path="url(#v)">
    <g id="fl">
     <g id="fm">
      <path id="fn" d="m624 511h671v245h-671v-245z" fill="url(#a)"/>
     </g>
    </g>
   </g>
  </g>
  <g id="fo" transform="matrix(.61225 0 0 -.61225 -72.345 803.34)">
   <g id="fp" clip-path="url(#u)" fill="#fff">
    <path id="fq" d="m676.64 718.94v-58.999h39.098v-111.88h74.838v111.88h39.1v58.999h-153.04z"/>
    <path id="fr" d="m922.08 718.94v-170.88h74.839v53.801h45.971v42.798h-45.971v31.488h64.3v42.796h-139.14z"/>
    <path id="fs" d="m1227.4 719.82v-171.76h-77.588v149.75l77.588 22.011z"/>
   </g>
  </g>
  <g id="ft" transform="matrix(.61225 0 0 -.61225 -72.345 803.34)"></g>
  <g id="fu" transform="matrix(.59401 0 0 -.59401 -118.08 556.96)">
   <g id="fv" transform="matrix(4.2963 0 0 4.2963 -273.03 -2156.6)">
    <g id="fw">
     <g id="fx">
      <g id="fy">
       <path id="fz" transform="matrix(.19192 0 0 -.19192 230.21 587.73)" d="m843.75 5v306.25h106.91s14.259-80.854 18.688-106h40.187c0.4345-2.1224-14.672 83.254-17.937 101.75l2.125 4.25h227.53c90.704 0 154.65-55.4 171-148.22 6.4661-36.624 2.8948-68.597-10.156-93.969-0.032-0.06177-0.062-0.12581-0.094-0.1875-3.8653-8.3577-8.7117-16.035-14.531-22.969-22.44-26.771-58.044-40.906-102.97-40.906h-219.66s-12.329 69.969-16.5 93.75h-40.188c5.1375-29.272 15.75-89.5 15.75-89.5l-2.1562-4.25zm286.84 22.281h0.031l-45.406 257.44h-64.188l17.938-101.75-2.1563-4.25h-88.281l-18.719 106h-64.156l44.625-253.16h64.188l-15.781 89.469 2.125 4.2812h88.344l16.5-93.75h64.188zm25.375 4.2812h110.69c46.389 0 78.884 16.587 94.969 46.406 9.5259 20.337 11.991 46.288 6.5938 76.938-14.886 84.363-70.854 129.81-149.06 129.81h-107.81zm54.75 53.406-25.063 142.06 2.1563 4.25h31.719c51.026-1.089 74.725-20.896 83.813-72.469 3.433-19.518 1.7629-34.834-4.6876-46.094-8.0321-18.617-27.202-27.75-56.219-27.75zm18.687 22.281c-3.8757 22.009-12.008 68.207-17.156 97.5h-0.031c5.1559-29.304 13.318-75.481 17.187-97.5zm2.125 4.25h13.031c11.333 0 26.252 1.7102 33 9.75 0.396 0.46894 0.7612 0.98937 1.0937 1.5 1.4631 3.9613 2.0313 8.594 2.0313 13.312 0 5.0281-0.6403 10.149-1.4375 14.625-7.1383 40.532-21.692 53.182-62.219 54.062h-1.9374c5.1836-29.335 12.749-72.294 16.437-93.25z" fill="url(#d)"/>
      </g>
     </g>
    </g>
   </g>
   <g id="ga" transform="matrix(4.2963 0 0 4.2963 -273.03 -2156.6)">
    <g id="gb"></g>
   </g>
   <g id="gc" transform="matrix(4.2963 0 0 4.2963 -273.03 -2156.6)"></g>
   <g id="gd" transform="matrix(4.2963 0 0 4.2963 -273.03 -2156.6)">
    <g id="ge"></g>
   </g>
   <g id="gf" transform="matrix(4.2963 0 0 4.2963 -273.03 -2156.6)">
    <g id="gg"></g>
   </g>
   <g id="gh" transform="matrix(4.2963 0 0 4.2963 -273.03 -2156.6)">
    <g id="gi"></g>
   </g>
   <g id="gj" transform="matrix(4.2963 0 0 4.2963 -273.03 -2156.6)"></g>
   <g id="gk" transform="matrix(4.2963 0 0 4.2963 -273.03 -2156.6)">
    <g id="gl"></g>
   </g>
   <g id="gm" transform="matrix(4.2963 0 0 4.2963 -273.03 -2156.6)">
    <g id="gn"></g>
   </g>
   <g id="go" transform="matrix(4.2963 0 0 4.2963 -273.03 -2156.6)">
    <g id="gp"></g>
   </g>
   <g id="gq" transform="matrix(4.2963 0 0 4.2963 -273.03 -2156.6)"></g>
   <g id="gr" transform="matrix(4.2963 0 0 4.2963 -273.03 -2156.6)"></g>
   <g id="gs" transform="matrix(4.2963 0 0 4.2963 -273.03 -2156.6)"></g>
   <g id="gt" transform="matrix(4.2963 0 0 4.2963 -273.03 -2156.6)"></g>
   <g id="gu" transform="matrix(4.2963 0 0 4.2963 -273.03 -2156.6)"></g>
   <g id="gv" transform="matrix(4.2963 0 0 4.2963 -273.03 -2156.6)"></g>
   <g id="gw" transform="matrix(4.2963 0 0 4.2963 -273.03 -2156.6)"></g>
   <path id="gx" d="m1580.6 362.62v-3.523l185.94-0.25509c28.042-0.0385 93.092-16.556 93.092-92.957l3.5345-0.01c0 72.119-56.06 96.745-96.72 96.745z" fill="url(#o)"/>
   <path id="gy" d="m1762.7 215.18c-5.0298-7.5626-14.963-13.053-22.333-14.789-6.9192-1.6298-16.753-2.6712-26.397-2.4286l0.9584-3.538c9.2122 0 18.423 0.44985 27.169 2.683 8.2758 2.1132 17.728 7.1787 23.541 16.109" fill="url(#n)"/>
   <path id="gz" d="m1717.3 296.7v-3.5267c13.236 0 24.335 0.44888 33.902-0.59426 22.117-2.4115 33.902-14.943 33.902-36.282h3.5334c0 17.748-7.8546 36.36-35.669 39.576-9.4856 1.0968-35.668 0.82724-35.668 0.82724z" fill="url(#m)"/>
   <path id="ha" d="m1498.1 115.4h-86.387v-3.5015h88.14l-1.7529 3.5015z" fill="#5e5b5c"/>
   <path id="hb" d="m1499.9 111.9s11.755 66.671 15.407 87.405l-1.7529 3.5058c-3.6562-20.73-15.407-87.409-15.407-87.409l1.7529-3.5015z" fill="#656263"/>
   <path id="hc" d="m1513.5 202.81 1.7529-3.5058h33.155c0.2105 1.2245 0.421 2.4146 0.6187 3.5058h-35.526z" fill="url(#l)"/>
   <path id="hd" d="m1862.6 239.51c-0.017-0.073-0.026-0.14607-0.039-0.21911-0.094-0.56282-0.189-1.1299-0.2879-1.6971-13.473-76.492-66.189-122.19-140.98-122.19h-187.63l1.7443-3.5058h187.63c74.791 0 127.52 45.67 141 122.21 5.3447 30.272 2.3759 56.699-8.4509 77.644 9.1899-19.896 11.622-44.428 7.0117-72.239" fill="url(#k)"/>
   <path id="he" d="m1543.8 360.91-1.7658 3.5101c-2.1954-12.429-10.281-58.284-13.606-77.304h2.3759c4.2362 24.137 12.996 73.794 12.996 73.794" fill="#7b7979"/>
   <path id="hf" d="m1506.5 268.75 1.7486-3.523h72.836l-1.7529 3.523h-72.832z" fill="url(#j)"/>
   <path id="hg" d="m1729.8 280.11 1.7486-3.5101h10.745c9.3446 0 21.645-1.4006 27.209-8.0299 0.3265-0.38667 0.6229-0.82061 0.8979-1.2416-0.6445 1.7615-1.508 3.3855-2.6466 4.7604-5.568 6.625-17.877 8.0213-27.209 8.0213h-10.745z" fill="url(#i)"/>
   <path id="hh" d="m1729.8 280.11c-3.1965-18.148-9.9203-56.239-14.165-80.393h2.3629c4.2749 24.188 10.513 59.599 13.555 76.879l-1.7529 3.5144z" fill="#656263"/>
   <path id="hi" d="m1786.8 275.6v9e-3 -9e-3m2.3415-33.082c-0.01-0.0687-0.021-0.13318-0.034-0.19333-0.064-0.40816-0.1332-0.81631-0.2019-1.2288-7.4972-42.499-27.041-58.851-69.115-59.754h-26.152l1.7701-3.5058h26.148c42.074 0.89793 61.618 17.228 69.111 59.754 2.8313 16.094 1.4521 28.725-3.8667 38.01 3.6948-8.5755 4.5369-19.583 2.3415-33.082" fill="url(#h)"/>
   <path id="hj" d="m1667.4 346.04 1.753-3.523h91.28c38.25 0 65.051-13.675 78.314-38.263-12.554 26.801-40.042 41.786-80.084 41.786h-91.263z" fill="url(#g)"/>
   <path id="hk" d="m1667.4 346.05-37.43-212.28h2.3759l36.794 208.75-1.74 3.5316z" fill="#656263"/>
   <path id="hl" d="m1557.9 133.77 14.788 83.895-1.7701 3.5101-15.398-87.405h2.3802z" fill="#656263"/>
   <path id="hm" d="m1593 346.04-13.624-77.296 1.7529-3.523 13.619 77.3-1.7486 3.5187z" fill="#656263"/>
   <path id="hn" d="m1593 346.04 1.7486-3.523h52.922l0.623 3.523h-55.294z" fill="url(#f)"/>
   <path id="ho" d="m1464.9 346.05-37.43-212.28h2.3802l36.794 208.75-1.7443 3.5316z" fill="#656263"/>
   <path id="hp" d="m1464.9 346.04 1.7486-3.523h52.918l0.6273 3.523h-55.294z" fill="url(#e)"/>
   <path id="hq" d="m1629.3 132.02v-3.543h85.754c42.991 0 66.272 8.3566 91.417 29.227l-2.3159 2.6637c-18.823-16.154-43.794-28.347-85.39-28.347z" fill="url(#c)"/>
  </g>
  <path id="hr" d="m721.55 342.58h73.87" fill="none" stroke="url(#p)" stroke-width="2.106"/>
  <path id="hs" d="m789.77 387.45h20.969l-0.35212 2.0969h-21.061z" fill="url(#q)"/>
  <path id="ht" d="m773.57 426.61h39.485l-0.45488 2.0969h-39.474z" fill="url(#r)"/>
  <path id="hu" d="m729.69 478.53h32.842l-0.37825 2.0969h-32.908z" fill="url(#s)"/>
  <path id="hv" d="m805.75 478.53h32.658v2.0969h-33z" fill="url(#t)"/>
 </g>
</svg>
