<svg id="a" width="600pt" height="411.21pt" version="1.1" viewBox="0 0 600 411.21" xmlns="http://www.w3.org/2000/svg">
 <g id="b" fill="#f50a00" stroke-width="3.1254">
  <path id="c" d="m433.67 226.12v89.247h11.876v-42.206h46.395v42.206h11.88v-89.247h-11.88v36.63h-46.395v-36.63z"/>
  <path id="d" d="m526.09 315.37v-89.247h28.546c7.5082 0 14.963 0.4799 22.241 2.5339 10.075 3.6792 16.688 12.142 20.12 21.93 3.9446 12.181 3.9732 27.121 0.25628 39.02-3.2952 10.28-9.9074 19.324-20.408 23.091-7.7261 2.3354-15.673 2.6714-23.679 2.6714h-27.077m11.908-78.674v68.154h21.762c9.1663 0 17.733-2.2962 22.806-10.935 7.1884-14.189 7.7509-32.723-0.25003-46.662-5.6044-8.8752-14.806-10.557-24.456-10.557z"/>
 </g>
 <path id="e" d="m196.26 224.29h-74.765l74.765-84.111zm102.8 0v-205.6c66.457 33.738 112.15 103.83 112.15 184.86 0 6.9998-0.34542 13.925-1.0088 20.747zm0 93.456h84.11a209.49 209.49 0 0 1-84.11 74.765zm-112.15 0v93.456c-66.896-3.3177-125.14-39.794-158.88-93.456zm9.3456-317.75-195.04 224.29a202.67 202.67 0 0 1-1.2144-22.121c0-109.2 87.195-198.19 196.26-202.17z" fill="#f50a00" fill-rule="evenodd" stroke-width="9.3456"/>
</svg>
