<svg id="a" width="17.363mm" height="3.731mm" version="1.1" viewBox="0 0 17.363 3.731" xmlns="http://www.w3.org/2000/svg">
 <path id="b" d="m0.49868 0c-0.27411 0-0.49868 0.22422-0.49868 0.49868v2.7337c0 0.27411 0.22457 0.49868 0.49868 0.49868h16.366c0.27411 0 0.49816-0.22457 0.49816-0.49868v-2.7337c0-0.27446-0.22405-0.49868-0.49816-0.49868z" fill="#bcbcbc"/>
 <path id="c" d="m4.9996 3.0995c-0.33091 0-0.62936-0.13794-0.84173-0.35948-0.21202 0.22154-0.51047 0.35948-0.84138 0.35948-0.33126 0-0.63006-0.13829-0.84208-0.35983-0.21237 0.22154-0.51082 0.35983-0.84208 0.35983-0.64382 0-1.1659-0.52211-1.1659-1.1659 0-0.64382 0.52211-1.1659 1.1659-1.1659 0.33126 0 0.62971 0.13829 0.84208 0.35983 0.21202-0.22154 0.51082-0.35983 0.84208-0.35983 0.33091 0 0.62936 0.13794 0.84138 0.35948 0.21237-0.22154 0.51082-0.35948 0.84173-0.35948 0.64382 0 1.1659 0.52211 1.1659 1.1659 0 0.64382-0.52211 1.1659-1.1659 1.1659" fill="#ce007f"/>
 <path id="d" d="m7.3108 1.001c-0.36618 0-0.64389 0.2194-0.64389 0.55242 0 0.5655 0.79737 0.52526 0.79737 0.78031 0 0.070555-0.05997 0.12609-0.1912 0.12609-0.15663 0-0.27045-0.080765-0.32866-0.1111-0.083256-0.045509-0.14127-0.039952-0.19172 0.033073l-0.078031 0.11317c-0.065615 0.093486-0.028112 0.1492 0.024805 0.19224 0.095956 0.075846 0.32102 0.17932 0.57361 0.17932 0.4064 0 0.63355-0.26024 0.63355-0.56327 3e-7 -0.57044-0.79788-0.507-0.79788-0.76946 0-0.070908 0.057893-0.12661 0.19689-0.12661 0.11853 0 0.20199 0.042982 0.28525 0.083199 0.070908 0.035278 0.13869 0.050366 0.18914-0.048059l0.060978-0.11834c0.03775-0.073378 0.029972-0.13638-0.043408-0.18965-0.085725-0.060325-0.27724-0.13333-0.48679-0.13333zm3.2582 0c-0.56056 0-0.94361 0.40387-0.94361 0.92139 0 0.52987 0.38305 0.94413 0.94361 0.94413s0.94413-0.41426 0.94413-0.94413c0-0.51752-0.38356-0.92139-0.94413-0.92139zm-2.2665 0.029972c-0.091014 0-0.13901 0.047993-0.13901 0.13901v1.5276c0 0.090664 0.047989 0.13849 0.13901 0.13849h0.16433c0.090662-3e-7 0.13849-0.047829 0.13849-0.13849v-0.4191h0.30799c0.35101 0 0.58808-0.2626 0.58808-0.62632 0-0.36336-0.23706-0.62115-0.58808-0.62115zm3.6044 0c-0.09101 0-0.13901 0.047993-0.13901 0.13901v1.5276c0 0.090664 0.04799 0.13849 0.13901 0.13849h0.16433c0.09102-3e-7 0.13901-0.047829 0.13901-0.13849v-0.46974h0.20671l0.26768 0.50953c0.03775 0.068086 0.08796 0.098702 0.16381 0.098702h0.19224c0.10831-3e-7 0.15099-0.070442 0.0956-0.1664l-0.25735-0.46457c-0.04304-0.075495-0.068213-0.10904-0.068213-0.10904v-0.00465c0.17922-0.090664 0.26975-0.30005 0.26975-0.49196 0-0.26247-0.12854-0.44707-0.3328-0.52503-0.07832-0.030339-0.16673-0.043408-0.35088-0.043408zm1.4211 0c-0.09101 0-0.13849 0.047993-0.13849 0.13901v0.10129c0 0.090664 0.04747 0.13849 0.13849 0.13849h0.40876v1.2878c0 0.090664 0.04799 0.13849 0.13901 0.13849h0.16433c0.09101-3e-7 0.13849-0.047829 0.13849-0.13849v-1.2878h0.40928c0.09066 0 0.13869-0.047829 0.1386-0.13849l-1.04e-4 -0.10129c-9.3e-5 -0.091016-0.04783-0.13901-0.13849-0.13901zm-2.759 0.37362c0.2854 0 0.48731 0.22252 0.48731 0.5178 0 0.30797-0.20191 0.54002-0.48731 0.54002s-0.48679-0.23204-0.48679-0.54002c0-0.29528 0.2014-0.5178 0.48679-0.5178zm-1.9637 0.00517h0.22479c0.1464 0 0.22221 0.098429 0.22221 0.24236 0 0.14393-0.075632 0.24753-0.22944 0.24753h-0.21756zm3.6044 0h0.14883c0.07338 0 0.1267 0.00768 0.16692 0.025322 0.08326 0.032808 0.10594 0.1007 0.10594 0.19172 0 0.14393-0.08798 0.22221-0.22944 0.22221h-0.19224z" fill="#6d6e71"/>
 <g id="e" transform="matrix(.35278 0 0 -.35278 2.1931 1.4456)">
  <path id="f" d="m0 0c-0.247 0.159-0.578 0.09-0.738-0.157l-0.852-1.309-0.854 1.309c-0.16 0.247-0.491 0.316-0.738 0.157-0.248-0.159-0.318-0.488-0.158-0.735l1.301-1.998c0.102-0.157 0.273-0.242 0.449-0.243 0.174 1e-3 0.345 0.086 0.447 0.243l1.301 1.998c0.161 0.247 0.09 0.576-0.158 0.735" fill="#fff"/>
 </g>
 <g id="g" transform="matrix(.35278 0 0 -.35278 3.3159 1.4156)">
  <path id="h" d="m0 0c-0.81 0-1.468-0.657-1.468-1.467s0.658-1.467 1.468-1.467c0.811 0 1.468 0.657 1.468 1.467s-0.657 1.467-1.468 1.467" fill="#fff"/>
 </g>
 <g id="i" transform="matrix(.35278 0 0 -.35278 4.999 1.4156)">
  <path id="j" d="m0 0c-0.81 0-1.468-0.657-1.468-1.467s0.658-1.467 1.468-1.467c0.811 0 1.467 0.657 1.467 1.467s-0.656 1.467-1.467 1.467" fill="#fff"/>
 </g>
 <g id="k" transform="matrix(.54345 0 0 -.54345 -67.015 190.9)" fill="#6d6e71">
  <g id="l" transform="translate(154.51 346.27)" fill="#6d6e71">
   <path id="m" d="m0 0c0-0.171-0.09-0.261-0.261-0.261h-1.842c-0.162 0-0.28 0.09-0.28 0.261v0.104c0 1.251 1.464 1.474 1.464 1.962 0 0.237-0.19 0.336-0.365 0.336-0.152 0-0.28-0.081-0.361-0.166-0.118-0.113-0.241-0.161-0.369-0.057l-0.184 0.147c-0.134 0.105-0.166 0.223-0.067 0.351 0.166 0.218 0.493 0.507 1.057 0.507 0.554 0 1.156-0.318 1.156-1.038 0-1.056-1.37-1.26-1.412-1.696h1.203c0.171 0 0.261-0.09 0.261-0.261z" fill="#6d6e71"/>
  </g>
 </g>
</svg>
