<?xml version="1.0" encoding="UTF-8"?>
<!-- Created with Inkscape (http://www.inkscape.org/) -->
<svg width="600" height="142.91" version="1.1" xmlns="http://www.w3.org/2000/svg" xmlns:cc="http://creativecommons.org/ns#" xmlns:dc="http://purl.org/dc/elements/1.1/" xmlns:rdf="http://www.w3.org/1999/02/22-rdf-syntax-ns#">
 <metadata>
  <rdf:RDF>
   <cc:Work rdf:about="">
    <dc:format>image/svg+xml</dc:format>
    <dc:type rdf:resource="http://purl.org/dc/dcmitype/StillImage"/>
    <dc:title/>
   </cc:Work>
  </rdf:RDF>
 </metadata>
 <g transform="translate(-72.248 -220.92)">
  <g transform="matrix(.99999 0 0 .99999 .0020163 .0015837)">
   <path d="m564.19 257.56v105.84h51.5c15.681 0 28.869-4.6691 39.469-14.031 11.4-10.033 17.094-22.605 17.094-37.719 0-16.48-5.3702-29.606-16.125-39.406-10.755-9.8006-25.367-14.688-43.781-14.688h-48.156zm17.531 15.938h32.062c11.786 0 21.315 3.4372 28.562 10.375 7.273 6.9378 10.906 16.084 10.906 27.406 0 10.652-3.399 19.373-10.156 26.156-6.783 6.783-15.415 10.188-25.938 10.188h-35.438v-74.125z" fill="#929292"/>
   <path d="m535.42 257.55v43.045h-65.922v-43.045h-17.538v106.28l17.538-34.07v-13.257h65.922v46.888h17.538v-105.85h-17.538z" fill="#929292"/>
   <path d="m368.79 311.27c0-18.079 29.995-24.192 31.31-5.0034v57.153h40.543v-55.244c0-4.3329 0.0774-9.2074-1.8827-18.26-9.0268-41.291-59.861-39.202-77.424-13.437-14.133-23.547-47.713-23.16-66.437-7.6857v-11.529h-37.242v69.687h-12.302c-11.09 0-18.363-6.5767-18.363-20.143v-13.05h19.111v-36.494h-19.111v-36.339l-19.034 36.339h-43.896l-26.797 54.935-21.278-54.935h-43.741l49.338 106.18h32.626l35.101-67.598v14.933c0 30.562 18.157 52.665 51.169 52.665h54.367v-52.175c0-18.492 33.141-24.476 33.141-3.6623v55.812h40.801v-52.149z" fill="#f07f00"/>
  </g>
 </g>
</svg>
