<svg id="b" version="1.1" viewBox="0 0 608.86 142.9" xmlns="http://www.w3.org/2000/svg">
 <defs id="c">
  <linearGradient id="a" x2="637.21" y1="120.38" y2="120.38" gradientTransform="matrix(.5921 0 0 .5921 .0067177 0)" gradientUnits="userSpaceOnUse">
   <stop id="d" stop-color="#de6b10" offset="0"/>
   <stop id="e" stop-color="#e88f00" offset="1"/>
  </linearGradient>
 </defs>
 <path id="f" d="m375.34 64.835c-9.5328-43.578-63.236-41.388-81.769-14.21-14.921-24.868-50.388-24.454-70.164-8.1117v-12.138h-39.315v73.657h-13.026c-11.724 0-19.362-6.9275-19.362-21.256v-13.796h20.191v-38.605h-20.191v-30.375l-17.526 30.375-48.789-0.0592-18.533 32.151c-0.82894 1.421-2.1908 2.0723-3.6118 2.0723s-2.8421-0.71053-3.6118-2.0723l-18.651-32.151h-30.138c-8.3486 0-13.559 8.9999-9.3552 16.223l52.282 90.591c2.0724 3.6118 5.7434 5.3881 9.3552 5.3881s7.2828-1.7763 9.3552-5.3881l39.315-68.15v17.941c0 32.269 19.184 55.598 54.059 55.598l57.434-0.0592v-55.065c0-19.539 34.993-25.875 34.993-3.8486v58.914h43.046v-55.065c0-19.125 31.677-25.519 33.098-5.2697v60.335h42.809v-58.322c0.0592-4.5592 0.17762-9.7696-1.8947-19.302z" fill="url(#a)" stroke-width=".5921"/>
 <path id="g" d="m500.8 36.635v105.84h51.499c15.681 0 28.869-4.669 39.469-14.031 11.4-10.033 17.094-22.605 17.094-37.719 0-16.48-5.3702-29.606-16.125-39.406-10.755-9.8005-25.367-14.688-43.781-14.688h-48.156zm17.531 15.938h32.062c11.786 0 21.315 3.4372 28.562 10.375 7.2729 6.9377 10.906 16.084 10.906 27.406 0 10.652-3.399 19.373-10.156 26.156-6.7829 6.7829-15.415 10.188-25.938 10.188h-35.438v-74.124z" fill="#929292" stroke-width=".99999"/>
 <path id="h" d="m472.03 36.625v43.045h-65.921v-43.045h-17.538v106.28l17.538-34.07v-13.257h65.921v46.888h17.538v-105.85h-17.538z" fill="#929292" stroke-width=".99999"/>
</svg>
