<?xml version="1.0" encoding="UTF-8"?>
<svg viewBox="0 0 637.2 240.7" xmlns="http://www.w3.org/2000/svg">
 <linearGradient id="a" x2="637.21" y1="120.38" y2="120.38" gradientUnits="userSpaceOnUse">
  <stop stop-color="#de6b10" offset="0"/>
  <stop stop-color="#e88f00" offset="1"/>
 </linearGradient>
 <path d="M633.9 109.5c-16.1-73.6-106.8-69.9-138.1-24-25.2-42-85.1-41.3-118.5-13.7V51.3h-66.4v124.4h-22c-19.8 0-32.7-11.7-32.7-35.9v-23.3h34.1V51.3h-34.1V0l-29.6 51.3-82.4-.1-31.3 54.3c-1.4 2.4-3.7 3.5-6.1 3.5-2.4 0-4.8-1.2-6.1-3.5L69.2 51.2H18.3C4.2 51.2-4.6 66.4 2.5 78.6l88.3 153c3.5 6.1 9.7 9.1 15.8 9.1 6.1 0 12.3-3 15.8-9.1l66.4-115.1v30.3c0 54.5 32.4 93.9 91.3 93.9l97-.1v-93c0-33 59.1-43.7 59.1-6.5v99.5h72.7v-93c0-32.3 53.5-43.1 55.9-8.9v101.9h72.3v-98.5c.1-7.7.3-16.5-3.2-32.6z" fill="url(#a)"/>
</svg>
