<?xml version="1.0" encoding="UTF-8"?>
<!-- Created with Inkscape (http://www.inkscape.org/) -->
<svg id="svg2" width="600" height="235.52" version="1.1" xmlns="http://www.w3.org/2000/svg" xmlns:cc="http://creativecommons.org/ns#" xmlns:dc="http://purl.org/dc/elements/1.1/" xmlns:rdf="http://www.w3.org/1999/02/22-rdf-syntax-ns#">
 <metadata id="metadata7">
  <rdf:RDF>
   <cc:Work rdf:about="">
    <dc:format>image/svg+xml</dc:format>
    <dc:type rdf:resource="http://purl.org/dc/dcmitype/StillImage"/>
    <dc:title/>
   </cc:Work>
  </rdf:RDF>
 </metadata>
 <g id="g3006" transform="matrix(1.2309 0 0 1.2309 5.5451e-7 -5.5771e-6)">
  <rect id="rect3112" transform="matrix(1 0 -.26747 .96357 0 0)" x="389.91" y="4.7024e-6" width="97.551" height="198.58" fill="#d40055"/>
  <path id="path3491" d="m245.06 147.37h29.318v-37.499h2.2393c3.3394 0 11.756-0.18623 16.333 7.2189l18.013 30.28h31.547l-16.412-27.569c-5.4215-9.2422-9.8806-14.192-13.387-16.736v-0.30487c9.8904-3.5063 20.714-11.963 20.714-29.19 0-21.342-15.292-32.343-42.38-32.343h-45.985v36.841h-0.29465c-5.5689-22.226-24.318-36.841-58.566-36.841h-64.842l-9.8806 43.343c-2.0724 8.9279-3.8304 20.252-3.8304 20.252h-0.31429s-2.2295-12.591-4.3019-21.529l-8.4564-42.066h-35.594l-8.4564 42.066c-2.0724 8.9377-4.3019 21.529-4.3019 21.529h-0.3245s-1.7482-11.324-3.8206-20.252l-9.8806-43.343h-32.195l28.365 106.14h32.382l16.098-68.054h0.16736 0.14772l16.098 68.054h31.871l23.611-88.129h0.31429v8.2403 79.889h36.193c34.729 0 53.891-15.931 59.529-38.707h0.28444v38.707zm-57.427-24.063h-8.918v-58.016h8.1225c19.447 0 28.208 8.6037 28.208 28.375 0 19.437-8.7609 29.642-27.412 29.642m102.77-35.869h-16.029v-23.739h15.066c10.048 0 14.192 3.9778 14.192 11.943 0 7.3368-4.3019 11.796-13.23 11.796" fill="#034b7a"/>
 </g>
</svg>
