<svg id="b" version="1.1" viewBox="0 0 600 702.3" xmlns="http://www.w3.org/2000/svg">
 <defs id="c">
  <style id="d">.cls-1{fill:none;}.cls-2{clip-path:url(#a);}.cls-3{fill:#fff;}</style>
  <clipPath id="a" transform="translate(-174.95 -45.22)">
   <rect id="e" class="cls-1" x="174.95" y="45.22" width="122.98" height="143.92" fill="none"/>
  </clipPath>
 </defs>
 <path id="f" transform="translate(-8.4819e-4)" d="m402.21 0.0039062c-216.06-0.030815-393.51 170.7-401.82 386.6-1.2998 25.769 0.65069 51.599 5.8053 76.88 21.219 101.79 93.622 185.34 191.36 220.82 97.736 35.479 206.87 17.83 288.45-46.644 81.574-64.474 123.96-166.58 112.01-269.87-11.942-103.29-76.505-193.03-170.64-237.19-30.416-14.83-46.121-49.08-37.51-81.805l12.34-48.781z" fill="#fff"/>
 <path id="g" d="m416.19 277.86h19.22c35.81 0 45.47 11.36 45.47 50.68v21.81l0.02 0.2-32.78 10.98v-27.52c0-17.91-1.76-24.05-17.47-24.05h-7.85c-15.27 0-17.02 6.09-17.02 24.05v6.34c0 20.53 5.65 26.63 34.14 46.29 33.66 23.17 41.08 36.68 41.08 67.71v18.34c0 39.32-9.76 50.69-45.47 50.69h-19.22c-36.24 0-45.46-11.37-45.46-50.69v-26.15l32.76-10.97v31.91c0 17.9 1.32 24.05 17.46 24.05h7.42c16.14 0 17.46-6.1 17.46-24.05v-10.93c0-20.54-5.66-26.64-34.15-46.3-33.66-23.17-41.07-36.68-41.07-67.71v-14c0-39.32 9.17-50.68 45.46-50.68zm-135.92 0.19h19.22c35.8 0 45.46 11.36 45.46 50.68v82.59l0.04 0.01h-75.61v56.39c0 17.91 1.75 24.05 17.46 24.05h7.86c15.7 0 17.46-6.09 17.46-24.05v-28.39h32.78v33.66c0 39.32-9.76 50.69-45.46 50.69h-19.21c-36.25 0-45.91-11.37-45.91-50.69v-144.26c0-39.32 9.76-50.68 45.91-50.68zm-155.73 2.21h88.88v26.63h-0.14l-62.05 185.37h57.51l9.76 29.27h-104.89v-26.63l62.05-185.37h-60.88zm162.35 29.7c-15.71 0-17.47 6.1-17.47 24.05v46.73h42.83v-46.73c0-17.9-1.76-24.05-17.46-24.05z" fill="#094c84"/>
</svg>
